SplineFontDB: 3.0
FontName: Neuton-SC-Light
FullName: Neuton SC Light
FamilyName: Neuton SC
Weight: Light
Copyright: Copyright (c) 2010, 2011 Brian M Zick (http://21326.info/), \nwith Reserved Font Name 'Neuton SC'.\n\nThis Font Software is licensed under the SIL Open Font License, Version 1.1.\nThis license is available with a FAQ at: http://scripts.sil.org/OFL\n   WITHOUT WARRANTIES OR CONDITIONS OF ANY KIND, either express or implied.\n   See the License for the specific language governing permissions and\n   limitations under the License.
UComments: "2011-12-4: Created." 
Version: 1.46
ItalicAngle: 0
UnderlinePosition: -100
UnderlineWidth: 50
Ascent: 1638
Descent: 410
LayerCount: 2
Layer: 0 1 "Back"  1
Layer: 1 1 "Fore"  0
XUID: [1021 741 12624067 4699439]
FSType: 1
OS2Version: 0
OS2_WeightWidthSlopeOnly: 0
OS2_UseTypoMetrics: 1
CreationTime: 1322975901
ModificationTime: 1333038477
PfmFamily: 17
TTFWeight: 200
TTFWidth: 5
LineGap: 0
VLineGap: 184
OS2TypoAscent: 2106
OS2TypoAOffset: 0
OS2TypoDescent: -485
OS2TypoDOffset: 0
OS2TypoLinegap: 0
OS2WinAscent: 2106
OS2WinAOffset: 0
OS2WinDescent: 485
OS2WinDOffset: 0
HheadAscent: 2106
HheadAOffset: 0
HheadDescent: -485
HheadDOffset: 0
OS2Vendor: 'PfEd'
Lookup: 3 0 0 "'salt' Stylistic Alternates"  {"Alternate Substitution in Latin lookup 0-1"  } ['salt' ('DFLT' <'dflt' > 'latn' <'dflt' > ) ]
MarkAttachClasses: 1
DEI: 91125
TtTable: prep
PUSHW_1
 511
SCANCTRL
PUSHB_1
 4
SCANTYPE
EndTTInstrs
GaspTable: 1 65535 3 0
Encoding: UnicodeBmp
Compacted: 1
UnicodeInterp: none
NameList: Adobe Glyph List
DisplaySize: -48
AntiAlias: 1
FitToEm: 1
WinInfo: 32 16 6
BeginPrivate: 0
EndPrivate
GridOrder2: 1
Grid
-2048 1379.35 m 1,0,-1
 4096 1379.35 l 1
EndSplineSet
BeginChars: 65538 210

StartChar: A
Encoding: 65 65 0
Width: 1326
VWidth: 0
Flags: MW
LayerCount: 2
Fore
SplineSet
464 534 m 1,0,-1
 837 534 l 1,1,-1
 657 1060 l 1,2,-1
 464 534 l 1,0,-1
46 0 m 1,3,-1
 54 58 l 1,4,-1
 199 101 l 1,5,-1
 637 1246 l 1,6,-1
 739 1268 l 1,7,-1
 1141 95 l 1,8,-1
 1276 64 l 1,9,-1
 1268 0 l 1,10,-1
 806 0 l 1,11,-1
 816 58 l 1,12,-1
 985 101 l 1,13,-1
 861 455 l 1,14,-1
 436 455 l 1,15,-1
 305 95 l 1,16,-1
 490 63 l 1,17,-1
 480 0 l 1,18,-1
 46 0 l 1,3,-1
EndSplineSet
EndChar

StartChar: AE
Encoding: 198 198 1
Width: 1740
VWidth: 0
Flags: MW
LayerCount: 2
Fore
SplineSet
581 553 m 1,0,-1
 891 553 l 1,1,-1
 894 1075 l 1,2,-1
 581 553 l 1,0,-1
49 2 m 1,3,-1
 57 60 l 1,4,-1
 196 102 l 1,5,-1
 840 1154 l 1,6,-1
 616 1187 l 1,7,-1
 625 1244 l 1,8,-1
 1649 1244 l 1,9,-1
 1617 926 l 1,10,-1
 1552 936 l 1,11,-1
 1521 1173 l 1,12,-1
 1035 1173 l 1,13,-1
 1035 669 l 1,14,-1
 1334 669 l 1,15,-1
 1374 801 l 1,16,-1
 1446 808 l 1,17,-1
 1412 421 l 1,18,-1
 1346 409 l 1,19,-1
 1321 596 l 1,20,-1
 1035 596 l 1,21,-1
 1035 75 l 1,22,-1
 1549 75 l 1,23,-1
 1635 326 l 1,24,-1
 1695 313 l 1,25,-1
 1665 0 l 1,26,-1
 703 0 l 1,27,-1
 710 58 l 1,28,-1
 890 96 l 1,29,-1
 890 472 l 1,30,-1
 535 472 l 1,31,-1
 308 96 l 1,32,-1
 494 66 l 1,33,-1
 484 2 l 1,34,-1
 49 2 l 1,3,-1
EndSplineSet
EndChar

StartChar: Aacute
Encoding: 193 193 2
Width: 1326
VWidth: 0
Flags: MW
LayerCount: 2
Fore
SplineSet
464 534 m 1,0,-1
 837 534 l 1,1,-1
 657 1060 l 1,2,-1
 464 534 l 1,0,-1
46 0 m 1,3,-1
 54 58 l 1,4,-1
 199 101 l 1,5,-1
 637 1246 l 1,6,-1
 739 1268 l 1,7,-1
 1141 95 l 1,8,-1
 1276 64 l 1,9,-1
 1268 0 l 1,10,-1
 806 0 l 1,11,-1
 816 58 l 1,12,-1
 985 101 l 1,13,-1
 861 455 l 1,14,-1
 436 455 l 1,15,-1
 305 95 l 1,16,-1
 490 63 l 1,17,-1
 480 0 l 1,18,-1
 46 0 l 1,3,-1
684 1391 m 1,19,-1
 812 1722 l 1,20,-1
 916 1683 l 1,21,-1
 732 1362 l 1,22,-1
 684 1391 l 1,19,-1
EndSplineSet
EndChar

StartChar: Acircumflex
Encoding: 194 194 3
Width: 1326
VWidth: 0
Flags: MW
LayerCount: 2
Fore
SplineSet
464 534 m 1,0,-1
 837 534 l 1,1,-1
 657 1060 l 1,2,-1
 464 534 l 1,0,-1
46 0 m 1,3,-1
 54 58 l 1,4,-1
 199 101 l 1,5,-1
 637 1246 l 1,6,-1
 739 1268 l 1,7,-1
 1141 95 l 1,8,-1
 1276 64 l 1,9,-1
 1268 0 l 1,10,-1
 806 0 l 1,11,-1
 816 58 l 1,12,-1
 985 101 l 1,13,-1
 861 455 l 1,14,-1
 436 455 l 1,15,-1
 305 95 l 1,16,-1
 490 63 l 1,17,-1
 480 0 l 1,18,-1
 46 0 l 1,3,-1
498 1402 m 1,19,-1
 666 1582 l 1,20,-1
 720 1596 l 1,21,-1
 899 1410 l 1,22,-1
 858 1372 l 1,23,-1
 686 1495 l 1,24,-1
 676 1495 l 1,25,-1
 528 1372 l 1,26,-1
 498 1402 l 1,19,-1
EndSplineSet
EndChar

StartChar: Adieresis
Encoding: 196 196 4
Width: 1326
VWidth: 0
Flags: MW
LayerCount: 2
Fore
SplineSet
464 534 m 1,0,-1
 837 534 l 1,1,-1
 657 1060 l 1,2,-1
 464 534 l 1,0,-1
46 0 m 1,3,-1
 54 58 l 1,4,-1
 199 101 l 1,5,-1
 637 1246 l 1,6,-1
 739 1268 l 1,7,-1
 1141 95 l 1,8,-1
 1276 64 l 1,9,-1
 1268 0 l 1,10,-1
 806 0 l 1,11,-1
 816 58 l 1,12,-1
 985 101 l 1,13,-1
 861 455 l 1,14,-1
 436 455 l 1,15,-1
 305 95 l 1,16,-1
 490 63 l 1,17,-1
 480 0 l 1,18,-1
 46 0 l 1,3,-1
742 1440 m 0,19,20
 742 1476 742 1476 762 1497 c 128,-1,21
 782 1518 782 1518 812 1518 c 0,22,23
 843 1518 843 1518 863.5 1496.5 c 128,-1,24
 884 1475 884 1475 884 1440 c 0,25,26
 884 1402 884 1402 864 1380 c 128,-1,27
 844 1358 844 1358 812 1358 c 0,28,29
 780 1358 780 1358 761 1380.5 c 128,-1,30
 742 1403 742 1403 742 1440 c 0,19,20
474 1440 m 0,31,32
 474 1476 474 1476 494 1497 c 128,-1,33
 514 1518 514 1518 544 1518 c 0,34,35
 575 1518 575 1518 595.5 1497 c 128,-1,36
 616 1476 616 1476 616 1440 c 0,37,38
 616 1402 616 1402 597 1380 c 128,-1,39
 578 1358 578 1358 545 1358 c 0,40,41
 513 1358 513 1358 493.5 1380.5 c 128,-1,42
 474 1403 474 1403 474 1440 c 0,31,32
EndSplineSet
EndChar

StartChar: Agrave
Encoding: 192 192 5
Width: 1326
VWidth: 0
Flags: MW
LayerCount: 2
Fore
SplineSet
464 534 m 1,0,-1
 837 534 l 1,1,-1
 657 1060 l 1,2,-1
 464 534 l 1,0,-1
46 0 m 1,3,-1
 54 58 l 1,4,-1
 199 101 l 1,5,-1
 637 1246 l 1,6,-1
 739 1268 l 1,7,-1
 1141 95 l 1,8,-1
 1276 64 l 1,9,-1
 1268 0 l 1,10,-1
 806 0 l 1,11,-1
 816 58 l 1,12,-1
 985 101 l 1,13,-1
 861 455 l 1,14,-1
 436 455 l 1,15,-1
 305 95 l 1,16,-1
 490 63 l 1,17,-1
 480 0 l 1,18,-1
 46 0 l 1,3,-1
492 1690 m 1,19,-1
 596 1728 l 1,20,-1
 729 1393 l 1,21,-1
 678 1362 l 1,22,-1
 492 1690 l 1,19,-1
EndSplineSet
EndChar

StartChar: Aring
Encoding: 197 197 6
Width: 1326
VWidth: 0
Flags: MW
LayerCount: 2
Fore
SplineSet
464 534 m 1,0,-1
 837 534 l 1,1,-1
 657 1060 l 1,2,-1
 464 534 l 1,0,-1
46 0 m 1,3,-1
 54 58 l 1,4,-1
 199 101 l 1,5,-1
 637 1246 l 1,6,-1
 739 1268 l 1,7,-1
 1141 95 l 1,8,-1
 1276 64 l 1,9,-1
 1268 0 l 1,10,-1
 806 0 l 1,11,-1
 816 58 l 1,12,-1
 985 101 l 1,13,-1
 861 455 l 1,14,-1
 436 455 l 1,15,-1
 305 95 l 1,16,-1
 490 63 l 1,17,-1
 480 0 l 1,18,-1
 46 0 l 1,3,-1
596 1522 m 0,19,20
 596 1470 596 1470 622 1430 c 128,-1,21
 648 1390 648 1390 694 1390 c 0,22,23
 737 1390 737 1390 760.5 1420 c 128,-1,24
 784 1450 784 1450 784 1506 c 0,25,26
 784 1558 784 1558 757 1598 c 128,-1,27
 730 1638 730 1638 684 1638 c 0,28,29
 641 1638 641 1638 618.5 1604 c 128,-1,30
 596 1570 596 1570 596 1522 c 0,19,20
528 1511 m 0,31,32
 528 1581 528 1581 577 1631.5 c 128,-1,33
 626 1682 626 1682 696 1682 c 0,34,35
 767 1682 767 1682 810 1636.5 c 128,-1,36
 853 1591 853 1591 853 1520 c 0,37,38
 853 1449 853 1449 805.5 1397 c 128,-1,39
 758 1345 758 1345 684 1345 c 0,40,41
 614 1345 614 1345 571 1390 c 128,-1,42
 528 1435 528 1435 528 1511 c 0,31,32
EndSplineSet
EndChar

StartChar: Atilde
Encoding: 195 195 7
Width: 1326
VWidth: 0
Flags: MW
LayerCount: 2
Fore
SplineSet
464 534 m 1,0,-1
 837 534 l 1,1,-1
 657 1060 l 1,2,-1
 464 534 l 1,0,-1
46 0 m 1,3,-1
 54 58 l 1,4,-1
 199 101 l 1,5,-1
 637 1246 l 1,6,-1
 739 1268 l 1,7,-1
 1141 95 l 1,8,-1
 1276 64 l 1,9,-1
 1268 0 l 1,10,-1
 806 0 l 1,11,-1
 816 58 l 1,12,-1
 985 101 l 1,13,-1
 861 455 l 1,14,-1
 436 455 l 1,15,-1
 305 95 l 1,16,-1
 490 63 l 1,17,-1
 480 0 l 1,18,-1
 46 0 l 1,3,-1
460 1380 m 1,19,20
 473 1446 473 1446 521 1491 c 128,-1,21
 569 1536 569 1536 628 1517 c 1,22,-1
 778 1482 l 1,23,24
 812 1465 812 1465 842 1476.5 c 128,-1,25
 872 1488 872 1488 888 1532 c 1,26,-1
 929 1528 l 1,27,28
 923 1499 923 1499 909 1471 c 128,-1,29
 895 1443 895 1443 873 1419.5 c 128,-1,30
 851 1396 851 1396 822 1388 c 128,-1,31
 793 1380 793 1380 757 1390 c 1,32,-1
 608 1426 l 1,33,34
 574 1443 574 1443 543 1430.5 c 128,-1,35
 512 1418 512 1418 496 1372 c 1,36,-1
 460 1380 l 1,19,20
EndSplineSet
EndChar

StartChar: B
Encoding: 66 66 8
Width: 1097
VWidth: 0
Flags: MW
LayerCount: 2
Fore
SplineSet
371 685 m 1,0,-1
 655 685 l 1,1,2
 720 719 720 719 761 779.5 c 128,-1,3
 802 840 802 840 802 922 c 0,4,5
 802 1045 802 1045 719.5 1118.5 c 128,-1,6
 637 1192 637 1192 471 1192 c 0,7,8
 403 1192 403 1192 371 1186 c 1,9,-1
 371 685 l 1,0,-1
371 75 m 1,10,-1
 603 75 l 2,11,12
 681 75 681 75 740 98.5 c 128,-1,13
 799 122 799 122 833 161.5 c 128,-1,14
 867 201 867 201 883.5 247.5 c 128,-1,15
 900 294 900 294 900 347 c 0,16,17
 900 396 900 396 884 442 c 128,-1,18
 868 488 868 488 835 528.5 c 128,-1,19
 802 569 802 569 744 593.5 c 128,-1,20
 686 618 686 618 610 618 c 2,21,-1
 371 618 l 1,22,-1
 371 75 l 1,10,-1
46 0 m 1,23,-1
 56 58 l 1,24,-1
 224 96 l 1,25,-1
 224 1129 l 1,26,-1
 53 1155 l 1,27,-1
 62 1211 l 1,28,29
 74 1213 74 1213 132.5 1221.5 c 128,-1,30
 191 1230 191 1230 211 1232.5 c 128,-1,31
 231 1235 231 1235 282 1241.5 c 128,-1,32
 333 1248 333 1248 364.5 1250 c 128,-1,33
 396 1252 396 1252 441.5 1254.5 c 128,-1,34
 487 1257 487 1257 530 1257 c 0,35,36
 733 1257 733 1257 840 1173.5 c 128,-1,37
 947 1090 947 1090 947 967 c 0,38,39
 947 875 947 875 894.5 800 c 128,-1,40
 842 725 842 725 741 679 c 1,41,-1
 741 672 l 1,42,43
 886 664 886 664 968.5 576.5 c 128,-1,44
 1051 489 1051 489 1051 380 c 0,45,46
 1051 320 1051 320 1035.5 266.5 c 128,-1,47
 1020 213 1020 213 981 163.5 c 128,-1,48
 942 114 942 114 883 78.5 c 128,-1,49
 824 43 824 43 730.5 21.5 c 128,-1,50
 637 0 637 0 518 0 c 2,51,-1
 46 0 l 1,23,-1
EndSplineSet
EndChar

StartChar: C
Encoding: 67 67 9
Width: 1096
VWidth: 0
Flags: MW
LayerCount: 2
Fore
SplineSet
50 599 m 0,0,1
 50 690 50 690 72 782 c 128,-1,2
 94 874 94 874 142 962.5 c 128,-1,3
 190 1051 190 1051 258.5 1119 c 128,-1,4
 327 1187 327 1187 429.5 1228.5 c 128,-1,5
 532 1270 532 1270 653 1270 c 0,6,7
 874 1270 874 1270 1004 1171 c 1,8,-1
 973 836 l 1,9,-1
 905 846 l 1,10,-1
 869 1086 l 1,11,12
 785 1195 785 1195 601 1195 c 0,13,14
 438 1195 438 1195 325.5 1043 c 128,-1,15
 213 891 213 891 213 651 c 0,16,17
 213 383 213 383 339.5 233.5 c 128,-1,18
 466 84 466 84 669 84 c 0,19,20
 769 84 769 84 862 132 c 128,-1,21
 955 180 955 180 1026 252 c 1,22,-1
 1055 195 l 1,23,24
 992 111 992 111 868.5 43 c 128,-1,25
 745 -25 745 -25 600 -25 c 0,26,27
 485 -25 485 -25 385 18 c 128,-1,28
 285 61 285 61 210.5 139.5 c 128,-1,29
 136 218 136 218 93 336.5 c 128,-1,30
 50 455 50 455 50 599 c 0,0,1
EndSplineSet
EndChar

StartChar: Ccedilla
Encoding: 199 199 10
Width: 1096
VWidth: 0
Flags: MW
LayerCount: 2
Fore
SplineSet
50 599 m 0,0,1
 50 690 50 690 72 782 c 128,-1,2
 94 874 94 874 142 962.5 c 128,-1,3
 190 1051 190 1051 258.5 1119 c 128,-1,4
 327 1187 327 1187 429.5 1228.5 c 128,-1,5
 532 1270 532 1270 653 1270 c 0,6,7
 874 1270 874 1270 1004 1171 c 1,8,-1
 973 836 l 1,9,-1
 905 846 l 1,10,-1
 869 1086 l 1,11,12
 785 1195 785 1195 601 1195 c 0,13,14
 438 1195 438 1195 325.5 1043 c 128,-1,15
 213 891 213 891 213 651 c 0,16,17
 213 383 213 383 339.5 233.5 c 128,-1,18
 466 84 466 84 669 84 c 0,19,20
 769 84 769 84 862 132 c 128,-1,21
 955 180 955 180 1026 252 c 1,22,-1
 1055 195 l 1,23,24
 1000 122 1000 122 896.5 58.5 c 128,-1,25
 793 -5 793 -5 668 -21 c 1,26,-1
 620 -91 l 1,27,28
 709 -170 709 -170 709 -242 c 0,29,30
 709 -298 709 -298 656.5 -337 c 128,-1,31
 604 -376 604 -376 509 -404 c 1,32,-1
 494 -354 l 1,33,34
 536 -340 536 -340 566 -312 c 128,-1,35
 596 -284 596 -284 596 -262 c 0,36,37
 596 -250 596 -250 592 -238 c 128,-1,38
 588 -226 588 -226 584 -218 c 128,-1,39
 580 -210 580 -210 568.5 -196.5 c 128,-1,40
 557 -183 557 -183 553 -179 c 128,-1,41
 549 -175 549 -175 533.5 -160 c 128,-1,42
 518 -145 518 -145 516 -143 c 1,43,-1
 598 -25 l 1,44,45
 483 -25 483 -25 383.5 18 c 128,-1,46
 284 61 284 61 209.5 140 c 128,-1,47
 135 219 135 219 92.5 337.5 c 128,-1,48
 50 456 50 456 50 599 c 0,0,1
EndSplineSet
EndChar

StartChar: D
Encoding: 68 68 11
Width: 1302
VWidth: 0
Flags: MW
LayerCount: 2
Fore
SplineSet
373 79 m 1,0,-1
 535 79 l 2,1,2
 795 79 795 79 943 223.5 c 128,-1,3
 1091 368 1091 368 1091 599 c 0,4,5
 1091 726 1091 726 1054.5 831.5 c 128,-1,6
 1018 937 1018 937 948.5 1015.5 c 128,-1,7
 879 1094 879 1094 769.5 1137.5 c 128,-1,8
 660 1181 660 1181 521 1181 c 0,9,10
 414 1181 414 1181 373 1176 c 1,11,-1
 373 79 l 1,0,-1
45 0 m 1,12,-1
 56 58 l 1,13,-1
 227 101 l 1,14,-1
 227 1128 l 1,15,-1
 54 1154 l 1,16,-1
 64 1210 l 1,17,18
 375 1259 375 1259 557 1259 c 0,19,20
 712 1259 712 1259 834 1225 c 128,-1,21
 956 1191 956 1191 1034 1135 c 128,-1,22
 1112 1079 1112 1079 1162.5 999.5 c 128,-1,23
 1213 920 1213 920 1233.5 835.5 c 128,-1,24
 1254 751 1254 751 1254 654 c 0,25,26
 1254 550 1254 550 1226 454.5 c 128,-1,27
 1198 359 1198 359 1138.5 276 c 128,-1,28
 1079 193 1079 193 992.5 132 c 128,-1,29
 906 71 906 71 781.5 35.5 c 128,-1,30
 657 0 657 0 508 0 c 2,31,-1
 45 0 l 1,12,-1
EndSplineSet
EndChar

StartChar: E
Encoding: 69 69 12
Width: 1098
VWidth: 0
Flags: MW
LayerCount: 2
Fore
SplineSet
47 1185 m 1,0,-1
 56 1244 l 1,1,-1
 1007 1244 l 1,2,-1
 976 925 l 1,3,-1
 909 934 l 1,4,-1
 879 1173 l 1,5,-1
 376 1173 l 1,6,-1
 376 668 l 1,7,-1
 691 668 l 1,8,-1
 731 797 l 1,9,-1
 803 808 l 1,10,-1
 770 419 l 1,11,-1
 704 408 l 1,12,-1
 679 594 l 1,13,-1
 376 594 l 1,14,-1
 376 75 l 1,15,-1
 905 75 l 1,16,-1
 991 324 l 1,17,-1
 1053 313 l 1,18,-1
 1023 0 l 1,19,-1
 53 0 l 1,20,-1
 59 58 l 1,21,-1
 228 96 l 1,22,-1
 228 1151 l 1,23,-1
 47 1185 l 1,0,-1
EndSplineSet
EndChar

StartChar: Eacute
Encoding: 201 201 13
Width: 1098
VWidth: 0
Flags: MW
LayerCount: 2
Fore
SplineSet
47 1185 m 1,0,-1
 56 1244 l 1,1,-1
 1007 1244 l 1,2,-1
 976 925 l 1,3,-1
 909 934 l 1,4,-1
 879 1173 l 1,5,-1
 376 1173 l 1,6,-1
 376 668 l 1,7,-1
 691 668 l 1,8,-1
 731 797 l 1,9,-1
 803 808 l 1,10,-1
 770 419 l 1,11,-1
 704 408 l 1,12,-1
 679 594 l 1,13,-1
 376 594 l 1,14,-1
 376 75 l 1,15,-1
 905 75 l 1,16,-1
 991 324 l 1,17,-1
 1053 313 l 1,18,-1
 1023 0 l 1,19,-1
 53 0 l 1,20,-1
 59 58 l 1,21,-1
 228 96 l 1,22,-1
 228 1151 l 1,23,-1
 47 1185 l 1,0,-1
536 1391 m 1,24,-1
 664 1722 l 1,25,-1
 768 1683 l 1,26,-1
 584 1362 l 1,27,-1
 536 1391 l 1,24,-1
EndSplineSet
EndChar

StartChar: Ecircumflex
Encoding: 202 202 14
Width: 1098
VWidth: 0
Flags: MW
LayerCount: 2
Fore
SplineSet
47 1185 m 1,0,-1
 56 1244 l 1,1,-1
 1007 1244 l 1,2,-1
 976 925 l 1,3,-1
 909 934 l 1,4,-1
 879 1173 l 1,5,-1
 376 1173 l 1,6,-1
 376 668 l 1,7,-1
 691 668 l 1,8,-1
 731 797 l 1,9,-1
 803 808 l 1,10,-1
 770 419 l 1,11,-1
 704 408 l 1,12,-1
 679 594 l 1,13,-1
 376 594 l 1,14,-1
 376 75 l 1,15,-1
 905 75 l 1,16,-1
 991 324 l 1,17,-1
 1053 313 l 1,18,-1
 1023 0 l 1,19,-1
 53 0 l 1,20,-1
 59 58 l 1,21,-1
 228 96 l 1,22,-1
 228 1151 l 1,23,-1
 47 1185 l 1,0,-1
382 1392 m 1,24,-1
 549 1572 l 1,25,-1
 604 1586 l 1,26,-1
 782 1400 l 1,27,-1
 742 1362 l 1,28,-1
 570 1485 l 1,29,-1
 560 1485 l 1,30,-1
 412 1362 l 1,31,-1
 382 1392 l 1,24,-1
EndSplineSet
EndChar

StartChar: Edieresis
Encoding: 203 203 15
Width: 1098
VWidth: 0
Flags: MW
LayerCount: 2
Fore
SplineSet
47 1185 m 1,0,-1
 56 1244 l 1,1,-1
 1007 1244 l 1,2,-1
 976 925 l 1,3,-1
 909 934 l 1,4,-1
 879 1173 l 1,5,-1
 376 1173 l 1,6,-1
 376 668 l 1,7,-1
 691 668 l 1,8,-1
 731 797 l 1,9,-1
 803 808 l 1,10,-1
 770 419 l 1,11,-1
 704 408 l 1,12,-1
 679 594 l 1,13,-1
 376 594 l 1,14,-1
 376 75 l 1,15,-1
 905 75 l 1,16,-1
 991 324 l 1,17,-1
 1053 313 l 1,18,-1
 1023 0 l 1,19,-1
 53 0 l 1,20,-1
 59 58 l 1,21,-1
 228 96 l 1,22,-1
 228 1151 l 1,23,-1
 47 1185 l 1,0,-1
632 1453 m 0,24,25
 632 1489 632 1489 651.5 1509.5 c 128,-1,26
 671 1530 671 1530 701 1530 c 0,27,28
 732 1530 732 1530 753 1509 c 128,-1,29
 774 1488 774 1488 774 1453 c 0,30,31
 774 1415 774 1415 754 1393.5 c 128,-1,32
 734 1372 734 1372 702 1372 c 0,33,34
 670 1372 670 1372 651 1394 c 128,-1,35
 632 1416 632 1416 632 1453 c 0,24,25
363 1453 m 0,36,37
 363 1489 363 1489 383 1509.5 c 128,-1,38
 403 1530 403 1530 433 1530 c 0,39,40
 464 1530 464 1530 484.5 1509.5 c 128,-1,41
 505 1489 505 1489 505 1453 c 0,42,43
 505 1415 505 1415 486 1393.5 c 128,-1,44
 467 1372 467 1372 434 1372 c 0,45,46
 402 1372 402 1372 382.5 1394 c 128,-1,47
 363 1416 363 1416 363 1453 c 0,36,37
EndSplineSet
EndChar

StartChar: Egrave
Encoding: 200 200 16
Width: 1098
VWidth: 0
Flags: MW
LayerCount: 2
Fore
SplineSet
47 1185 m 1,0,-1
 56 1244 l 1,1,-1
 1007 1244 l 1,2,-1
 976 925 l 1,3,-1
 909 934 l 1,4,-1
 879 1173 l 1,5,-1
 376 1173 l 1,6,-1
 376 668 l 1,7,-1
 691 668 l 1,8,-1
 731 797 l 1,9,-1
 803 808 l 1,10,-1
 770 419 l 1,11,-1
 704 408 l 1,12,-1
 679 594 l 1,13,-1
 376 594 l 1,14,-1
 376 75 l 1,15,-1
 905 75 l 1,16,-1
 991 324 l 1,17,-1
 1053 313 l 1,18,-1
 1023 0 l 1,19,-1
 53 0 l 1,20,-1
 59 58 l 1,21,-1
 228 96 l 1,22,-1
 228 1151 l 1,23,-1
 47 1185 l 1,0,-1
403 1690 m 1,24,-1
 508 1728 l 1,25,-1
 640 1393 l 1,26,-1
 589 1362 l 1,27,-1
 403 1690 l 1,24,-1
EndSplineSet
EndChar

StartChar: Eth
Encoding: 208 208 17
Width: 1314
VWidth: 0
Flags: MW
LayerCount: 2
Fore
SplineSet
378 79 m 1,0,-1
 574 79 l 2,1,2
 740 79 740 79 861 148 c 128,-1,3
 982 217 982 217 1041.5 333.5 c 128,-1,4
 1101 450 1101 450 1101 599 c 0,5,6
 1101 726 1101 726 1064 831.5 c 128,-1,7
 1027 937 1027 937 956.5 1015.5 c 128,-1,8
 886 1094 886 1094 776 1138 c 128,-1,9
 666 1182 666 1182 526 1182 c 0,10,11
 427 1182 427 1182 378 1176 c 1,12,-1
 378 672 l 1,13,-1
 650 692 l 1,14,-1
 640 616 l 1,15,-1
 378 597 l 1,16,-1
 378 79 l 1,0,-1
51 574 m 1,17,-1
 61 650 l 1,18,-1
 232 662 l 1,19,-1
 232 1129 l 1,20,-1
 59 1155 l 1,21,-1
 69 1211 l 1,22,23
 380 1260 380 1260 562 1260 c 0,24,25
 718 1260 718 1260 840.5 1226.5 c 128,-1,26
 963 1193 963 1193 1041.5 1137 c 128,-1,27
 1120 1081 1120 1081 1171.5 1002 c 128,-1,28
 1223 923 1223 923 1244.5 838.5 c 128,-1,29
 1266 754 1266 754 1266 657 c 0,30,31
 1266 555 1266 555 1237.5 460 c 128,-1,32
 1209 365 1209 365 1148.5 281 c 128,-1,33
 1088 197 1088 197 1001.5 135 c 128,-1,34
 915 73 915 73 792 36.5 c 128,-1,35
 669 0 669 0 522 0 c 2,36,-1
 50 0 l 1,37,-1
 61 58 l 1,38,-1
 232 101 l 1,39,-1
 232 587 l 1,40,-1
 51 574 l 1,17,-1
EndSplineSet
EndChar

StartChar: Euro
Encoding: 8364 8364 18
Width: 1028
VWidth: 0
Flags: MW
LayerCount: 2
Fore
SplineSet
26 478 m 1,0,-1
 34 560 l 1,1,-1
 171 560 l 1,2,3
 188 640 188 640 225.5 708.5 c 128,-1,4
 263 777 263 777 318.5 829 c 128,-1,5
 374 881 374 881 451.5 910.5 c 128,-1,6
 529 940 529 940 620 940 c 0,7,8
 759 940 759 940 851 877 c 1,9,-1
 825 614 l 1,10,-1
 752 625 l 1,11,-1
 736 790 l 1,12,13
 692 866 692 866 556 865 c 0,14,15
 463 865 463 865 404 789.5 c 128,-1,16
 345 714 345 714 331 560 c 1,17,-1
 655 560 l 1,18,-1
 638 478 l 1,19,-1
 327 478 l 1,20,21
 327 470 327 470 327 462 c 0,22,23
 327 429 327 429 330 398 c 1,24,-1
 619 398 l 1,25,-1
 602 315 l 1,26,-1
 344 315 l 1,27,28
 373 199 373 199 445.5 136.5 c 128,-1,29
 518 74 518 74 616 74 c 0,30,31
 762 74 762 74 862 168 c 1,32,-1
 895 111 l 1,33,34
 859 60 859 60 778.5 17.5 c 128,-1,35
 698 -25 698 -25 568 -25 c 0,36,37
 409 -25 409 -25 302 64 c 128,-1,38
 195 153 195 153 167 315 c 1,39,-1
 22 315 l 1,40,-1
 32 398 l 1,41,-1
 158 398 l 1,42,43
 157 413 157 413 157 429 c 0,44,45
 157 454 157 454 159 478 c 1,46,-1
 26 478 l 1,0,-1
EndSplineSet
EndChar

StartChar: F
Encoding: 70 70 19
Width: 1053
VWidth: 0
Flags: MW
LayerCount: 2
Fore
SplineSet
48 1185 m 1,0,-1
 56 1244 l 1,1,-1
 1006 1244 l 1,2,-1
 969 923 l 1,3,-1
 901 933 l 1,4,-1
 873 1173 l 1,5,-1
 376 1173 l 1,6,-1
 376 652 l 1,7,-1
 687 652 l 1,8,-1
 728 782 l 1,9,-1
 799 792 l 1,10,-1
 770 402 l 1,11,-1
 701 391 l 1,12,-1
 677 579 l 1,13,-1
 376 579 l 1,14,-1
 375 96 l 1,15,-1
 616 68 l 1,16,-1
 604 0 l 1,17,-1
 53 0 l 1,18,-1
 58 58 l 1,19,-1
 227 96 l 1,20,-1
 227 1151 l 1,21,-1
 48 1185 l 1,0,-1
EndSplineSet
EndChar

StartChar: G
Encoding: 71 71 20
Width: 1258
VWidth: 0
Flags: MW
LayerCount: 2
Fore
SplineSet
50 591 m 0,0,1
 50 773 50 773 131.5 926.5 c 128,-1,2
 213 1080 213 1080 357.5 1171 c 128,-1,3
 502 1262 502 1262 677 1262 c 0,4,5
 796 1262 796 1262 902 1236.5 c 128,-1,6
 1008 1211 1008 1211 1080 1162 c 1,7,-1
 1052 841 l 1,8,-1
 986 852 l 1,9,-1
 953 1066 l 1,10,11
 913 1112 913 1112 828.5 1147 c 128,-1,12
 744 1182 744 1182 635 1182 c 0,13,14
 450 1182 450 1182 332 1037 c 128,-1,15
 214 892 214 892 214 640 c 0,16,17
 214 550 214 550 232.5 467 c 128,-1,18
 251 384 251 384 290.5 309.5 c 128,-1,19
 330 235 330 235 387 180 c 128,-1,20
 444 125 444 125 527 93 c 128,-1,21
 610 61 610 61 710 61 c 0,22,23
 840 61 840 61 926 119 c 1,24,-1
 927 463 l 1,25,-1
 688 495 l 1,26,-1
 698 556 l 1,27,-1
 1216 556 l 1,28,-1
 1206 499 l 1,29,-1
 1077 467 l 1,30,-1
 1077 79 l 1,31,32
 980 21 980 21 868 -2.5 c 128,-1,33
 756 -26 756 -26 601 -26 c 0,34,35
 349 -26 349 -26 199.5 145 c 128,-1,36
 50 316 50 316 50 591 c 0,0,1
EndSplineSet
EndChar

StartChar: H
Encoding: 72 72 21
Width: 1435
VWidth: 0
Flags: MW
LayerCount: 2
Fore
SplineSet
46 1187 m 1,0,-1
 53 1244 l 1,1,-1
 554 1244 l 1,2,-1
 546 1187 l 1,3,-1
 377 1156 l 1,4,-1
 377 672 l 1,5,-1
 1050 672 l 1,6,-1
 1050 1154 l 1,7,-1
 867 1187 l 1,8,-1
 876 1244 l 1,9,-1
 1376 1244 l 1,10,-1
 1367 1187 l 1,11,-1
 1200 1156 l 1,12,-1
 1200 90 l 1,13,-1
 1382 63 l 1,14,-1
 1374 0 l 1,15,-1
 875 0 l 1,16,-1
 885 58 l 1,17,-1
 1050 96 l 1,18,-1
 1050 592 l 1,19,-1
 377 591 l 1,20,-1
 377 90 l 1,21,-1
 563 63 l 1,22,-1
 551 0 l 1,23,-1
 54 0 l 1,24,-1
 60 58 l 1,25,-1
 228 96 l 1,26,-1
 228 1154 l 1,27,-1
 46 1187 l 1,0,-1
EndSplineSet
EndChar

StartChar: I
Encoding: 73 73 22
Width: 614
VWidth: 0
Flags: MW
LayerCount: 2
Fore
SplineSet
46 1187 m 1,0,-1
 54 1244 l 1,1,-1
 555 1244 l 1,2,-1
 546 1187 l 1,3,-1
 374 1156 l 1,4,-1
 374 90 l 1,5,-1
 561 63 l 1,6,-1
 551 0 l 1,7,-1
 54 0 l 1,8,-1
 61 58 l 1,9,-1
 223 96 l 1,10,-1
 223 1154 l 1,11,-1
 46 1187 l 1,0,-1
EndSplineSet
EndChar

StartChar: Iacute
Encoding: 205 205 23
Width: 614
VWidth: 0
Flags: MW
LayerCount: 2
Fore
SplineSet
46 1187 m 1,0,-1
 54 1244 l 1,1,-1
 555 1244 l 1,2,-1
 546 1187 l 1,3,-1
 374 1156 l 1,4,-1
 374 90 l 1,5,-1
 561 63 l 1,6,-1
 551 0 l 1,7,-1
 54 0 l 1,8,-1
 61 58 l 1,9,-1
 223 96 l 1,10,-1
 223 1154 l 1,11,-1
 46 1187 l 1,0,-1
276 1391 m 1,12,-1
 403 1722 l 1,13,-1
 506 1683 l 1,14,-1
 324 1362 l 1,15,-1
 276 1391 l 1,12,-1
EndSplineSet
EndChar

StartChar: Icircumflex
Encoding: 206 206 24
Width: 614
VWidth: 0
Flags: MW
LayerCount: 2
Fore
SplineSet
46 1187 m 1,0,-1
 54 1244 l 1,1,-1
 555 1244 l 1,2,-1
 546 1187 l 1,3,-1
 374 1156 l 1,4,-1
 374 90 l 1,5,-1
 561 63 l 1,6,-1
 551 0 l 1,7,-1
 54 0 l 1,8,-1
 61 58 l 1,9,-1
 223 96 l 1,10,-1
 223 1154 l 1,11,-1
 46 1187 l 1,0,-1
110 1392 m 1,12,-1
 278 1572 l 1,13,-1
 332 1586 l 1,14,-1
 511 1400 l 1,15,-1
 470 1362 l 1,16,-1
 298 1485 l 1,17,-1
 288 1485 l 1,18,-1
 140 1362 l 1,19,-1
 110 1392 l 1,12,-1
EndSplineSet
EndChar

StartChar: Idieresis
Encoding: 207 207 25
Width: 614
VWidth: 0
Flags: MW
LayerCount: 2
Fore
SplineSet
46 1187 m 1,0,-1
 54 1244 l 1,1,-1
 555 1244 l 1,2,-1
 546 1187 l 1,3,-1
 374 1156 l 1,4,-1
 374 90 l 1,5,-1
 561 63 l 1,6,-1
 551 0 l 1,7,-1
 54 0 l 1,8,-1
 61 58 l 1,9,-1
 223 96 l 1,10,-1
 223 1154 l 1,11,-1
 46 1187 l 1,0,-1
370 1443 m 0,12,13
 370 1479 370 1479 390 1499.5 c 128,-1,14
 410 1520 410 1520 440 1520 c 0,15,16
 471 1520 471 1520 491.5 1499 c 128,-1,17
 512 1478 512 1478 512 1443 c 0,18,19
 512 1405 512 1405 492 1383.5 c 128,-1,20
 472 1362 472 1362 440 1362 c 0,21,22
 408 1362 408 1362 389 1384 c 128,-1,23
 370 1406 370 1406 370 1443 c 0,12,13
102 1443 m 0,24,25
 102 1479 102 1479 122 1499.5 c 128,-1,26
 142 1520 142 1520 172 1520 c 0,27,28
 203 1520 203 1520 223.5 1499.5 c 128,-1,29
 244 1479 244 1479 244 1443 c 0,30,31
 244 1405 244 1405 225 1383.5 c 128,-1,32
 206 1362 206 1362 173 1362 c 0,33,34
 141 1362 141 1362 121.5 1384 c 128,-1,35
 102 1406 102 1406 102 1443 c 0,24,25
EndSplineSet
EndChar

StartChar: Igrave
Encoding: 204 204 26
Width: 614
VWidth: 0
Flags: MW
LayerCount: 2
Fore
SplineSet
46 1187 m 1,0,-1
 54 1244 l 1,1,-1
 555 1244 l 1,2,-1
 546 1187 l 1,3,-1
 374 1156 l 1,4,-1
 374 90 l 1,5,-1
 561 63 l 1,6,-1
 551 0 l 1,7,-1
 54 0 l 1,8,-1
 61 58 l 1,9,-1
 223 96 l 1,10,-1
 223 1154 l 1,11,-1
 46 1187 l 1,0,-1
119 1693 m 1,12,-1
 224 1730 l 1,13,-1
 356 1396 l 1,14,-1
 305 1365 l 1,15,-1
 119 1693 l 1,12,-1
EndSplineSet
EndChar

StartChar: J
Encoding: 74 74 27
Width: 656
VWidth: 0
Flags: MW
LayerCount: 2
Fore
SplineSet
38 -259 m 1,0,1
 163 -146 163 -146 223 -36 c 128,-1,2
 283 74 283 74 283 209 c 2,3,-1
 283 1154 l 1,4,-1
 101 1187 l 1,5,-1
 109 1244 l 1,6,-1
 612 1244 l 1,7,-1
 603 1187 l 1,8,-1
 433 1156 l 1,9,-1
 431 372 l 2,10,11
 430 250 430 250 418 162.5 c 128,-1,12
 406 75 406 75 383.5 7 c 128,-1,13
 361 -61 361 -61 316 -117.5 c 128,-1,14
 271 -174 271 -174 217 -220.5 c 128,-1,15
 163 -267 163 -267 76 -325 c 1,16,-1
 38 -259 l 1,0,1
EndSplineSet
EndChar

StartChar: K
Encoding: 75 75 28
Width: 1251
VWidth: 0
Flags: MW
LayerCount: 2
Fore
SplineSet
417 623 m 1,0,1
 517 728 517 728 567 790 c 2,2,-1
 856 1151 l 1,3,-1
 691 1187 l 1,4,-1
 697 1244 l 1,5,-1
 1147 1244 l 1,6,-1
 1140 1187 l 1,7,-1
 975 1152 l 1,8,-1
 564 649 l 1,9,-1
 809 358 l 2,10,11
 937 206 937 206 1003 147 c 128,-1,12
 1069 88 1069 88 1154 68 c 1,13,-1
 1200 58 l 1,14,-1
 1189 2 l 1,15,16
 1123 -21 1123 -21 1070 -21 c 0,17,18
 1016 -21 1016 -21 966 -1.5 c 128,-1,19
 916 18 916 18 868.5 58 c 128,-1,20
 821 98 821 98 783.5 140 c 128,-1,21
 746 182 746 182 696 246 c 2,22,-1
 419 604 l 1,23,-1
 417 623 l 1,0,1
46 1187 m 1,24,-1
 56 1244 l 1,25,-1
 556 1244 l 1,26,-1
 549 1187 l 1,27,-1
 378 1152 l 1,28,-1
 378 95 l 1,29,-1
 565 63 l 1,30,-1
 555 0 l 1,31,-1
 55 0 l 1,32,-1
 63 58 l 1,33,-1
 227 101 l 1,34,-1
 227 1149 l 1,35,-1
 46 1187 l 1,24,-1
EndSplineSet
EndChar

StartChar: L
Encoding: 76 76 29
Width: 1078
VWidth: 0
Flags: MW
LayerCount: 2
Fore
SplineSet
52 0 m 1,0,-1
 60 58 l 1,1,-1
 227 96 l 1,2,-1
 227 1148 l 1,3,-1
 47 1186 l 1,4,-1
 56 1244 l 1,5,-1
 558 1244 l 1,6,-1
 551 1186 l 1,7,-1
 376 1152 l 1,8,-1
 376 75 l 1,9,-1
 863 75 l 1,10,-1
 968 341 l 1,11,-1
 1032 331 l 1,12,-1
 998 0 l 1,13,-1
 52 0 l 1,0,-1
EndSplineSet
EndChar

StartChar: M
Encoding: 77 77 30
Width: 1711
VWidth: 0
Flags: MW
LayerCount: 2
Fore
SplineSet
44 0 m 1,0,-1
 52 54 l 1,1,-1
 220 92 l 1,2,-1
 297 1151 l 1,3,-1
 113 1188 l 1,4,-1
 122 1244 l 1,5,-1
 482 1244 l 1,6,-1
 557 1053 l 1,7,-1
 844 268 l 1,8,-1
 1178 1092 l 1,9,-1
 1245 1244 l 1,10,-1
 1605 1244 l 1,11,-1
 1598 1188 l 1,12,-1
 1427 1154 l 1,13,-1
 1481 86 l 1,14,-1
 1662 60 l 1,15,-1
 1656 0 l 1,16,-1
 1157 0 l 1,17,-1
 1165 54 l 1,18,-1
 1334 92 l 1,19,-1
 1277 1087 l 1,20,-1
 854 55 l 1,21,-1
 765 41 l 1,22,-1
 389 1059 l 1,23,-1
 318 86 l 1,24,-1
 501 60 l 1,25,-1
 491 0 l 1,26,-1
 44 0 l 1,0,-1
EndSplineSet
EndChar

StartChar: N
Encoding: 78 78 31
Width: 1368
VWidth: 0
Flags: MW
LayerCount: 2
Fore
SplineSet
46 1188 m 1,0,-1
 56 1244 l 1,1,-1
 383 1244 l 1,2,-1
 1050 225 l 1,3,-1
 1050 1154 l 1,4,-1
 865 1187 l 1,5,-1
 874 1244 l 1,6,-1
 1324 1244 l 1,7,-1
 1313 1187 l 1,8,-1
 1147 1156 l 1,9,-1
 1147 -3 l 1,10,-1
 1043 -24 l 1,11,-1
 330 1047 l 1,12,-1
 330 90 l 1,13,-1
 514 63 l 1,14,-1
 504 0 l 1,15,-1
 56 0 l 1,16,-1
 62 58 l 1,17,-1
 229 96 l 1,18,-1
 229 1147 l 1,19,-1
 46 1188 l 1,0,-1
EndSplineSet
EndChar

StartChar: Ntilde
Encoding: 209 209 32
Width: 1368
VWidth: 0
Flags: MW
LayerCount: 2
Fore
SplineSet
46 1188 m 1,0,-1
 56 1244 l 1,1,-1
 383 1244 l 1,2,-1
 1050 225 l 1,3,-1
 1050 1154 l 1,4,-1
 865 1187 l 1,5,-1
 874 1244 l 1,6,-1
 1324 1244 l 1,7,-1
 1313 1187 l 1,8,-1
 1147 1156 l 1,9,-1
 1147 -3 l 1,10,-1
 1043 -24 l 1,11,-1
 330 1047 l 1,12,-1
 330 90 l 1,13,-1
 514 63 l 1,14,-1
 504 0 l 1,15,-1
 56 0 l 1,16,-1
 62 58 l 1,17,-1
 229 96 l 1,18,-1
 229 1147 l 1,19,-1
 46 1188 l 1,0,-1
420 1370 m 1,20,21
 433 1436 433 1436 480.5 1481 c 128,-1,22
 528 1526 528 1526 587 1507 c 1,23,-1
 736 1472 l 1,24,25
 770 1455 770 1455 801 1466.5 c 128,-1,26
 832 1478 832 1478 848 1522 c 1,27,-1
 888 1518 l 1,28,29
 882 1489 882 1489 868 1461 c 128,-1,30
 854 1433 854 1433 832 1409.5 c 128,-1,31
 810 1386 810 1386 781 1378 c 128,-1,32
 752 1370 752 1370 716 1380 c 1,33,-1
 568 1416 l 1,34,35
 534 1433 534 1433 502 1420.5 c 128,-1,36
 470 1408 470 1408 454 1362 c 1,37,-1
 420 1370 l 1,20,21
EndSplineSet
EndChar

StartChar: O
Encoding: 79 79 33
Width: 1266
VWidth: 0
Flags: MW
LayerCount: 2
Fore
SplineSet
217 678 m 0,0,1
 217 551 217 551 244 440.5 c 128,-1,2
 271 330 271 330 322.5 244 c 128,-1,3
 374 158 374 158 457.5 108 c 128,-1,4
 541 58 541 58 647 58 c 0,5,6
 733 58 733 58 803 88.5 c 128,-1,7
 873 119 873 119 918.5 169.5 c 128,-1,8
 964 220 964 220 994.5 287.5 c 128,-1,9
 1025 355 1025 355 1038.5 426.5 c 128,-1,10
 1052 498 1052 498 1052 574 c 0,11,12
 1052 744 1052 744 1005 883 c 128,-1,13
 958 1022 958 1022 858 1109.5 c 128,-1,14
 758 1197 758 1197 620 1197 c 0,15,16
 534 1197 534 1197 464.5 1168 c 128,-1,17
 395 1139 395 1139 349.5 1090 c 128,-1,18
 304 1041 304 1041 273.5 973.5 c 128,-1,19
 243 906 243 906 230 832.5 c 128,-1,20
 217 759 217 759 217 678 c 0,0,1
50 620 m 0,21,22
 50 812 50 812 124.5 960 c 128,-1,23
 199 1108 199 1108 340.5 1191 c 128,-1,24
 482 1274 482 1274 669 1274 c 0,25,26
 798 1274 798 1274 903 1223 c 128,-1,27
 1008 1172 1008 1172 1076 1083.5 c 128,-1,28
 1144 995 1144 995 1181 877.5 c 128,-1,29
 1218 760 1218 760 1218 624 c 0,30,31
 1218 525 1218 525 1193.5 431.5 c 128,-1,32
 1169 338 1169 338 1118 254.5 c 128,-1,33
 1067 171 1067 171 995 108.5 c 128,-1,34
 923 46 923 46 821 9.5 c 128,-1,35
 719 -27 719 -27 599 -27 c 0,36,37
 438 -27 438 -27 311.5 60.5 c 128,-1,38
 185 148 185 148 117.5 295 c 128,-1,39
 50 442 50 442 50 620 c 0,21,22
EndSplineSet
EndChar

StartChar: Oacute
Encoding: 211 211 34
Width: 1266
VWidth: 0
Flags: MW
LayerCount: 2
Fore
SplineSet
217 678 m 0,0,1
 217 551 217 551 244 440.5 c 128,-1,2
 271 330 271 330 322.5 244 c 128,-1,3
 374 158 374 158 457.5 108 c 128,-1,4
 541 58 541 58 647 58 c 0,5,6
 733 58 733 58 803 88.5 c 128,-1,7
 873 119 873 119 918.5 169.5 c 128,-1,8
 964 220 964 220 994.5 287.5 c 128,-1,9
 1025 355 1025 355 1038.5 426.5 c 128,-1,10
 1052 498 1052 498 1052 574 c 0,11,12
 1052 744 1052 744 1005 883 c 128,-1,13
 958 1022 958 1022 858 1109.5 c 128,-1,14
 758 1197 758 1197 620 1197 c 0,15,16
 534 1197 534 1197 464.5 1168 c 128,-1,17
 395 1139 395 1139 349.5 1090 c 128,-1,18
 304 1041 304 1041 273.5 973.5 c 128,-1,19
 243 906 243 906 230 832.5 c 128,-1,20
 217 759 217 759 217 678 c 0,0,1
50 620 m 0,21,22
 50 812 50 812 124.5 960 c 128,-1,23
 199 1108 199 1108 340.5 1191 c 128,-1,24
 482 1274 482 1274 669 1274 c 0,25,26
 798 1274 798 1274 903 1223 c 128,-1,27
 1008 1172 1008 1172 1076 1083.5 c 128,-1,28
 1144 995 1144 995 1181 877.5 c 128,-1,29
 1218 760 1218 760 1218 624 c 0,30,31
 1218 525 1218 525 1193.5 431.5 c 128,-1,32
 1169 338 1169 338 1118 254.5 c 128,-1,33
 1067 171 1067 171 995 108.5 c 128,-1,34
 923 46 923 46 821 9.5 c 128,-1,35
 719 -27 719 -27 599 -27 c 0,36,37
 438 -27 438 -27 311.5 60.5 c 128,-1,38
 185 148 185 148 117.5 295 c 128,-1,39
 50 442 50 442 50 620 c 0,21,22
608 1391 m 1,40,-1
 735 1722 l 1,41,-1
 838 1683 l 1,42,-1
 656 1362 l 1,43,-1
 608 1391 l 1,40,-1
EndSplineSet
EndChar

StartChar: Ocircumflex
Encoding: 212 212 35
Width: 1266
VWidth: 0
Flags: MW
LayerCount: 2
Fore
SplineSet
217 678 m 0,0,1
 217 551 217 551 244 440.5 c 128,-1,2
 271 330 271 330 322.5 244 c 128,-1,3
 374 158 374 158 457.5 108 c 128,-1,4
 541 58 541 58 647 58 c 0,5,6
 733 58 733 58 803 88.5 c 128,-1,7
 873 119 873 119 918.5 169.5 c 128,-1,8
 964 220 964 220 994.5 287.5 c 128,-1,9
 1025 355 1025 355 1038.5 426.5 c 128,-1,10
 1052 498 1052 498 1052 574 c 0,11,12
 1052 744 1052 744 1005 883 c 128,-1,13
 958 1022 958 1022 858 1109.5 c 128,-1,14
 758 1197 758 1197 620 1197 c 0,15,16
 534 1197 534 1197 464.5 1168 c 128,-1,17
 395 1139 395 1139 349.5 1090 c 128,-1,18
 304 1041 304 1041 273.5 973.5 c 128,-1,19
 243 906 243 906 230 832.5 c 128,-1,20
 217 759 217 759 217 678 c 0,0,1
50 620 m 0,21,22
 50 812 50 812 124.5 960 c 128,-1,23
 199 1108 199 1108 340.5 1191 c 128,-1,24
 482 1274 482 1274 669 1274 c 0,25,26
 798 1274 798 1274 903 1223 c 128,-1,27
 1008 1172 1008 1172 1076 1083.5 c 128,-1,28
 1144 995 1144 995 1181 877.5 c 128,-1,29
 1218 760 1218 760 1218 624 c 0,30,31
 1218 525 1218 525 1193.5 431.5 c 128,-1,32
 1169 338 1169 338 1118 254.5 c 128,-1,33
 1067 171 1067 171 995 108.5 c 128,-1,34
 923 46 923 46 821 9.5 c 128,-1,35
 719 -27 719 -27 599 -27 c 0,36,37
 438 -27 438 -27 311.5 60.5 c 128,-1,38
 185 148 185 148 117.5 295 c 128,-1,39
 50 442 50 442 50 620 c 0,21,22
448 1392 m 1,40,-1
 616 1572 l 1,41,-1
 670 1586 l 1,42,-1
 849 1400 l 1,43,-1
 808 1362 l 1,44,-1
 636 1485 l 1,45,-1
 626 1485 l 1,46,-1
 478 1362 l 1,47,-1
 448 1392 l 1,40,-1
EndSplineSet
EndChar

StartChar: Odieresis
Encoding: 214 214 36
Width: 1266
VWidth: 0
Flags: MW
LayerCount: 2
Fore
SplineSet
217 678 m 0,0,1
 217 551 217 551 244 440.5 c 128,-1,2
 271 330 271 330 322.5 244 c 128,-1,3
 374 158 374 158 457.5 108 c 128,-1,4
 541 58 541 58 647 58 c 0,5,6
 733 58 733 58 803 88.5 c 128,-1,7
 873 119 873 119 918.5 169.5 c 128,-1,8
 964 220 964 220 994.5 287.5 c 128,-1,9
 1025 355 1025 355 1038.5 426.5 c 128,-1,10
 1052 498 1052 498 1052 574 c 0,11,12
 1052 744 1052 744 1005 883 c 128,-1,13
 958 1022 958 1022 858 1109.5 c 128,-1,14
 758 1197 758 1197 620 1197 c 0,15,16
 534 1197 534 1197 464.5 1168 c 128,-1,17
 395 1139 395 1139 349.5 1090 c 128,-1,18
 304 1041 304 1041 273.5 973.5 c 128,-1,19
 243 906 243 906 230 832.5 c 128,-1,20
 217 759 217 759 217 678 c 0,0,1
50 620 m 0,21,22
 50 812 50 812 124.5 960 c 128,-1,23
 199 1108 199 1108 340.5 1191 c 128,-1,24
 482 1274 482 1274 669 1274 c 0,25,26
 798 1274 798 1274 903 1223 c 128,-1,27
 1008 1172 1008 1172 1076 1083.5 c 128,-1,28
 1144 995 1144 995 1181 877.5 c 128,-1,29
 1218 760 1218 760 1218 624 c 0,30,31
 1218 525 1218 525 1193.5 431.5 c 128,-1,32
 1169 338 1169 338 1118 254.5 c 128,-1,33
 1067 171 1067 171 995 108.5 c 128,-1,34
 923 46 923 46 821 9.5 c 128,-1,35
 719 -27 719 -27 599 -27 c 0,36,37
 438 -27 438 -27 311.5 60.5 c 128,-1,38
 185 148 185 148 117.5 295 c 128,-1,39
 50 442 50 442 50 620 c 0,21,22
692 1445 m 0,40,41
 692 1481 692 1481 712 1501.5 c 128,-1,42
 732 1522 732 1522 762 1522 c 0,43,44
 793 1522 793 1522 813.5 1501 c 128,-1,45
 834 1480 834 1480 834 1445 c 0,46,47
 834 1407 834 1407 814 1385.5 c 128,-1,48
 794 1364 794 1364 762 1364 c 0,49,50
 730 1364 730 1364 711 1386 c 128,-1,51
 692 1408 692 1408 692 1445 c 0,40,41
424 1445 m 0,52,53
 424 1481 424 1481 444 1501.5 c 128,-1,54
 464 1522 464 1522 494 1522 c 0,55,56
 525 1522 525 1522 545.5 1501.5 c 128,-1,57
 566 1481 566 1481 566 1445 c 0,58,59
 566 1407 566 1407 547 1385.5 c 128,-1,60
 528 1364 528 1364 495 1364 c 0,61,62
 463 1364 463 1364 443.5 1386 c 128,-1,63
 424 1408 424 1408 424 1445 c 0,52,53
EndSplineSet
EndChar

StartChar: Ograve
Encoding: 210 210 37
Width: 1266
VWidth: 0
Flags: MW
LayerCount: 2
Fore
SplineSet
217 678 m 0,0,1
 217 551 217 551 244 440.5 c 128,-1,2
 271 330 271 330 322.5 244 c 128,-1,3
 374 158 374 158 457.5 108 c 128,-1,4
 541 58 541 58 647 58 c 0,5,6
 733 58 733 58 803 88.5 c 128,-1,7
 873 119 873 119 918.5 169.5 c 128,-1,8
 964 220 964 220 994.5 287.5 c 128,-1,9
 1025 355 1025 355 1038.5 426.5 c 128,-1,10
 1052 498 1052 498 1052 574 c 0,11,12
 1052 744 1052 744 1005 883 c 128,-1,13
 958 1022 958 1022 858 1109.5 c 128,-1,14
 758 1197 758 1197 620 1197 c 0,15,16
 534 1197 534 1197 464.5 1168 c 128,-1,17
 395 1139 395 1139 349.5 1090 c 128,-1,18
 304 1041 304 1041 273.5 973.5 c 128,-1,19
 243 906 243 906 230 832.5 c 128,-1,20
 217 759 217 759 217 678 c 0,0,1
50 620 m 0,21,22
 50 812 50 812 124.5 960 c 128,-1,23
 199 1108 199 1108 340.5 1191 c 128,-1,24
 482 1274 482 1274 669 1274 c 0,25,26
 798 1274 798 1274 903 1223 c 128,-1,27
 1008 1172 1008 1172 1076 1083.5 c 128,-1,28
 1144 995 1144 995 1181 877.5 c 128,-1,29
 1218 760 1218 760 1218 624 c 0,30,31
 1218 525 1218 525 1193.5 431.5 c 128,-1,32
 1169 338 1169 338 1118 254.5 c 128,-1,33
 1067 171 1067 171 995 108.5 c 128,-1,34
 923 46 923 46 821 9.5 c 128,-1,35
 719 -27 719 -27 599 -27 c 0,36,37
 438 -27 438 -27 311.5 60.5 c 128,-1,38
 185 148 185 148 117.5 295 c 128,-1,39
 50 442 50 442 50 620 c 0,21,22
454 1690 m 1,40,-1
 558 1728 l 1,41,-1
 691 1393 l 1,42,-1
 640 1362 l 1,43,-1
 454 1690 l 1,40,-1
EndSplineSet
EndChar

StartChar: Oslash
Encoding: 216 216 38
Width: 1264
VWidth: 0
Flags: MW
LayerCount: 2
Fore
SplineSet
50 620 m 0,0,1
 50 812 50 812 124.5 960 c 128,-1,2
 199 1108 199 1108 340 1191 c 128,-1,3
 481 1274 481 1274 668 1274 c 0,4,5
 855 1274 855 1274 989 1170 c 1,6,-1
 1037 1233 l 1,7,-1
 1158 1220 l 1,8,-1
 1060 1102 l 1,9,10
 1136 1014 1136 1014 1176 891 c 128,-1,11
 1216 768 1216 768 1216 624 c 0,12,13
 1216 525 1216 525 1191.5 431.5 c 128,-1,14
 1167 338 1167 338 1116 254.5 c 128,-1,15
 1065 171 1065 171 993.5 108.5 c 128,-1,16
 922 46 922 46 820 9.5 c 128,-1,17
 718 -27 718 -27 598 -27 c 0,18,19
 419 -27 419 -27 284 80 c 1,20,-1
 224 -5 l 1,21,-1
 108 8 l 1,22,-1
 212 148 l 1,23,24
 134 237 134 237 92 359 c 128,-1,25
 50 481 50 481 50 620 c 0,0,1
354 199 m 1,26,27
 468 58 468 58 647 58 c 0,28,29
 733 58 733 58 802.5 88.5 c 128,-1,30
 872 119 872 119 917.5 169.5 c 128,-1,31
 963 220 963 220 994 287.5 c 128,-1,32
 1025 355 1025 355 1038 426.5 c 128,-1,33
 1051 498 1051 498 1051 574 c 0,34,35
 1051 822 1051 822 954 991 c 1,36,-1
 354 199 l 1,26,27
316 255 m 1,37,-1
 916 1048 l 1,38,39
 801 1197 801 1197 619 1197 c 0,40,41
 533 1197 533 1197 463.5 1168 c 128,-1,42
 394 1139 394 1139 348.5 1090 c 128,-1,43
 303 1041 303 1041 272 973.5 c 128,-1,44
 241 906 241 906 228 832.5 c 128,-1,45
 215 759 215 759 215 678 c 0,46,47
 215 423 215 423 316 255 c 1,37,-1
EndSplineSet
EndChar

StartChar: Otilde
Encoding: 213 213 39
Width: 1266
VWidth: 0
Flags: MW
LayerCount: 2
Fore
SplineSet
217 678 m 0,0,1
 217 551 217 551 244 440.5 c 128,-1,2
 271 330 271 330 322.5 244 c 128,-1,3
 374 158 374 158 457.5 108 c 128,-1,4
 541 58 541 58 647 58 c 0,5,6
 733 58 733 58 803 88.5 c 128,-1,7
 873 119 873 119 918.5 169.5 c 128,-1,8
 964 220 964 220 994.5 287.5 c 128,-1,9
 1025 355 1025 355 1038.5 426.5 c 128,-1,10
 1052 498 1052 498 1052 574 c 0,11,12
 1052 744 1052 744 1005 883 c 128,-1,13
 958 1022 958 1022 858 1109.5 c 128,-1,14
 758 1197 758 1197 620 1197 c 0,15,16
 534 1197 534 1197 464.5 1168 c 128,-1,17
 395 1139 395 1139 349.5 1090 c 128,-1,18
 304 1041 304 1041 273.5 973.5 c 128,-1,19
 243 906 243 906 230 832.5 c 128,-1,20
 217 759 217 759 217 678 c 0,0,1
50 620 m 0,21,22
 50 812 50 812 124.5 960 c 128,-1,23
 199 1108 199 1108 340.5 1191 c 128,-1,24
 482 1274 482 1274 669 1274 c 0,25,26
 798 1274 798 1274 903 1223 c 128,-1,27
 1008 1172 1008 1172 1076 1083.5 c 128,-1,28
 1144 995 1144 995 1181 877.5 c 128,-1,29
 1218 760 1218 760 1218 624 c 0,30,31
 1218 525 1218 525 1193.5 431.5 c 128,-1,32
 1169 338 1169 338 1118 254.5 c 128,-1,33
 1067 171 1067 171 995 108.5 c 128,-1,34
 923 46 923 46 821 9.5 c 128,-1,35
 719 -27 719 -27 599 -27 c 0,36,37
 438 -27 438 -27 311.5 60.5 c 128,-1,38
 185 148 185 148 117.5 295 c 128,-1,39
 50 442 50 442 50 620 c 0,21,22
402 1370 m 1,40,41
 415 1436 415 1436 463 1481 c 128,-1,42
 511 1526 511 1526 570 1507 c 1,43,-1
 720 1472 l 1,44,45
 754 1455 754 1455 784 1466.5 c 128,-1,46
 814 1478 814 1478 830 1522 c 1,47,-1
 871 1518 l 1,48,49
 865 1489 865 1489 851 1461 c 128,-1,50
 837 1433 837 1433 815 1409.5 c 128,-1,51
 793 1386 793 1386 764 1378 c 128,-1,52
 735 1370 735 1370 699 1380 c 1,53,-1
 550 1416 l 1,54,55
 516 1433 516 1433 485 1420.5 c 128,-1,56
 454 1408 454 1408 438 1362 c 1,57,-1
 402 1370 l 1,40,41
EndSplineSet
EndChar

StartChar: P
Encoding: 80 80 40
Width: 1039
VWidth: 0
Flags: MW
LayerCount: 2
Fore
SplineSet
46 0 m 1,0,-1
 54 58 l 1,1,-1
 217 96 l 1,2,-1
 217 1129 l 1,3,-1
 51 1155 l 1,4,-1
 59 1211 l 1,5,6
 68 1212 68 1212 107 1218.5 c 128,-1,7
 146 1225 146 1225 159 1227 c 128,-1,8
 172 1229 172 1229 209 1234 c 128,-1,9
 246 1239 246 1239 265 1241 c 128,-1,10
 284 1243 284 1243 318.5 1246.5 c 128,-1,11
 353 1250 353 1250 378.5 1251.5 c 128,-1,12
 404 1253 404 1253 436.5 1254.5 c 128,-1,13
 469 1256 469 1256 500 1256 c 0,14,15
 582 1256 582 1256 652.5 1244.5 c 128,-1,16
 723 1233 723 1233 786.5 1206.5 c 128,-1,17
 850 1180 850 1180 895 1139 c 128,-1,18
 940 1098 940 1098 966.5 1035.5 c 128,-1,19
 993 973 993 973 993 893 c 0,20,21
 993 776 993 776 926 682 c 128,-1,22
 859 588 859 588 751 538 c 128,-1,23
 643 488 643 488 519 488 c 0,24,25
 480 488 480 488 445 491 c 1,26,-1
 430 553 l 1,27,-1
 483 555 l 2,28,29
 658 562 658 562 742.5 644 c 128,-1,30
 827 726 827 726 827 865 c 0,31,32
 827 931 827 931 806 988.5 c 128,-1,33
 785 1046 785 1046 743 1092 c 128,-1,34
 701 1138 701 1138 632 1165 c 128,-1,35
 563 1192 563 1192 474 1192 c 1,36,-1
 368 1186 l 1,37,-1
 368 94 l 1,38,-1
 603 65 l 1,39,-1
 592 0 l 1,40,-1
 46 0 l 1,0,-1
EndSplineSet
EndChar

StartChar: Q
Encoding: 81 81 41
Width: 1273
VWidth: 0
Flags: MW
LayerCount: 2
Fore
SplineSet
207 670 m 0,0,1
 207 578 207 578 226 490.5 c 128,-1,2
 245 403 245 403 285 324 c 128,-1,3
 325 245 325 245 382.5 185 c 128,-1,4
 440 125 440 125 521.5 88 c 128,-1,5
 603 51 603 51 699 47 c 1,6,7
 820 74 820 74 905 154.5 c 128,-1,8
 990 235 990 235 1029 341 c 128,-1,9
 1068 447 1068 447 1068 568 c 0,10,11
 1068 738 1068 738 1015 879.5 c 128,-1,12
 962 1021 962 1021 859 1107 c 128,-1,13
 756 1193 756 1193 623 1193 c 0,14,15
 427 1193 427 1193 317 1050.5 c 128,-1,16
 207 908 207 908 207 670 c 0,0,1
50 614 m 0,17,18
 50 805 50 805 127 955 c 128,-1,19
 204 1105 204 1105 347 1189.5 c 128,-1,20
 490 1274 490 1274 676 1274 c 0,21,22
 804 1274 804 1274 909 1223.5 c 128,-1,23
 1014 1173 1014 1173 1082.5 1085 c 128,-1,24
 1151 997 1151 997 1188 880 c 128,-1,25
 1225 763 1225 763 1225 629 c 0,26,27
 1225 485 1225 485 1172 354 c 128,-1,28
 1119 223 1119 223 1010 124 c 128,-1,29
 901 25 901 25 755 -9 c 1,30,31
 818 -149 818 -149 913 -209.5 c 128,-1,32
 1008 -270 1008 -270 1191 -294 c 1,33,34
 1188 -338 1188 -338 1181 -355 c 1,35,36
 1118 -385 1118 -385 1017 -385 c 0,37,38
 883 -385 883 -385 787.5 -283 c 128,-1,39
 692 -181 692 -181 672 -21 c 1,40,41
 638 -27 638 -27 600 -27 c 0,42,43
 443 -27 443 -27 316.5 58.5 c 128,-1,44
 190 144 190 144 120 290.5 c 128,-1,45
 50 437 50 437 50 614 c 0,17,18
EndSplineSet
EndChar

StartChar: R
Encoding: 82 82 42
Width: 1223
VWidth: 0
Flags: MW
LayerCount: 2
Fore
SplineSet
364 628 m 1,0,-1
 577 628 l 1,1,2
 669 661 669 661 731.5 736 c 128,-1,3
 794 811 794 811 794 910 c 0,4,5
 794 1039 794 1039 711.5 1114 c 128,-1,6
 629 1189 629 1189 485 1189 c 1,7,-1
 364 1184 l 1,8,-1
 364 628 l 1,0,-1
46 0 m 1,9,-1
 55 58 l 1,10,-1
 217 96 l 1,11,-1
 217 1127 l 1,12,-1
 51 1153 l 1,13,-1
 61 1209 l 1,14,15
 338 1254 338 1254 501 1254 c 0,16,17
 706 1254 706 1254 829 1179.5 c 128,-1,18
 952 1105 952 1105 952 952 c 0,19,20
 952 847 952 847 883 756.5 c 128,-1,21
 814 666 814 666 671 605 c 1,22,-1
 671 604 l 1,23,-1
 857 336 l 2,24,25
 958 191 958 191 1011 138.5 c 128,-1,26
 1064 86 1064 86 1134 64 c 2,27,-1
 1175 51 l 1,28,-1
 1164 -2 l 1,29,30
 1115 -19 1115 -19 1058 -19 c 0,31,32
 1008 -19 1008 -19 963.5 0 c 128,-1,33
 919 19 919 19 879.5 57 c 128,-1,34
 840 95 840 95 807.5 139 c 128,-1,35
 775 183 775 183 739 245 c 2,36,-1
 558 554 l 1,37,-1
 364 554 l 1,38,-1
 364 96 l 1,39,-1
 564 64 l 1,40,-1
 554 0 l 1,41,-1
 46 0 l 1,9,-1
EndSplineSet
EndChar

StartChar: S
Encoding: 83 83 43
Width: 850
VWidth: 0
Flags: MW
LayerCount: 2
Fore
SplineSet
48 119 m 1,0,-1
 70 395 l 1,1,-1
 145 384 l 1,2,-1
 178 181 l 1,3,4
 209 126 209 126 275.5 91.5 c 128,-1,5
 342 57 342 57 419 57 c 0,6,7
 514 57 514 57 586 113.5 c 128,-1,8
 658 170 658 170 658 274 c 0,9,10
 658 331 658 331 626.5 379.5 c 128,-1,11
 595 428 595 428 544 465.5 c 128,-1,12
 493 503 493 503 432 539 c 128,-1,13
 371 575 371 575 310 614 c 128,-1,14
 249 653 249 653 198 697 c 128,-1,15
 147 741 147 741 115.5 803 c 128,-1,16
 84 865 84 865 84 938 c 0,17,18
 84 1040 84 1040 137.5 1117.5 c 128,-1,19
 191 1195 191 1195 272 1232.5 c 128,-1,20
 353 1270 353 1270 445 1270 c 0,21,22
 622 1270 622 1270 732 1165 c 1,23,-1
 705 869 l 1,24,-1
 632 878 l 1,25,-1
 606 1096 l 1,26,27
 585 1136 585 1136 529 1168 c 128,-1,28
 473 1200 473 1200 415 1200 c 0,29,30
 331 1200 331 1200 275.5 1147.5 c 128,-1,31
 220 1095 220 1095 220 1001 c 0,32,33
 220 940 220 940 252.5 887.5 c 128,-1,34
 285 835 285 835 336.5 796.5 c 128,-1,35
 388 758 388 758 450 721 c 128,-1,36
 512 684 512 684 574.5 645.5 c 128,-1,37
 637 607 637 607 688.5 564 c 128,-1,38
 740 521 740 521 772.5 461.5 c 128,-1,39
 805 402 805 402 805 331 c 0,40,41
 805 176 805 176 683 75.5 c 128,-1,42
 561 -25 561 -25 381 -25 c 0,43,44
 277 -25 277 -25 188 16 c 128,-1,45
 99 57 99 57 48 119 c 1,0,-1
EndSplineSet
EndChar

StartChar: T
Encoding: 84 84 44
Width: 1166
VWidth: 0
Flags: MW
LayerCount: 2
Fore
SplineSet
46 1244 m 1,0,-1
 1118 1244 l 1,1,-1
 1084 909 l 1,2,-1
 1011 920 l 1,3,-1
 984 1173 l 1,4,-1
 646 1173 l 1,5,-1
 646 94 l 1,6,-1
 827 63 l 1,7,-1
 815 0 l 1,8,-1
 318 0 l 1,9,-1
 324 58 l 1,10,-1
 496 96 l 1,11,-1
 496 1173 l 1,12,-1
 171 1173 l 1,13,-1
 126 912 l 1,14,-1
 55 923 l 1,15,-1
 46 1244 l 1,0,-1
EndSplineSet
EndChar

StartChar: Thorn
Encoding: 222 222 45
Width: 1045
VWidth: 0
Flags: MW
LayerCount: 2
Fore
SplineSet
47 1187 m 1,0,-1
 55 1244 l 1,1,-1
 556 1244 l 1,2,-1
 548 1187 l 1,3,-1
 375 1156 l 1,4,-1
 375 1021 l 1,5,6
 436 1024 436 1024 506 1024 c 0,7,8
 610 1024 610 1024 695.5 1005 c 128,-1,9
 781 986 781 986 851 945 c 128,-1,10
 921 904 921 904 960 831.5 c 128,-1,11
 999 759 999 759 999 660 c 0,12,13
 999 542 999 542 934.5 448 c 128,-1,14
 870 354 870 354 764.5 304 c 128,-1,15
 659 254 659 254 535 254 c 0,16,17
 499 254 499 254 451 259 c 1,18,19
 437 301 437 301 437 322 c 1,20,21
 442 322 442 322 464 322.5 c 128,-1,22
 486 323 486 323 490 323 c 0,23,24
 664 327 664 327 749 409.5 c 128,-1,25
 834 492 834 492 834 632 c 0,26,27
 834 769 834 769 743.5 861 c 128,-1,28
 653 953 653 953 482 953 c 1,29,-1
 375 946 l 1,30,-1
 375 94 l 1,31,-1
 610 64 l 1,32,-1
 599 0 l 1,33,-1
 53 0 l 1,34,-1
 60 57 l 1,35,-1
 225 96 l 1,36,-1
 225 1154 l 1,37,-1
 47 1187 l 1,0,-1
EndSplineSet
EndChar

StartChar: U
Encoding: 85 85 46
Width: 1398
VWidth: 0
Flags: MW
LayerCount: 2
Fore
SplineSet
43 1187 m 1,0,-1
 52 1244 l 1,1,-1
 550 1244 l 1,2,-1
 543 1187 l 1,3,-1
 374 1156 l 1,4,-1
 374 503 l 2,5,6
 374 73 374 73 734 73 c 0,7,8
 898 73 898 73 987.5 172 c 128,-1,9
 1077 271 1077 271 1077 466 c 2,10,-1
 1078 1154 l 1,11,-1
 894 1187 l 1,12,-1
 902 1244 l 1,13,-1
 1353 1244 l 1,14,-1
 1344 1187 l 1,15,-1
 1178 1156 l 1,16,-1
 1173 503 l 2,17,18
 1171 239 1171 239 1057 106 c 128,-1,19
 943 -27 943 -27 693 -27 c 0,20,21
 226 -27 226 -27 226 465 c 2,22,-1
 226 1154 l 1,23,-1
 43 1187 l 1,0,-1
EndSplineSet
EndChar

StartChar: Uacute
Encoding: 218 218 47
Width: 1398
VWidth: 0
Flags: MW
LayerCount: 2
Fore
SplineSet
43 1187 m 1,0,-1
 52 1244 l 1,1,-1
 550 1244 l 1,2,-1
 543 1187 l 1,3,-1
 374 1156 l 1,4,-1
 374 503 l 2,5,6
 374 73 374 73 734 73 c 0,7,8
 898 73 898 73 987.5 172 c 128,-1,9
 1077 271 1077 271 1077 466 c 2,10,-1
 1078 1154 l 1,11,-1
 894 1187 l 1,12,-1
 902 1244 l 1,13,-1
 1353 1244 l 1,14,-1
 1344 1187 l 1,15,-1
 1178 1156 l 1,16,-1
 1173 503 l 2,17,18
 1171 239 1171 239 1057 106 c 128,-1,19
 943 -27 943 -27 693 -27 c 0,20,21
 226 -27 226 -27 226 465 c 2,22,-1
 226 1154 l 1,23,-1
 43 1187 l 1,0,-1
708 1391 m 1,24,-1
 836 1722 l 1,25,-1
 940 1683 l 1,26,-1
 756 1362 l 1,27,-1
 708 1391 l 1,24,-1
EndSplineSet
EndChar

StartChar: Ucircumflex
Encoding: 219 219 48
Width: 1398
VWidth: 0
Flags: MW
LayerCount: 2
Fore
SplineSet
43 1187 m 1,0,-1
 52 1244 l 1,1,-1
 550 1244 l 1,2,-1
 543 1187 l 1,3,-1
 374 1156 l 1,4,-1
 374 503 l 2,5,6
 374 73 374 73 734 73 c 0,7,8
 898 73 898 73 987.5 172 c 128,-1,9
 1077 271 1077 271 1077 466 c 2,10,-1
 1078 1154 l 1,11,-1
 894 1187 l 1,12,-1
 902 1244 l 1,13,-1
 1353 1244 l 1,14,-1
 1344 1187 l 1,15,-1
 1178 1156 l 1,16,-1
 1173 503 l 2,17,18
 1171 239 1171 239 1057 106 c 128,-1,19
 943 -27 943 -27 693 -27 c 0,20,21
 226 -27 226 -27 226 465 c 2,22,-1
 226 1154 l 1,23,-1
 43 1187 l 1,0,-1
524 1392 m 1,24,-1
 692 1572 l 1,25,-1
 746 1586 l 1,26,-1
 925 1400 l 1,27,-1
 884 1362 l 1,28,-1
 712 1485 l 1,29,-1
 702 1485 l 1,30,-1
 554 1362 l 1,31,-1
 524 1392 l 1,24,-1
EndSplineSet
EndChar

StartChar: Udieresis
Encoding: 220 220 49
Width: 1398
VWidth: 0
Flags: MW
LayerCount: 2
Fore
SplineSet
43 1187 m 1,0,-1
 52 1244 l 1,1,-1
 550 1244 l 1,2,-1
 543 1187 l 1,3,-1
 374 1156 l 1,4,-1
 374 503 l 2,5,6
 374 73 374 73 734 73 c 0,7,8
 898 73 898 73 987.5 172 c 128,-1,9
 1077 271 1077 271 1077 466 c 2,10,-1
 1078 1154 l 1,11,-1
 894 1187 l 1,12,-1
 902 1244 l 1,13,-1
 1353 1244 l 1,14,-1
 1344 1187 l 1,15,-1
 1178 1156 l 1,16,-1
 1173 503 l 2,17,18
 1171 239 1171 239 1057 106 c 128,-1,19
 943 -27 943 -27 693 -27 c 0,20,21
 226 -27 226 -27 226 465 c 2,22,-1
 226 1154 l 1,23,-1
 43 1187 l 1,0,-1
780 1449 m 0,24,25
 780 1485 780 1485 800 1505.5 c 128,-1,26
 820 1526 820 1526 850 1526 c 0,27,28
 881 1526 881 1526 901.5 1505 c 128,-1,29
 922 1484 922 1484 922 1449 c 0,30,31
 922 1411 922 1411 902 1389.5 c 128,-1,32
 882 1368 882 1368 850 1368 c 0,33,34
 818 1368 818 1368 799 1390 c 128,-1,35
 780 1412 780 1412 780 1449 c 0,24,25
512 1449 m 0,36,37
 512 1485 512 1485 532 1505.5 c 128,-1,38
 552 1526 552 1526 582 1526 c 0,39,40
 613 1526 613 1526 633.5 1505.5 c 128,-1,41
 654 1485 654 1485 654 1449 c 0,42,43
 654 1411 654 1411 635 1389.5 c 128,-1,44
 616 1368 616 1368 583 1368 c 0,45,46
 551 1368 551 1368 531.5 1390 c 128,-1,47
 512 1412 512 1412 512 1449 c 0,36,37
EndSplineSet
EndChar

StartChar: Ugrave
Encoding: 217 217 50
Width: 1398
VWidth: 0
Flags: MW
LayerCount: 2
Fore
SplineSet
43 1187 m 1,0,-1
 52 1244 l 1,1,-1
 550 1244 l 1,2,-1
 543 1187 l 1,3,-1
 374 1156 l 1,4,-1
 374 503 l 2,5,6
 374 73 374 73 734 73 c 0,7,8
 898 73 898 73 987.5 172 c 128,-1,9
 1077 271 1077 271 1077 466 c 2,10,-1
 1078 1154 l 1,11,-1
 894 1187 l 1,12,-1
 902 1244 l 1,13,-1
 1353 1244 l 1,14,-1
 1344 1187 l 1,15,-1
 1178 1156 l 1,16,-1
 1173 503 l 2,17,18
 1171 239 1171 239 1057 106 c 128,-1,19
 943 -27 943 -27 693 -27 c 0,20,21
 226 -27 226 -27 226 465 c 2,22,-1
 226 1154 l 1,23,-1
 43 1187 l 1,0,-1
535 1690 m 1,24,-1
 640 1728 l 1,25,-1
 772 1393 l 1,26,-1
 721 1362 l 1,27,-1
 535 1690 l 1,24,-1
EndSplineSet
EndChar

StartChar: V
Encoding: 86 86 51
Width: 1325
VWidth: 0
Flags: MW
LayerCount: 2
Fore
SplineSet
44 1188 m 1,0,-1
 51 1244 l 1,1,-1
 533 1244 l 1,2,-1
 526 1188 l 1,3,-1
 357 1156 l 1,4,-1
 687 206 l 1,5,-1
 1035 1152 l 1,6,-1
 850 1188 l 1,7,-1
 856 1244 l 1,8,-1
 1278 1244 l 1,9,-1
 1273 1188 l 1,10,-1
 1143 1156 l 1,11,-1
 709 -4 l 1,12,-1
 607 -25 l 1,13,-1
 191 1152 l 1,14,-1
 44 1188 l 1,0,-1
EndSplineSet
EndChar

StartChar: W
Encoding: 87 87 52
Width: 1841
VWidth: 0
Flags: MW
LayerCount: 2
Fore
SplineSet
44 1188 m 1,0,-1
 52 1244 l 1,1,-1
 506 1244 l 1,2,-1
 497 1190 l 1,3,-1
 331 1156 l 1,4,-1
 595 225 l 1,5,-1
 885 1199 l 1,6,-1
 996 1214 l 1,7,-1
 1262 233 l 1,8,-1
 1554 1151 l 1,9,-1
 1370 1189 l 1,10,-1
 1378 1244 l 1,11,-1
 1795 1244 l 1,12,-1
 1787 1188 l 1,13,-1
 1667 1154 l 1,14,-1
 1287 -4 l 1,15,-1
 1178 -25 l 1,16,-1
 913 971 l 1,17,-1
 623 -4 l 1,18,-1
 506 -24 l 1,19,-1
 175 1153 l 1,20,-1
 44 1188 l 1,0,-1
EndSplineSet
EndChar

StartChar: X
Encoding: 88 88 53
Width: 1294
VWidth: 0
Flags: MW
LayerCount: 2
Fore
SplineSet
46 0 m 1,0,-1
 55 56 l 1,1,-1
 181 92 l 1,2,-1
 572 620 l 1,3,-1
 208 1154 l 1,4,-1
 71 1189 l 1,5,-1
 79 1244 l 1,6,-1
 545 1244 l 1,7,-1
 538 1189 l 1,8,-1
 382 1152 l 1,9,-1
 671 727 l 1,10,-1
 985 1155 l 1,11,-1
 814 1187 l 1,12,-1
 823 1244 l 1,13,-1
 1225 1244 l 1,14,-1
 1221 1188 l 1,15,-1
 1095 1159 l 1,16,-1
 727 654 l 1,17,-1
 1105 84 l 1,18,-1
 1241 58 l 1,19,-1
 1231 0 l 1,20,-1
 766 0 l 1,21,-1
 775 51 l 1,22,-1
 937 90 l 1,23,-1
 628 550 l 1,24,-1
 295 89 l 1,25,-1
 461 62 l 1,26,-1
 449 0 l 1,27,-1
 46 0 l 1,0,-1
EndSplineSet
EndChar

StartChar: Y
Encoding: 89 89 54
Width: 1214
VWidth: 0
Flags: MW
LayerCount: 2
Fore
SplineSet
44 1188 m 1,0,-1
 53 1244 l 1,1,-1
 516 1244 l 1,2,-1
 508 1188 l 1,3,-1
 345 1156 l 1,4,-1
 641 605 l 1,5,-1
 928 1152 l 1,6,-1
 744 1188 l 1,7,-1
 750 1244 l 1,8,-1
 1167 1244 l 1,9,-1
 1161 1188 l 1,10,-1
 1034 1156 l 1,11,-1
 687 509 l 1,12,-1
 687 91 l 1,13,-1
 859 63 l 1,14,-1
 850 0 l 1,15,-1
 367 0 l 1,16,-1
 375 58 l 1,17,-1
 537 96 l 1,18,-1
 537 497 l 1,19,-1
 183 1152 l 1,20,-1
 44 1188 l 1,0,-1
EndSplineSet
EndChar

StartChar: Yacute
Encoding: 221 221 55
Width: 1214
VWidth: 0
Flags: MW
LayerCount: 2
Fore
SplineSet
44 1188 m 1,0,-1
 53 1244 l 1,1,-1
 516 1244 l 1,2,-1
 508 1188 l 1,3,-1
 345 1156 l 1,4,-1
 641 605 l 1,5,-1
 928 1152 l 1,6,-1
 744 1188 l 1,7,-1
 750 1244 l 1,8,-1
 1167 1244 l 1,9,-1
 1161 1188 l 1,10,-1
 1034 1156 l 1,11,-1
 687 509 l 1,12,-1
 687 91 l 1,13,-1
 859 63 l 1,14,-1
 850 0 l 1,15,-1
 367 0 l 1,16,-1
 375 58 l 1,17,-1
 537 96 l 1,18,-1
 537 497 l 1,19,-1
 183 1152 l 1,20,-1
 44 1188 l 1,0,-1
626 1391 m 1,21,-1
 754 1722 l 1,22,-1
 858 1683 l 1,23,-1
 674 1362 l 1,24,-1
 626 1391 l 1,21,-1
EndSplineSet
EndChar

StartChar: Z
Encoding: 90 90 56
Width: 1070
VWidth: 0
Flags: MW
LayerCount: 2
Fore
SplineSet
49 71 m 1,0,-1
 823 1170 l 1,1,-1
 236 1170 l 1,2,-1
 158 903 l 1,3,-1
 94 918 l 1,4,-1
 103 1244 l 1,5,-1
 1006 1244 l 1,6,-1
 1008 1188 l 1,7,-1
 223 79 l 1,8,-1
 841 79 l 1,9,-1
 956 347 l 1,10,-1
 1025 336 l 1,11,-1
 977 0 l 1,12,-1
 56 0 l 1,13,-1
 49 71 l 1,0,-1
EndSplineSet
EndChar

StartChar: a
Encoding: 97 97 57
Width: 1031
VWidth: 845
Flags: MW
LayerCount: 2
Fore
SplineSet
39 0 m 1,0,-1
 46 58 l 1,1,-1
 162 100 l 1,2,-1
 482 918 l 1,3,-1
 584 941 l 1,4,-1
 886 95 l 1,5,-1
 991 64 l 1,6,-1
 982 0 l 1,7,-1
 586 0 l 1,8,-1
 596 58 l 1,9,-1
 730 97 l 1,10,-1
 655 308 l 1,11,-1
 344 308 l 1,12,-1
 268 94 l 1,13,-1
 418 63 l 1,14,-1
 408 0 l 1,15,-1
 39 0 l 1,0,-1
372 387 m 1,16,-1
 628 387 l 1,17,-1
 501 747 l 1,18,-1
 372 387 l 1,16,-1
EndSplineSet
EndChar

StartChar: aacute
Encoding: 225 225 58
Width: 944
VWidth: 0
Flags: MW
LayerCount: 2
Fore
SplineSet
479 1030 m 1,0,-1
 606 1361 l 1,1,-1
 710 1322 l 1,2,-1
 527 1001 l 1,3,-1
 479 1030 l 1,0,-1
22 0 m 1,4,-1
 29 58 l 1,5,-1
 144 100 l 1,6,-1
 465 918 l 1,7,-1
 567 941 l 1,8,-1
 870 95 l 1,9,-1
 974 64 l 1,10,-1
 966 0 l 1,11,-1
 568 0 l 1,12,-1
 579 58 l 1,13,-1
 712 97 l 1,14,-1
 638 308 l 1,15,-1
 327 308 l 1,16,-1
 250 94 l 1,17,-1
 400 63 l 1,18,-1
 390 0 l 1,19,-1
 22 0 l 1,4,-1
355 387 m 1,20,-1
 611 387 l 1,21,-1
 484 747 l 1,22,-1
 355 387 l 1,20,-1
EndSplineSet
EndChar

StartChar: acircumflex
Encoding: 226 226 59
Width: 944
VWidth: 0
Flags: MW
LayerCount: 2
Fore
SplineSet
328 1034 m 1,0,-1
 496 1214 l 1,1,-1
 550 1228 l 1,2,-1
 728 1042 l 1,3,-1
 688 1006 l 1,4,-1
 516 1128 l 1,5,-1
 506 1128 l 1,6,-1
 358 1004 l 1,7,-1
 328 1034 l 1,0,-1
22 0 m 1,8,-1
 30 58 l 1,9,-1
 145 100 l 1,10,-1
 466 918 l 1,11,-1
 568 941 l 1,12,-1
 870 95 l 1,13,-1
 974 64 l 1,14,-1
 966 0 l 1,15,-1
 569 0 l 1,16,-1
 580 58 l 1,17,-1
 713 97 l 1,18,-1
 639 308 l 1,19,-1
 327 308 l 1,20,-1
 251 94 l 1,21,-1
 401 63 l 1,22,-1
 391 0 l 1,23,-1
 22 0 l 1,8,-1
356 387 m 1,24,-1
 611 387 l 1,25,-1
 484 747 l 1,26,-1
 356 387 l 1,24,-1
EndSplineSet
EndChar

StartChar: acute
Encoding: 180 180 60
Width: 452
VWidth: 0
Flags: MW
LayerCount: 2
Fore
SplineSet
126 1375 m 1,0,-1
 253 1706 l 1,1,-1
 356 1667 l 1,2,-1
 174 1346 l 1,3,-1
 126 1375 l 1,0,-1
EndSplineSet
EndChar

StartChar: adieresis
Encoding: 228 228 61
Width: 944
VWidth: 0
Flags: MW
LayerCount: 2
Fore
SplineSet
580 1086 m 0,0,1
 580 1122 580 1122 600 1143 c 128,-1,2
 620 1164 620 1164 650 1164 c 0,3,4
 681 1164 681 1164 701.5 1142.5 c 128,-1,5
 722 1121 722 1121 722 1086 c 0,6,7
 722 1048 722 1048 702.5 1026 c 128,-1,8
 683 1004 683 1004 650 1004 c 0,9,10
 618 1004 618 1004 599 1026.5 c 128,-1,11
 580 1049 580 1049 580 1086 c 0,0,1
312 1086 m 0,12,13
 312 1122 312 1122 332 1143 c 128,-1,14
 352 1164 352 1164 382 1164 c 0,15,16
 413 1164 413 1164 433.5 1143 c 128,-1,17
 454 1122 454 1122 454 1086 c 0,18,19
 454 1048 454 1048 434 1026 c 128,-1,20
 414 1004 414 1004 382 1004 c 0,21,22
 350 1004 350 1004 331 1026.5 c 128,-1,23
 312 1049 312 1049 312 1086 c 0,12,13
22 0 m 1,24,-1
 30 58 l 1,25,-1
 145 100 l 1,26,-1
 466 918 l 1,27,-1
 568 941 l 1,28,-1
 870 95 l 1,29,-1
 974 64 l 1,30,-1
 966 0 l 1,31,-1
 569 0 l 1,32,-1
 580 58 l 1,33,-1
 713 97 l 1,34,-1
 639 308 l 1,35,-1
 327 308 l 1,36,-1
 251 94 l 1,37,-1
 401 63 l 1,38,-1
 391 0 l 1,39,-1
 22 0 l 1,24,-1
356 387 m 1,40,-1
 611 387 l 1,41,-1
 484 747 l 1,42,-1
 356 387 l 1,40,-1
EndSplineSet
EndChar

StartChar: ae
Encoding: 230 230 62
Width: 1583
VWidth: 0
Flags: MW
LayerCount: 2
Fore
SplineSet
510 410 m 1,0,-1
 735 410 l 1,1,-1
 736 758 l 1,2,-1
 510 410 l 1,0,-1
62 2 m 1,3,-1
 69 60 l 1,4,-1
 194 102 l 1,5,-1
 685 831 l 1,6,-1
 492 863 l 1,7,-1
 500 920 l 1,8,-1
 1336 920 l 1,9,-1
 1310 650 l 1,10,-1
 1238 659 l 1,11,-1
 1218 849 l 1,12,-1
 883 849 l 1,13,-1
 883 490 l 1,14,-1
 1097 490 l 1,15,-1
 1122 574 l 1,16,-1
 1198 586 l 1,17,-1
 1164 302 l 1,18,-1
 1094 290 l 1,19,-1
 1084 416 l 1,20,-1
 883 416 l 1,21,-1
 883 75 l 1,22,-1
 1248 75 l 1,23,-1
 1308 274 l 1,24,-1
 1376 263 l 1,25,-1
 1356 0 l 1,26,-1
 578 0 l 1,27,-1
 585 58 l 1,28,-1
 736 96 l 1,29,-1
 736 332 l 1,30,-1
 460 332 l 1,31,-1
 306 96 l 1,32,-1
 457 66 l 1,33,-1
 446 2 l 1,34,-1
 62 2 l 1,3,-1
EndSplineSet
EndChar

StartChar: agrave
Encoding: 224 224 63
Width: 1430
VWidth: 0
Flags: MW
LayerCount: 2
Fore
SplineSet
308 1326 m 1,0,-1
 413 1364 l 1,1,-1
 546 1029 l 1,2,-1
 494 998 l 1,3,-1
 308 1326 l 1,0,-1
12 0 m 1,4,-1
 20 58 l 1,5,-1
 135 100 l 1,6,-1
 456 918 l 1,7,-1
 558 941 l 1,8,-1
 860 95 l 1,9,-1
 964 64 l 1,10,-1
 956 0 l 1,11,-1
 559 0 l 1,12,-1
 570 58 l 1,13,-1
 703 97 l 1,14,-1
 629 308 l 1,15,-1
 317 308 l 1,16,-1
 241 94 l 1,17,-1
 391 63 l 1,18,-1
 381 0 l 1,19,-1
 12 0 l 1,4,-1
346 387 m 1,20,-1
 601 387 l 1,21,-1
 474 747 l 1,22,-1
 346 387 l 1,20,-1
EndSplineSet
EndChar

StartChar: ampersand
Encoding: 38 38 64
Width: 1127
VWidth: 0
Flags: MW
LayerCount: 2
Fore
SplineSet
366 414 m 1,0,1
 310 372 310 372 280 325.5 c 128,-1,2
 250 279 250 279 250 216 c 0,3,4
 250 155 250 155 290 114 c 128,-1,5
 330 73 330 73 394 73 c 0,6,7
 500 73 500 73 592 162 c 1,8,-1
 366 414 l 1,0,1
642 107 m 1,9,10
 581 44 581 44 508.5 12 c 128,-1,11
 436 -20 436 -20 344 -20 c 0,12,13
 226 -20 226 -20 162 38 c 128,-1,14
 98 96 98 96 98 181 c 0,15,16
 98 220 98 220 111.5 256 c 128,-1,17
 125 292 125 292 144 317.5 c 128,-1,18
 163 343 163 343 196.5 371.5 c 128,-1,19
 230 400 230 400 255.5 417.5 c 128,-1,20
 281 435 281 435 323 462 c 1,21,-1
 310 476 l 1,22,23
 198 607 198 607 198 708 c 0,24,25
 198 797 198 797 273 868.5 c 128,-1,26
 348 940 348 940 448 940 c 0,27,28
 551 940 551 940 611.5 887 c 128,-1,29
 672 834 672 834 672 752 c 0,30,31
 672 714 672 714 661 680.5 c 128,-1,32
 650 647 650 647 634 622 c 128,-1,33
 618 597 618 597 590 571.5 c 128,-1,34
 562 546 562 546 538.5 529 c 128,-1,35
 515 512 515 512 480 489 c 1,36,-1
 679 271 l 1,37,38
 728 348 728 348 780 458 c 1,39,-1
 662 494 l 1,40,-1
 668 545 l 1,41,-1
 1026 545 l 1,42,-1
 1018 494 l 1,43,-1
 873 462 l 1,44,45
 780 292 780 292 730 217 c 1,46,47
 800 146 800 146 852 113.5 c 128,-1,48
 904 81 904 81 962 64 c 2,49,-1
 1002 52 l 1,50,-1
 992 -0 l 1,51,52
 938 -18 938 -18 884 -19 c 0,53,54
 824 -19 824 -19 761.5 14 c 128,-1,55
 699 47 699 47 642 107 c 1,9,10
437 537 m 1,56,57
 492 578 492 578 522 622.5 c 128,-1,58
 552 667 552 667 552 723 c 0,59,60
 552 791 552 791 518 831.5 c 128,-1,61
 484 872 484 872 428 872 c 0,62,63
 383 872 383 872 353 838.5 c 128,-1,64
 323 805 323 805 323 755 c 0,65,66
 323 706 323 706 350 657 c 128,-1,67
 377 608 377 608 437 537 c 1,56,57
EndSplineSet
EndChar

StartChar: aring
Encoding: 229 229 65
Width: 944
VWidth: 0
Flags: MW
LayerCount: 2
Fore
SplineSet
421 1167 m 0,0,1
 421 1115 421 1115 446.5 1075 c 128,-1,2
 472 1035 472 1035 519 1035 c 0,3,4
 562 1035 562 1035 585.5 1065.5 c 128,-1,5
 609 1096 609 1096 609 1152 c 0,6,7
 609 1204 609 1204 581.5 1243.5 c 128,-1,8
 554 1283 554 1283 509 1283 c 0,9,10
 466 1283 466 1283 443.5 1249 c 128,-1,11
 421 1215 421 1215 421 1167 c 0,0,1
353 1156 m 0,12,13
 353 1226 353 1226 401.5 1277 c 128,-1,14
 450 1328 450 1328 520 1328 c 0,15,16
 591 1328 591 1328 634.5 1282 c 128,-1,17
 678 1236 678 1236 678 1165 c 0,18,19
 678 1094 678 1094 630 1042 c 128,-1,20
 582 990 582 990 508 990 c 0,21,22
 438 990 438 990 395.5 1035 c 128,-1,23
 353 1080 353 1080 353 1156 c 0,12,13
22 0 m 1,24,-1
 29 58 l 1,25,-1
 144 100 l 1,26,-1
 465 918 l 1,27,-1
 567 941 l 1,28,-1
 870 95 l 1,29,-1
 974 64 l 1,30,-1
 966 0 l 1,31,-1
 568 0 l 1,32,-1
 579 58 l 1,33,-1
 712 97 l 1,34,-1
 638 308 l 1,35,-1
 327 308 l 1,36,-1
 250 94 l 1,37,-1
 400 63 l 1,38,-1
 390 0 l 1,39,-1
 22 0 l 1,24,-1
355 387 m 1,40,-1
 611 387 l 1,41,-1
 484 747 l 1,42,-1
 355 387 l 1,40,-1
EndSplineSet
EndChar

StartChar: asciicircum
Encoding: 94 94 66
Width: 731
VWidth: 0
Flags: MW
LayerCount: 2
Fore
SplineSet
46 826 m 1,0,-1
 335 1238 l 1,1,-1
 390 1250 l 1,2,-1
 685 824 l 1,3,-1
 637 792 l 1,4,-1
 360 1098 l 1,5,-1
 350 1098 l 1,6,-1
 88 798 l 1,7,-1
 46 826 l 1,0,-1
EndSplineSet
EndChar

StartChar: asciitilde
Encoding: 126 126 67
Width: 924
VWidth: 0
Flags: MW
LayerCount: 2
Fore
SplineSet
70 417 m 1,0,1
 71 422 71 422 74 430 c 128,-1,2
 77 438 77 438 86.5 461 c 128,-1,3
 96 484 96 484 107 504 c 128,-1,4
 118 524 118 524 136.5 548 c 128,-1,5
 155 572 155 572 175.5 587.5 c 128,-1,6
 196 603 196 603 225 610.5 c 128,-1,7
 254 618 254 618 286 612 c 2,8,-1
 685 541 l 1,9,10
 715 534 715 534 744.5 555 c 128,-1,11
 774 576 774 576 788 600 c 2,12,-1
 802 624 l 1,13,-1
 857 622 l 1,14,15
 856 617 856 617 853 609 c 128,-1,16
 850 601 850 601 840 577.5 c 128,-1,17
 830 554 830 554 818.5 533 c 128,-1,18
 807 512 807 512 788 487.5 c 128,-1,19
 769 463 769 463 747.5 447 c 128,-1,20
 726 431 726 431 696.5 423.5 c 128,-1,21
 667 416 667 416 635 422 c 2,22,-1
 236 492 l 2,23,24
 218 496 218 496 199 488.5 c 128,-1,25
 180 481 180 481 166 467.5 c 128,-1,26
 152 454 152 454 140.5 439.5 c 128,-1,27
 129 425 129 425 123 414 c 2,28,-1
 118 404 l 1,29,-1
 70 417 l 1,0,1
EndSplineSet
EndChar

StartChar: asterisk
Encoding: 42 42 68
Width: 802
VWidth: 0
Flags: MW
LayerCount: 2
Fore
SplineSet
45 977 m 1,0,-1
 94 1092 l 1,1,-1
 369 974 l 1,2,-1
 336 1290 l 1,3,-1
 459 1280 l 1,4,-1
 434 980 l 1,5,-1
 724 1108 l 1,6,-1
 752 990 l 1,7,-1
 459 922 l 1,8,-1
 672 686 l 1,9,-1
 567 623 l 1,10,-1
 412 882 l 1,11,-1
 250 604 l 1,12,-1
 158 684 l 1,13,-1
 356 912 l 1,14,-1
 45 977 l 1,0,-1
EndSplineSet
EndChar

StartChar: at
Encoding: 64 64 69
Width: 1329
VWidth: 0
Flags: MW
LayerCount: 2
Fore
SplineSet
479 368 m 0,0,1
 480 160 480 160 564 160 c 0,2,3
 602 160 602 160 652.5 188 c 128,-1,4
 703 216 703 216 731 248 c 1,5,-1
 785 703 l 1,6,7
 746 714 746 714 684 714 c 0,8,9
 596 714 596 714 537.5 611 c 128,-1,10
 479 508 479 508 479 368 c 0,0,1
55 329 m 0,11,12
 55 470 55 470 105.5 600 c 128,-1,13
 156 730 156 730 245.5 828.5 c 128,-1,14
 335 927 335 927 468 985.5 c 128,-1,15
 601 1044 601 1044 756 1044 c 0,16,17
 860 1044 860 1044 954.5 1010 c 128,-1,18
 1049 976 1049 976 1119 916 c 128,-1,19
 1189 856 1189 856 1230.5 768.5 c 128,-1,20
 1272 681 1272 681 1272 580.5 c 128,-1,21
 1272 480 1272 480 1236 387 c 128,-1,22
 1200 294 1200 294 1138.5 224 c 128,-1,23
 1077 154 1077 154 988.5 112 c 128,-1,24
 900 70 900 70 800 70 c 0,25,26
 756 70 756 70 742 101 c 128,-1,27
 728 132 728 132 730 188 c 1,28,-1
 720 188 l 1,29,30
 687 138 687 138 630.5 99 c 128,-1,31
 574 60 574 60 520 60 c 0,32,33
 445 60 445 60 400.5 130 c 128,-1,34
 356 200 356 200 356 326 c 0,35,36
 356 408 356 408 379.5 482.5 c 128,-1,37
 403 557 403 557 442 612 c 128,-1,38
 481 667 481 667 530.5 707.5 c 128,-1,39
 580 748 580 748 634 769 c 128,-1,40
 688 790 688 790 738 790 c 0,41,42
 815 790 815 790 890 772 c 1,43,-1
 907 752 l 1,44,-1
 866 385 l 2,45,46
 864 365 864 365 858 327 c 1,47,48
 845 250 845 250 847.5 201 c 128,-1,49
 850 152 850 152 877 152 c 0,50,51
 994 152 994 152 1078.5 263 c 128,-1,52
 1163 374 1163 374 1163 544 c 0,53,54
 1163 641 1163 641 1127 723 c 128,-1,55
 1091 805 1091 805 1029.5 858.5 c 128,-1,56
 968 912 968 912 888 942 c 128,-1,57
 808 972 808 972 719 972 c 0,58,59
 601 972 601 972 499.5 923 c 128,-1,60
 398 874 398 874 327.5 790.5 c 128,-1,61
 257 707 257 707 217.5 593.5 c 128,-1,62
 178 480 178 480 178 354 c 0,63,64
 178 124 178 124 315.5 -12.5 c 128,-1,65
 453 -149 453 -149 696 -149 c 0,66,67
 797 -149 797 -149 904.5 -108.5 c 128,-1,68
 1012 -68 1012 -68 1056 -31 c 1,69,-1
 1084 -82 l 1,70,71
 1080 -85 1080 -85 1071 -91 c 0,72,73
 1035 -115 1035 -115 1014 -128 c 128,-1,74
 993 -141 993 -141 949.5 -163 c 128,-1,75
 906 -185 906 -185 868 -197 c 128,-1,76
 830 -209 830 -209 775 -218.5 c 128,-1,77
 720 -228 720 -228 660 -228 c 0,78,79
 567 -228 567 -228 480 -207 c 128,-1,80
 393 -186 393 -186 315.5 -141.5 c 128,-1,81
 238 -97 238 -97 180 -33 c 128,-1,82
 122 31 122 31 88.5 124 c 128,-1,83
 55 217 55 217 55 329 c 0,11,12
EndSplineSet
EndChar

StartChar: atilde
Encoding: 227 227 70
Width: 1031
VWidth: 0
Flags: MW
LayerCount: 2
Fore
SplineSet
319 1048 m 1,0,1
 332 1114 332 1114 380 1158.5 c 128,-1,2
 428 1203 428 1203 487 1185 c 1,3,-1
 636 1150 l 1,4,5
 670 1133 670 1133 701 1144.5 c 128,-1,6
 732 1156 732 1156 747 1200 c 1,7,-1
 788 1196 l 1,8,9
 782 1167 782 1167 768 1139 c 128,-1,10
 754 1111 754 1111 731.5 1087.5 c 128,-1,11
 709 1064 709 1064 680.5 1056 c 128,-1,12
 652 1048 652 1048 616 1058 c 1,13,-1
 467 1094 l 1,14,15
 386 1128 386 1128 354 1040 c 1,16,-1
 319 1048 l 1,0,1
39 0 m 1,17,-1
 46 58 l 1,18,-1
 162 100 l 1,19,-1
 482 918 l 1,20,-1
 584 941 l 1,21,-1
 886 95 l 1,22,-1
 991 64 l 1,23,-1
 982 0 l 1,24,-1
 586 0 l 1,25,-1
 596 58 l 1,26,-1
 730 97 l 1,27,-1
 655 308 l 1,28,-1
 344 308 l 1,29,-1
 268 94 l 1,30,-1
 418 63 l 1,31,-1
 408 0 l 1,32,-1
 39 0 l 1,17,-1
372 387 m 1,33,-1
 628 387 l 1,34,-1
 501 747 l 1,35,-1
 372 387 l 1,33,-1
EndSplineSet
EndChar

StartChar: b
Encoding: 98 98 71
Width: 890
VWidth: 845
Flags: MW
LayerCount: 2
Fore
SplineSet
335 512 m 1,0,-1
 530 512 l 1,1,2
 583 541 583 541 607 581.5 c 128,-1,3
 631 622 631 622 631 700 c 0,4,5
 631 784 631 784 568.5 833 c 128,-1,6
 506 882 506 882 382 882 c 0,7,8
 350 882 350 882 335 878 c 1,9,-1
 335 512 l 1,0,-1
335 75 m 1,10,-1
 454 75 l 2,11,12
 585 75 585 75 643.5 124 c 128,-1,13
 702 173 702 173 702 268 c 0,14,15
 702 301 702 301 689.5 332 c 128,-1,16
 677 363 677 363 652.5 389 c 128,-1,17
 628 415 628 415 585 430.5 c 128,-1,18
 542 446 542 446 486 446 c 2,19,-1
 335 446 l 1,20,-1
 335 75 l 1,10,-1
41 0 m 1,21,-1
 50 58 l 1,22,-1
 188 96 l 1,23,-1
 188 827 l 1,24,-1
 47 850 l 1,25,-1
 57 906 l 1,26,27
 302 948 302 948 441 948 c 0,28,29
 603 948 603 948 687.5 885 c 128,-1,30
 772 822 772 822 772 726 c 0,31,32
 772 654 772 654 730 595.5 c 128,-1,33
 688 537 688 537 606 507 c 1,34,-1
 606 500 l 1,35,36
 722 491 722 491 787 432.5 c 128,-1,37
 852 374 852 374 852 286 c 0,38,39
 852 224 852 224 827.5 173 c 128,-1,40
 803 122 803 122 752.5 82.5 c 128,-1,41
 702 43 702 43 615.5 21.5 c 128,-1,42
 529 0 529 0 414 0 c 2,43,-1
 41 0 l 1,21,-1
EndSplineSet
EndChar

StartChar: backslash
Encoding: 92 92 72
Width: 651
VWidth: 0
Flags: MW
LayerCount: 2
Fore
SplineSet
41 1259 m 1,0,-1
 149 1254 l 1,1,-1
 611 -367 l 1,2,-1
 507 -362 l 1,3,-1
 41 1259 l 1,0,-1
EndSplineSet
EndChar

StartChar: bar
Encoding: 124 124 73
Width: 247
VWidth: 0
Flags: MW
LayerCount: 2
Fore
SplineSet
75 -367 m 1,0,-1
 75 1261 l 1,1,-1
 171 1248 l 1,2,-1
 171 -380 l 1,3,-1
 75 -367 l 1,0,-1
EndSplineSet
EndChar

StartChar: braceleft
Encoding: 123 123 74
Width: 613
VWidth: 0
Flags: MW
LayerCount: 2
Fore
SplineSet
572 -378 m 1,0,-1
 469 -378 l 2,1,2
 403 -378 403 -378 357 -353 c 128,-1,3
 311 -328 311 -328 288 -285 c 128,-1,4
 265 -242 265 -242 253 -186.5 c 128,-1,5
 241 -131 241 -131 238.5 -69 c 128,-1,6
 236 -7 236 -7 235.5 56 c 128,-1,7
 235 119 235 119 230.5 177 c 128,-1,8
 226 235 226 235 213.5 281 c 128,-1,9
 201 327 201 327 172 358 c 128,-1,10
 143 389 143 389 96 395 c 2,11,-1
 45 402 l 1,12,-1
 45 476 l 1,13,-1
 93 484 l 2,14,15
 153 493 153 493 185 540.5 c 128,-1,16
 217 588 217 588 225.5 656.5 c 128,-1,17
 234 725 234 725 235 806 c 128,-1,18
 236 887 236 887 241 966 c 128,-1,19
 246 1045 246 1045 264 1110 c 128,-1,20
 282 1175 282 1175 332 1215.5 c 128,-1,21
 382 1256 382 1256 465 1256 c 2,22,-1
 567 1256 l 1,23,-1
 559 1182 l 1,24,-1
 465 1175 l 2,25,26
 425 1172 425 1172 405 1134.5 c 128,-1,27
 385 1097 385 1097 380.5 1037.5 c 128,-1,28
 376 978 376 978 376 906 c 128,-1,29
 376 834 376 834 371.5 759 c 128,-1,30
 367 684 367 684 353 619.5 c 128,-1,31
 339 555 339 555 300 507 c 128,-1,32
 261 459 261 459 197 443 c 1,33,-1
 197 438 l 1,34,35
 261 424 261 424 300.5 376.5 c 128,-1,36
 340 329 340 329 354.5 264 c 128,-1,37
 369 199 369 199 374 123.5 c 128,-1,38
 379 48 379 48 379.5 -25 c 128,-1,39
 380 -98 380 -98 386 -158.5 c 128,-1,40
 392 -219 392 -219 413.5 -257 c 128,-1,41
 435 -295 435 -295 477 -297 c 2,42,-1
 564 -303 l 1,43,-1
 572 -378 l 1,0,-1
EndSplineSet
EndChar

StartChar: braceright
Encoding: 125 125 75
Width: 614
VWidth: 0
Flags: MW
LayerCount: 2
Fore
SplineSet
41 -378 m 1,0,-1
 49 -303 l 1,1,-1
 136 -297 l 2,2,3
 178 -295 178 -295 199.5 -257 c 128,-1,4
 221 -219 221 -219 226.5 -158.5 c 128,-1,5
 232 -98 232 -98 233 -25 c 128,-1,6
 234 48 234 48 239 123.5 c 128,-1,7
 244 199 244 199 258 264 c 128,-1,8
 272 329 272 329 311.5 376.5 c 128,-1,9
 351 424 351 424 415 438 c 1,10,-1
 415 443 l 1,11,12
 351 459 351 459 312 507 c 128,-1,13
 273 555 273 555 259 619.5 c 128,-1,14
 245 684 245 684 240.5 759 c 128,-1,15
 236 834 236 834 236.5 906 c 128,-1,16
 237 978 237 978 232.5 1037.5 c 128,-1,17
 228 1097 228 1097 208 1134.5 c 128,-1,18
 188 1172 188 1172 148 1175 c 2,19,-1
 54 1182 l 1,20,-1
 46 1256 l 1,21,-1
 148 1256 l 2,22,23
 231 1256 231 1256 281 1215.5 c 128,-1,24
 331 1175 331 1175 349 1110 c 128,-1,25
 367 1045 367 1045 372 966 c 128,-1,26
 377 887 377 887 377.5 806 c 128,-1,27
 378 725 378 725 386.5 656.5 c 128,-1,28
 395 588 395 588 427 540.5 c 128,-1,29
 459 493 459 493 519 484 c 2,30,-1
 568 476 l 1,31,-1
 568 402 l 1,32,-1
 516 395 l 2,33,34
 457 387 457 387 425.5 340 c 128,-1,35
 394 293 394 293 386 224 c 128,-1,36
 378 155 378 155 377.5 74 c 128,-1,37
 377 -7 377 -7 372 -86.5 c 128,-1,38
 367 -166 367 -166 348.5 -231.5 c 128,-1,39
 330 -297 330 -297 279 -337.5 c 128,-1,40
 228 -378 228 -378 144 -378 c 2,41,-1
 41 -378 l 1,0,-1
EndSplineSet
EndChar

StartChar: bracketleft
Encoding: 91 91 76
Width: 484
VWidth: 0
Flags: MW
LayerCount: 2
Fore
SplineSet
443 -306 m 1,0,-1
 435 -375 l 1,1,-1
 75 -375 l 1,2,-1
 76 1256 l 1,3,-1
 434 1256 l 1,4,-1
 441 1185 l 1,5,-1
 206 1164 l 1,6,-1
 206 -286 l 1,7,-1
 443 -306 l 1,0,-1
EndSplineSet
EndChar

StartChar: bracketright
Encoding: 93 93 77
Width: 485
VWidth: 0
Flags: MW
LayerCount: 2
Fore
SplineSet
42 -306 m 1,0,-1
 279 -286 l 1,1,-1
 279 1164 l 1,2,-1
 44 1185 l 1,3,-1
 52 1256 l 1,4,-1
 409 1256 l 1,5,-1
 410 -375 l 1,6,-1
 50 -375 l 1,7,-1
 42 -306 l 1,0,-1
EndSplineSet
EndChar

StartChar: brokenbar
Encoding: 166 166 78
Width: 275
VWidth: 0
Flags: MW
LayerCount: 2
Fore
SplineSet
91 538 m 1,0,-1
 91 1256 l 1,1,-1
 184 1248 l 1,2,-1
 182 529 l 1,3,-1
 91 538 l 1,0,-1
91 -370 m 1,4,-1
 91 418 l 1,5,-1
 185 410 l 1,6,-1
 185 -380 l 1,7,-1
 91 -370 l 1,4,-1
EndSplineSet
EndChar

StartChar: c
Encoding: 99 99 79
Width: 834
VWidth: 845
Flags: MW
LayerCount: 2
Fore
SplineSet
43 432 m 0,0,1
 43 505 43 505 60 576.5 c 128,-1,2
 77 648 77 648 113.5 714 c 128,-1,3
 150 780 150 780 203 830 c 128,-1,4
 256 880 256 880 333.5 910 c 128,-1,5
 411 940 411 940 504 940 c 0,6,7
 662 940 662 940 757 877 c 1,8,-1
 731 614 l 1,9,-1
 658 625 l 1,10,-1
 642 790 l 1,11,12
 618 825 618 825 577 845 c 128,-1,13
 536 865 536 865 462 865 c 0,14,15
 343 865 343 865 268 764 c 128,-1,16
 193 663 193 663 193 480 c 0,17,18
 193 290 193 290 281 182.5 c 128,-1,19
 369 75 369 75 505 75 c 0,20,21
 651 75 651 75 770 160 c 1,22,-1
 799 108 l 1,23,24
 747 54 747 54 658.5 14.5 c 128,-1,25
 570 -25 570 -25 448 -25 c 0,26,27
 274 -25 274 -25 158.5 98.5 c 128,-1,28
 43 222 43 222 43 432 c 0,0,1
EndSplineSet
EndChar

StartChar: ccedilla
Encoding: 231 231 80
Width: 811
VWidth: 0
Flags: MW
LayerCount: 2
Fore
SplineSet
356 -341 m 1,0,1
 398 -327 398 -327 428 -299.5 c 128,-1,2
 458 -272 458 -272 458 -249 c 0,3,4
 458 -237 458 -237 453.5 -225 c 128,-1,5
 449 -213 449 -213 445.5 -205 c 128,-1,6
 442 -197 442 -197 430.5 -183.5 c 128,-1,7
 419 -170 419 -170 415 -166 c 128,-1,8
 411 -162 411 -162 395.5 -147 c 128,-1,9
 380 -132 380 -132 378 -130 c 1,10,-1
 451 -25 l 1,11,12
 444 -25 444 -25 436 -25 c 0,13,14
 352 -25 352 -25 278 6.5 c 128,-1,15
 204 38 204 38 149.5 95.5 c 128,-1,16
 95 153 95 153 63.5 239.5 c 128,-1,17
 32 326 32 326 32 432 c 0,18,19
 32 505 32 505 48.5 576.5 c 128,-1,20
 65 648 65 648 102 714 c 128,-1,21
 139 780 139 780 191.5 830 c 128,-1,22
 244 880 244 880 322 910 c 128,-1,23
 400 940 400 940 492 940 c 0,24,25
 650 940 650 940 746 877 c 1,26,-1
 720 614 l 1,27,-1
 647 625 l 1,28,-1
 631 790 l 1,29,30
 607 825 607 825 565.5 845 c 128,-1,31
 524 865 524 865 450 865 c 0,32,33
 331 865 331 865 256.5 764 c 128,-1,34
 182 663 182 663 182 480 c 0,35,36
 182 290 182 290 270 182.5 c 128,-1,37
 358 75 358 75 494 75 c 0,38,39
 640 75 640 75 758 160 c 1,40,-1
 788 108 l 1,41,42
 747 65 747 65 679.5 29.5 c 128,-1,43
 612 -6 612 -6 522 -19 c 1,44,-1
 482 -78 l 1,45,46
 570 -157 570 -157 570 -229 c 0,47,48
 570 -285 570 -285 518 -324 c 128,-1,49
 466 -363 466 -363 370 -391 c 1,50,-1
 356 -341 l 1,0,1
EndSplineSet
EndChar

StartChar: cedilla
Encoding: 184 184 81
Width: 334
VWidth: 0
Flags: MW
LayerCount: 2
Fore
SplineSet
59 -339 m 1,0,1
 101 -325 101 -325 131 -297.5 c 128,-1,2
 161 -270 161 -270 161 -248 c 0,3,4
 161 -236 161 -236 157 -223.5 c 128,-1,5
 153 -211 153 -211 149 -203 c 128,-1,6
 145 -195 145 -195 133.5 -181.5 c 128,-1,7
 122 -168 122 -168 118 -164 c 128,-1,8
 114 -160 114 -160 98.5 -145 c 128,-1,9
 83 -130 83 -130 81 -128 c 1,10,-1
 172 3 l 1,11,-1
 239 3 l 1,12,-1
 185 -76 l 1,13,14
 274 -155 274 -155 274 -227 c 0,15,16
 274 -283 274 -283 221.5 -322.5 c 128,-1,17
 169 -362 169 -362 74 -390 c 1,18,-1
 59 -339 l 1,0,1
EndSplineSet
EndChar

StartChar: cent
Encoding: 162 162 82
Width: 771
VWidth: 0
Flags: MW
LayerCount: 2
Fore
SplineSet
337 1134 m 1,0,-1
 463 1152 l 1,1,-1
 442 919 l 1,2,3
 445 920 445 920 448 920 c 0,4,5
 565 920 565 920 622 873 c 128,-1,6
 679 826 679 826 679 759 c 0,7,8
 680 676 680 676 584 660 c 1,9,10
 552 747 552 747 509 795 c 128,-1,11
 466 843 466 843 400 843 c 0,12,13
 310 843 310 843 249 743 c 128,-1,14
 188 643 188 643 188 486 c 0,15,16
 188 368 188 368 222 274.5 c 128,-1,17
 256 181 256 181 323 124.5 c 128,-1,18
 390 68 390 68 480 68 c 0,19,20
 601 68 601 68 698 148 c 1,21,-1
 720 102 l 1,22,23
 684 53 684 53 608 15.5 c 128,-1,24
 532 -22 532 -22 446 -28 c 1,25,-1
 475 -250 l 1,26,-1
 347 -266 l 1,27,-1
 371 -27 l 1,28,29
 271 -16 271 -16 197 46.5 c 128,-1,30
 123 109 123 109 85.5 203.5 c 128,-1,31
 48 298 48 298 48 412 c 0,32,33
 48 602 48 602 138 738 c 128,-1,34
 228 874 228 874 365 909 c 1,35,-1
 337 1134 l 1,0,-1
EndSplineSet
EndChar

StartChar: circumflex
Encoding: 710 710 83
Width: 571
VWidth: 0
Flags: MW
LayerCount: 2
Fore
SplineSet
84 1388 m 1,0,-1
 252 1568 l 1,1,-1
 306 1582 l 1,2,-1
 485 1396 l 1,3,-1
 444 1358 l 1,4,-1
 272 1481 l 1,5,-1
 262 1481 l 1,6,-1
 114 1358 l 1,7,-1
 84 1388 l 1,0,-1
EndSplineSet
EndChar

StartChar: colon
Encoding: 58 58 84
Width: 302
VWidth: 0
Flags: MW
LayerCount: 2
Fore
SplineSet
65 740 m 0,0,1
 65 786 65 786 89.5 814 c 128,-1,2
 114 842 114 842 153 842 c 128,-1,3
 192 842 192 842 216.5 813.5 c 128,-1,4
 241 785 241 785 241 739 c 0,5,6
 241 690 241 690 217 660 c 128,-1,7
 193 630 193 630 153 630 c 128,-1,8
 113 630 113 630 89 660.5 c 128,-1,9
 65 691 65 691 65 740 c 0,0,1
63 110 m 0,10,11
 63 156 63 156 87.5 183.5 c 128,-1,12
 112 211 112 211 151 211 c 128,-1,13
 190 211 190 211 214.5 183.5 c 128,-1,14
 239 156 239 156 239 110 c 0,15,16
 239 61 239 61 215.5 30.5 c 128,-1,17
 192 0 192 0 152 0 c 128,-1,18
 112 0 112 0 87.5 31 c 128,-1,19
 63 62 63 62 63 110 c 0,10,11
EndSplineSet
EndChar

StartChar: comma
Encoding: 44 44 85
Width: 414
VWidth: 0
Flags: MW
LayerCount: 2
Fore
SplineSet
54 -240 m 1,0,1
 234 -180 234 -180 234 -50 c 0,2,3
 234 4 234 4 202 39 c 128,-1,4
 170 74 170 74 122 74 c 0,5,6
 104 74 104 74 93 71 c 1,7,8
 84 94 84 94 84 112 c 0,9,10
 84 160 84 160 117 189 c 128,-1,11
 150 218 150 218 194 218 c 0,12,13
 256 218 256 218 304 164 c 128,-1,14
 352 110 352 110 352 10 c 0,15,16
 352 -21 352 -21 346 -51.5 c 128,-1,17
 340 -82 340 -82 321 -119 c 128,-1,18
 302 -156 302 -156 272.5 -187 c 128,-1,19
 243 -218 243 -218 191.5 -247.5 c 128,-1,20
 140 -277 140 -277 72 -297 c 1,21,-1
 54 -240 l 1,0,1
EndSplineSet
EndChar

StartChar: copyright
Encoding: 169 169 86
Width: 1352
VWidth: 0
Flags: MW
LayerCount: 2
Fore
SplineSet
147 644 m 0,0,1
 147 391 147 391 293 226.5 c 128,-1,2
 439 62 439 62 666 62 c 0,3,4
 816 62 816 62 939.5 135 c 128,-1,5
 1063 208 1063 208 1133.5 337.5 c 128,-1,6
 1204 467 1204 467 1204 626 c 0,7,8
 1204 795 1204 795 1139 930 c 128,-1,9
 1074 1065 1074 1065 951 1143.5 c 128,-1,10
 828 1222 828 1222 668 1222 c 0,11,12
 521 1222 521 1222 401 1145 c 128,-1,13
 281 1068 281 1068 214 936 c 128,-1,14
 147 804 147 804 147 644 c 0,0,1
52 633 m 0,15,16
 52 776 52 776 101 901.5 c 128,-1,17
 150 1027 150 1027 233 1114 c 128,-1,18
 316 1201 316 1201 429 1251 c 128,-1,19
 542 1301 542 1301 667 1301 c 0,20,21
 857 1301 857 1301 1001 1216 c 128,-1,22
 1145 1131 1145 1131 1221.5 980.5 c 128,-1,23
 1298 830 1298 830 1298 636 c 0,24,25
 1298 451 1298 451 1216.5 301 c 128,-1,26
 1135 151 1135 151 988 65 c 128,-1,27
 841 -21 841 -21 657 -21 c 0,28,29
 385 -21 385 -21 218.5 161.5 c 128,-1,30
 52 344 52 344 52 633 c 0,15,16
356 627 m 0,31,32
 356 718 356 718 383 794.5 c 128,-1,33
 410 871 410 871 455.5 922 c 128,-1,34
 501 973 501 973 562 1001.5 c 128,-1,35
 623 1030 623 1030 690 1030 c 0,36,37
 788 1030 788 1030 835.5 990.5 c 128,-1,38
 883 951 883 951 883 895 c 0,39,40
 883 826 883 826 804 813 c 1,41,42
 778 885 778 885 742 925 c 128,-1,43
 706 965 706 965 650 965 c 0,44,45
 573 965 573 965 523 892 c 128,-1,46
 473 819 473 819 473 690 c 0,47,48
 473 540 473 540 539 443.5 c 128,-1,49
 605 347 605 347 717 347 c 0,50,51
 819 347 819 347 900 413 c 1,52,-1
 918 374 l 1,53,54
 885 329 885 329 812.5 296.5 c 128,-1,55
 740 264 740 264 662 264 c 0,56,57
 568 264 568 264 497.5 313.5 c 128,-1,58
 427 363 427 363 391.5 444.5 c 128,-1,59
 356 526 356 526 356 627 c 0,31,32
EndSplineSet
EndChar

StartChar: currency
Encoding: 164 164 87
Width: 731
VWidth: 0
Flags: MW
LayerCount: 2
Fore
SplineSet
193 495 m 0,0,1
 193 408 193 408 240.5 354 c 128,-1,2
 288 300 288 300 364 300 c 0,3,4
 443 300 443 300 491.5 352.5 c 128,-1,5
 540 405 540 405 540 488 c 0,6,7
 540 577 540 577 491.5 631 c 128,-1,8
 443 685 443 685 362 685 c 0,9,10
 286 685 286 685 239.5 632.5 c 128,-1,11
 193 580 193 580 193 495 c 0,0,1
44 740 m 1,12,-1
 111 804 l 1,13,-1
 205 701 l 1,14,15
 239 729 239 729 284.5 749.5 c 128,-1,16
 330 770 330 770 366 770 c 0,17,18
 404 770 404 770 452 752 c 128,-1,19
 500 734 500 734 532 710 c 1,20,-1
 627 806 l 1,21,-1
 684 736 l 1,22,-1
 586 646 l 1,23,24
 603 617 603 617 616.5 571 c 128,-1,25
 630 525 630 525 630 492 c 0,26,27
 630 455 630 455 614 408.5 c 128,-1,28
 598 362 598 362 578 334 c 1,29,-1
 687 232 l 1,30,-1
 619 168 l 1,31,-1
 523 274 l 1,32,33
 486 252 486 252 440 235 c 128,-1,34
 394 218 394 218 360 218 c 0,35,36
 331 218 331 218 289.5 233 c 128,-1,37
 248 248 248 248 216 268 c 1,38,-1
 123 163 l 1,39,-1
 57 230 l 1,40,-1
 156 324 l 1,41,42
 135 356 135 356 119.5 404 c 128,-1,43
 104 452 104 452 104 490 c 0,44,45
 104 523 104 523 118 566.5 c 128,-1,46
 132 610 132 610 151 638 c 1,47,-1
 44 740 l 1,12,-1
EndSplineSet
EndChar

StartChar: d
Encoding: 100 100 88
Width: 999
VWidth: 845
Flags: MW
LayerCount: 2
Fore
SplineSet
338 79 m 1,0,-1
 410 79 l 2,1,2
 604 79 604 79 704 180.5 c 128,-1,3
 804 282 804 282 804 462 c 0,4,5
 804 656 804 656 704.5 758.5 c 128,-1,6
 605 861 605 861 415 861 c 0,7,8
 370 861 370 861 338 857 c 1,9,-1
 338 79 l 1,0,-1
40 0 m 1,10,-1
 51 58 l 1,11,-1
 192 100 l 1,12,-1
 192 814 l 1,13,-1
 44 840 l 1,14,-1
 54 896 l 1,15,16
 300 940 300 940 452 940 c 0,17,18
 566 940 566 940 655 915 c 128,-1,19
 744 890 744 890 800 849 c 128,-1,20
 856 808 856 808 892.5 749.5 c 128,-1,21
 929 691 929 691 943.5 629.5 c 128,-1,22
 958 568 958 568 958 498 c 0,23,24
 958 272 958 272 798.5 136 c 128,-1,25
 639 0 639 0 372 0 c 2,26,-1
 40 0 l 1,10,-1
EndSplineSet
EndChar

StartChar: dagger
Encoding: 8224 8224 89
Width: 784
VWidth: 0
Flags: MW
LayerCount: 2
Fore
SplineSet
40 723 m 1,0,-1
 48 818 l 1,1,-1
 346 811 l 1,2,-1
 336 1256 l 1,3,-1
 450 1244 l 1,4,-1
 440 811 l 1,5,-1
 746 818 l 1,6,-1
 738 718 l 1,7,-1
 440 728 l 1,8,-1
 456 -363 l 1,9,-1
 330 -351 l 1,10,-1
 346 730 l 1,11,-1
 40 723 l 1,0,-1
EndSplineSet
EndChar

StartChar: daggerdbl
Encoding: 8225 8225 90
Width: 804
VWidth: 0
Flags: MW
LayerCount: 2
Fore
SplineSet
48 723 m 1,0,-1
 56 818 l 1,1,-1
 352 810 l 1,2,-1
 344 1256 l 1,3,-1
 457 1244 l 1,4,-1
 446 810 l 1,5,-1
 751 818 l 1,6,-1
 744 717 l 1,7,-1
 446 728 l 1,8,-1
 438 429 l 1,9,-1
 444 164 l 1,10,-1
 756 172 l 1,11,-1
 750 76 l 1,12,-1
 444 85 l 1,13,-1
 451 -363 l 1,14,-1
 338 -352 l 1,15,-1
 348 85 l 1,16,-1
 62 76 l 1,17,-1
 68 178 l 1,18,-1
 348 166 l 1,19,-1
 355 498 l 1,20,-1
 352 729 l 1,21,-1
 48 723 l 1,0,-1
EndSplineSet
EndChar

StartChar: degree
Encoding: 176 176 91
Width: 453
VWidth: 0
Flags: MW
LayerCount: 2
Fore
SplineSet
122 1129 m 0,0,1
 122 1065 122 1065 152 1023 c 128,-1,2
 182 981 182 981 232 981 c 0,3,4
 276 981 276 981 304 1014.5 c 128,-1,5
 332 1048 332 1048 332 1105 c 0,6,7
 332 1166 332 1166 303 1208.5 c 128,-1,8
 274 1251 274 1251 224 1251 c 0,9,10
 176 1251 176 1251 149 1217 c 128,-1,11
 122 1183 122 1183 122 1129 c 0,0,1
46 1107 m 0,12,13
 46 1186 46 1186 102 1245 c 128,-1,14
 158 1304 158 1304 238 1304 c 0,15,16
 323 1304 323 1304 366.5 1258 c 128,-1,17
 410 1212 410 1212 410 1128 c 0,18,19
 410 1043 410 1043 352 985.5 c 128,-1,20
 294 928 294 928 214 928 c 0,21,22
 136 928 136 928 91 974.5 c 128,-1,23
 46 1021 46 1021 46 1107 c 0,12,13
EndSplineSet
EndChar

StartChar: dieresis
Encoding: 168 168 92
Width: 582
VWidth: 0
Flags: MW
LayerCount: 2
Fore
SplineSet
354 1465 m 0,0,1
 354 1501 354 1501 374 1521.5 c 128,-1,2
 394 1542 394 1542 424 1542 c 0,3,4
 455 1542 455 1542 475.5 1521 c 128,-1,5
 496 1500 496 1500 496 1465 c 0,6,7
 496 1427 496 1427 476 1405.5 c 128,-1,8
 456 1384 456 1384 424 1384 c 0,9,10
 392 1384 392 1384 373 1406 c 128,-1,11
 354 1428 354 1428 354 1465 c 0,0,1
86 1465 m 0,12,13
 86 1501 86 1501 106 1521.5 c 128,-1,14
 126 1542 126 1542 156 1542 c 0,15,16
 187 1542 187 1542 207.5 1521.5 c 128,-1,17
 228 1501 228 1501 228 1465 c 0,18,19
 228 1427 228 1427 209 1405.5 c 128,-1,20
 190 1384 190 1384 157 1384 c 0,21,22
 125 1384 125 1384 105.5 1406 c 128,-1,23
 86 1428 86 1428 86 1465 c 0,12,13
EndSplineSet
EndChar

StartChar: divide
Encoding: 247 247 93
Width: 930
VWidth: 0
Flags: MW
LayerCount: 2
Fore
SplineSet
369 790 m 0,0,1
 369 838 369 838 393.5 866 c 128,-1,2
 418 894 418 894 458 894 c 0,3,4
 499 894 499 894 525.5 865 c 128,-1,5
 552 836 552 836 552 789 c 0,6,7
 552 739 552 739 527 707.5 c 128,-1,8
 502 676 502 676 460 676 c 0,9,10
 419 676 419 676 394 708 c 128,-1,11
 369 740 369 740 369 790 c 0,0,1
369 226 m 0,12,13
 369 273 369 273 393.5 301 c 128,-1,14
 418 329 418 329 458 329 c 0,15,16
 500 329 500 329 526 301.5 c 128,-1,17
 552 274 552 274 552 226 c 0,18,19
 552 176 552 176 527 144 c 128,-1,20
 502 112 502 112 460 112 c 0,21,22
 418 112 418 112 393.5 144 c 128,-1,23
 369 176 369 176 369 226 c 0,12,13
54 465 m 1,24,-1
 66 550 l 1,25,-1
 878 550 l 1,26,-1
 867 465 l 1,27,-1
 54 465 l 1,24,-1
EndSplineSet
EndChar

StartChar: dollar
Encoding: 36 36 94
Width: 750
VWidth: 0
Flags: MW
LayerCount: 2
Fore
SplineSet
47 138 m 0,0,1
 47 182 47 182 74.5 211 c 128,-1,2
 102 240 102 240 152 244 c 1,3,4
 202 40 202 40 357 40 c 0,5,6
 423 40 423 40 464.5 71 c 128,-1,7
 506 102 506 102 506 158 c 0,8,9
 506 204 506 204 462.5 246 c 128,-1,10
 419 288 419 288 357.5 324.5 c 128,-1,11
 296 361 296 361 234 402 c 128,-1,12
 172 443 172 443 128.5 504 c 128,-1,13
 85 565 85 565 85 638 c 0,14,15
 85 725 85 725 145.5 800.5 c 128,-1,16
 206 876 206 876 308 894 c 1,17,-1
 292 1042 l 1,18,-1
 414 1059 l 1,19,-1
 401 898 l 1,20,21
 488 890 488 890 543 845 c 128,-1,22
 598 800 598 800 598 735 c 0,23,24
 598 683 598 683 568 654.5 c 128,-1,25
 538 626 538 626 490 622 c 1,26,27
 476 724 476 724 430 779 c 128,-1,28
 384 834 384 834 323 834 c 0,29,30
 265 834 265 834 230 796.5 c 128,-1,31
 195 759 195 759 195 697 c 0,32,33
 195 656 195 656 218.5 619 c 128,-1,34
 242 582 242 582 280 553 c 128,-1,35
 318 524 318 524 363.5 496 c 128,-1,36
 409 468 409 468 455 438.5 c 128,-1,37
 501 409 501 409 538.5 377 c 128,-1,38
 576 345 576 345 600 302.5 c 128,-1,39
 624 260 624 260 624 210 c 0,40,41
 624 125 624 125 562 60 c 128,-1,42
 500 -5 500 -5 402 -26 c 1,43,44
 414 -179 l 1,45,-1
 288 -197 l 1,46,-1
 300 -35 l 1,47,48
 190 -30 190 -30 118.5 19.5 c 128,-1,49
 47 69 47 69 47 138 c 0,0,1
EndSplineSet
EndChar

StartChar: dotaccent
Encoding: 729 729 95
Width: 355
VWidth: 0
Flags: MW
LayerCount: 2
Fore
SplineSet
86 1479 m 0,0,1
 86 1526 86 1526 111.5 1555 c 128,-1,2
 137 1584 137 1584 177 1584 c 0,3,4
 218 1584 218 1584 244 1555 c 128,-1,5
 270 1526 270 1526 270 1478 c 0,6,7
 270 1428 270 1428 244.5 1397 c 128,-1,8
 219 1366 219 1366 177 1366 c 0,9,10
 136 1366 136 1366 111 1397.5 c 128,-1,11
 86 1429 86 1429 86 1479 c 0,0,1
EndSplineSet
EndChar

StartChar: e
Encoding: 101 101 96
Width: 894
VWidth: 845
Flags: MW
LayerCount: 2
Fore
SplineSet
44 862 m 1,0,-1
 52 920 l 1,1,-1
 818 920 l 1,2,-1
 792 650 l 1,3,-1
 719 659 l 1,4,-1
 699 849 l 1,5,-1
 343 849 l 1,6,-1
 343 490 l 1,7,-1
 574 490 l 1,8,-1
 598 574 l 1,9,-1
 674 586 l 1,10,-1
 641 302 l 1,11,-1
 570 290 l 1,12,-1
 561 416 l 1,13,-1
 343 416 l 1,14,-1
 343 75 l 1,15,-1
 729 75 l 1,16,-1
 790 274 l 1,17,-1
 857 263 l 1,18,-1
 837 0 l 1,19,-1
 48 0 l 1,20,-1
 56 58 l 1,21,-1
 194 96 l 1,22,-1
 194 827 l 1,23,-1
 44 862 l 1,0,-1
EndSplineSet
EndChar

StartChar: eacute
Encoding: 233 233 97
Width: 771
VWidth: 0
Flags: MW
LayerCount: 2
Fore
SplineSet
398 1028 m 1,0,-1
 526 1359 l 1,1,-1
 630 1320 l 1,2,-1
 446 999 l 1,3,-1
 398 1028 l 1,0,-1
28 862 m 1,4,-1
 37 920 l 1,5,-1
 802 920 l 1,6,-1
 776 650 l 1,7,-1
 704 659 l 1,8,-1
 684 849 l 1,9,-1
 328 849 l 1,10,-1
 328 490 l 1,11,-1
 558 490 l 1,12,-1
 583 574 l 1,13,-1
 659 586 l 1,14,-1
 626 302 l 1,15,-1
 554 290 l 1,16,-1
 546 416 l 1,17,-1
 328 416 l 1,18,-1
 328 75 l 1,19,-1
 714 75 l 1,20,-1
 774 274 l 1,21,-1
 842 263 l 1,22,-1
 822 0 l 1,23,-1
 33 0 l 1,24,-1
 40 58 l 1,25,-1
 178 96 l 1,26,-1
 178 827 l 1,27,-1
 28 862 l 1,4,-1
EndSplineSet
EndChar

StartChar: ecircumflex
Encoding: 234 234 98
Width: 832
VWidth: 0
Flags: MW
LayerCount: 2
Fore
SplineSet
262 1034 m 1,0,-1
 430 1214 l 1,1,-1
 484 1228 l 1,2,-1
 663 1042 l 1,3,-1
 622 1004 l 1,4,-1
 450 1127 l 1,5,-1
 440 1127 l 1,6,-1
 292 1004 l 1,7,-1
 262 1034 l 1,0,-1
32 862 m 1,8,-1
 41 920 l 1,9,-1
 806 920 l 1,10,-1
 780 650 l 1,11,-1
 708 659 l 1,12,-1
 688 849 l 1,13,-1
 332 849 l 1,14,-1
 332 490 l 1,15,-1
 562 490 l 1,16,-1
 587 574 l 1,17,-1
 663 586 l 1,18,-1
 630 302 l 1,19,-1
 558 290 l 1,20,-1
 550 416 l 1,21,-1
 332 416 l 1,22,-1
 332 75 l 1,23,-1
 718 75 l 1,24,-1
 778 274 l 1,25,-1
 846 263 l 1,26,-1
 826 0 l 1,27,-1
 37 0 l 1,28,-1
 44 58 l 1,29,-1
 182 96 l 1,30,-1
 182 827 l 1,31,-1
 32 862 l 1,8,-1
EndSplineSet
EndChar

StartChar: edieresis
Encoding: 235 235 99
Width: 832
VWidth: 0
Flags: MW
LayerCount: 2
Fore
SplineSet
515 1084 m 0,0,1
 515 1120 515 1120 534.5 1141 c 128,-1,2
 554 1162 554 1162 584 1162 c 0,3,4
 615 1162 615 1162 636 1140.5 c 128,-1,5
 657 1119 657 1119 657 1084 c 0,6,7
 657 1046 657 1046 637.5 1024 c 128,-1,8
 618 1002 618 1002 585 1002 c 0,9,10
 553 1002 553 1002 534 1024.5 c 128,-1,11
 515 1047 515 1047 515 1084 c 0,0,1
246 1084 m 0,12,13
 246 1120 246 1120 266 1141 c 128,-1,14
 286 1162 286 1162 316 1162 c 0,15,16
 347 1162 347 1162 367.5 1141 c 128,-1,17
 388 1120 388 1120 388 1084 c 0,18,19
 388 1046 388 1046 369 1024 c 128,-1,20
 350 1002 350 1002 318 1002 c 0,21,22
 286 1002 286 1002 266 1024.5 c 128,-1,23
 246 1047 246 1047 246 1084 c 0,12,13
32 862 m 1,24,-1
 41 920 l 1,25,-1
 806 920 l 1,26,-1
 780 650 l 1,27,-1
 708 659 l 1,28,-1
 688 849 l 1,29,-1
 332 849 l 1,30,-1
 332 490 l 1,31,-1
 562 490 l 1,32,-1
 587 574 l 1,33,-1
 663 586 l 1,34,-1
 630 302 l 1,35,-1
 558 290 l 1,36,-1
 550 416 l 1,37,-1
 332 416 l 1,38,-1
 332 75 l 1,39,-1
 718 75 l 1,40,-1
 778 274 l 1,41,-1
 846 263 l 1,42,-1
 826 0 l 1,43,-1
 37 0 l 1,44,-1
 44 58 l 1,45,-1
 182 96 l 1,46,-1
 182 827 l 1,47,-1
 32 862 l 1,24,-1
EndSplineSet
EndChar

StartChar: egrave
Encoding: 232 232 100
Width: 771
VWidth: 0
Flags: MW
LayerCount: 2
Fore
SplineSet
262 1323 m 1,0,-1
 366 1360 l 1,1,-1
 498 1026 l 1,2,-1
 448 995 l 1,3,-1
 262 1323 l 1,0,-1
28 862 m 1,4,-1
 37 920 l 1,5,-1
 802 920 l 1,6,-1
 776 650 l 1,7,-1
 704 659 l 1,8,-1
 684 849 l 1,9,-1
 328 849 l 1,10,-1
 328 490 l 1,11,-1
 558 490 l 1,12,-1
 583 574 l 1,13,-1
 659 586 l 1,14,-1
 626 302 l 1,15,-1
 554 290 l 1,16,-1
 546 416 l 1,17,-1
 328 416 l 1,18,-1
 328 75 l 1,19,-1
 714 75 l 1,20,-1
 774 274 l 1,21,-1
 842 263 l 1,22,-1
 822 0 l 1,23,-1
 33 0 l 1,24,-1
 40 58 l 1,25,-1
 178 96 l 1,26,-1
 178 827 l 1,27,-1
 28 862 l 1,4,-1
EndSplineSet
EndChar

StartChar: eight
Encoding: 56 56 101
Width: 790
VWidth: 0
Flags: MW
LayerCount: 2
Fore
SplineSet
210 976 m 0,0,1
 210 885 210 885 271 809.5 c 128,-1,2
 332 734 332 734 467 652 c 1,3,4
 489 674 489 674 505 693.5 c 128,-1,5
 521 713 521 713 538.5 743 c 128,-1,6
 556 773 556 773 565 812.5 c 128,-1,7
 574 852 574 852 574 898 c 0,8,9
 574 996 574 996 518 1068 c 128,-1,10
 462 1140 462 1140 376 1140 c 0,11,12
 304 1140 304 1140 257 1093 c 128,-1,13
 210 1046 210 1046 210 976 c 0,0,1
186 312 m 0,14,15
 186 258 186 258 206 208 c 128,-1,16
 226 158 226 158 258 124 c 128,-1,17
 290 90 290 90 330 70 c 128,-1,18
 370 50 370 50 408 50 c 0,19,20
 506 50 506 50 562 103 c 128,-1,21
 618 156 618 156 618 248 c 0,22,23
 618 330 618 330 549.5 401 c 128,-1,24
 481 472 481 472 313 576 c 1,25,26
 256 532 256 532 221 464.5 c 128,-1,27
 186 397 186 397 186 312 c 0,14,15
52 280 m 0,28,29
 52 456 52 456 264 605 c 1,30,-1
 264 612 l 1,31,32
 190 663 190 663 144 737.5 c 128,-1,33
 98 812 98 812 98 900 c 0,34,35
 98 961 98 961 121 1016.5 c 128,-1,36
 144 1072 144 1072 184.5 1112.5 c 128,-1,37
 225 1153 225 1153 283.5 1177.5 c 128,-1,38
 342 1202 342 1202 410 1202 c 0,39,40
 536 1202 536 1202 612 1127.5 c 128,-1,41
 688 1053 688 1053 688 933 c 0,42,43
 688 750 688 750 522 624 c 1,44,-1
 521 618 l 1,45,46
 632 545 632 545 686 465.5 c 128,-1,47
 740 386 740 386 740 294 c 0,48,49
 740 204 740 204 689 130 c 128,-1,50
 638 56 638 56 551 14.5 c 128,-1,51
 464 -27 464 -27 361 -27 c 0,52,53
 223 -27 223 -27 137.5 58.5 c 128,-1,54
 52 144 52 144 52 280 c 0,28,29
EndSplineSet
EndChar

StartChar: emdash
Encoding: 8212 8212 102
Width: 1261
VWidth: 0
Flags: MW
LayerCount: 2
Fore
SplineSet
64 420 m 1,0,-1
 78 503 l 1,1,-1
 1198 509 l 1,2,-1
 1184 426 l 1,3,-1
 64 420 l 1,0,-1
EndSplineSet
EndChar

StartChar: endash
Encoding: 8211 8211 103
Width: 752
VWidth: 0
Flags: MW
LayerCount: 2
Fore
SplineSet
65 420 m 1,0,-1
 78 503 l 1,1,-1
 689 509 l 1,2,-1
 676 426 l 1,3,-1
 65 420 l 1,0,-1
EndSplineSet
EndChar

StartChar: equal
Encoding: 61 61 104
Width: 782
VWidth: 0
Flags: MW
LayerCount: 2
Fore
SplineSet
80 570 m 1,0,-1
 92 654 l 1,1,-1
 706 654 l 1,2,-1
 694 570 l 1,3,-1
 80 570 l 1,0,-1
77 330 m 1,4,-1
 88 414 l 1,5,-1
 703 414 l 1,6,-1
 692 330 l 1,7,-1
 77 330 l 1,4,-1
EndSplineSet
EndChar

StartChar: eth
Encoding: 240 240 105
Width: 1150
VWidth: 0
Flags: MW
LayerCount: 2
Fore
SplineSet
358 79 m 1,0,-1
 430 79 l 2,1,2
 624 79 624 79 724 180.5 c 128,-1,3
 824 282 824 282 824 462 c 0,4,5
 824 656 824 656 725 758.5 c 128,-1,6
 626 861 626 861 436 861 c 0,7,8
 390 861 390 861 358 857 c 1,9,-1
 358 496 l 1,10,-1
 567 510 l 1,11,-1
 557 435 l 1,12,-1
 358 420 l 1,13,-1
 358 79 l 1,0,-1
66 399 m 1,14,-1
 76 476 l 1,15,-1
 212 485 l 1,16,-1
 212 814 l 1,17,-1
 65 840 l 1,18,-1
 74 896 l 1,19,20
 320 940 320 940 472 940 c 0,21,22
 586 940 586 940 675.5 915 c 128,-1,23
 765 890 765 890 821 849 c 128,-1,24
 877 808 877 808 913 749.5 c 128,-1,25
 949 691 949 691 963.5 629.5 c 128,-1,26
 978 568 978 568 978 498 c 0,27,28
 978 272 978 272 819 136 c 128,-1,29
 660 0 660 0 392 0 c 2,30,-1
 60 0 l 1,31,-1
 72 58 l 1,32,-1
 212 100 l 1,33,-1
 212 410 l 1,34,-1
 66 399 l 1,14,-1
EndSplineSet
EndChar

StartChar: exclam
Encoding: 33 33 106
Width: 330
VWidth: 0
Flags: MW
LayerCount: 2
Fore
SplineSet
88 1249 m 0,0,1
 88 1271 88 1271 120 1282 c 128,-1,2
 152 1293 152 1293 188 1293 c 0,3,4
 246 1293 246 1293 247 1253 c 0,5,6
 247 1012 247 1012 195 358 c 1,7,-1
 130 372 l 1,8,9
 126 458 126 458 113.5 683 c 128,-1,10
 101 908 101 908 94.5 1046.5 c 128,-1,11
 88 1185 88 1185 88 1249 c 0,0,1
72 79 m 0,12,13
 72 124 72 124 98 154 c 128,-1,14
 124 184 124 184 162 184 c 0,15,16
 201 184 201 184 228 153.5 c 128,-1,17
 255 123 255 123 255 78 c 0,18,19
 255 29 255 29 230 -2.5 c 128,-1,20
 205 -34 205 -34 163 -34 c 0,21,22
 122 -34 122 -34 97 -1.5 c 128,-1,23
 72 31 72 31 72 79 c 0,12,13
EndSplineSet
EndChar

StartChar: exclamdown
Encoding: 161 161 107
Width: 291
VWidth: 0
Flags: MW
LayerCount: 2
Fore
SplineSet
55 797 m 0,0,1
 55 846 55 846 80 878 c 128,-1,2
 105 910 105 910 147 910 c 0,3,4
 188 910 188 910 213 877 c 128,-1,5
 238 844 238 844 238 796 c 0,6,7
 238 751 238 751 211.5 721.5 c 128,-1,8
 185 692 185 692 147 692 c 0,9,10
 108 692 108 692 81.5 722 c 128,-1,11
 55 752 55 752 55 797 c 0,0,1
63 -377 m 0,12,13
 63 -86 63 -86 114 524 c 1,14,-1
 117 529 l 1,15,-1
 181 515 l 1,16,-1
 181 512 l 1,17,18
 223 -158 223 -158 223 -375 c 2,19,-1
 223 -377 l 1,20,21
 217 -396 217 -396 185.5 -406.5 c 128,-1,22
 154 -417 154 -417 122 -417 c 0,23,24
 63 -417 63 -417 63 -377 c 0,12,13
EndSplineSet
EndChar

StartChar: f
Encoding: 102 102 108
Width: 868
VWidth: 845
Flags: MW
LayerCount: 2
Fore
SplineSet
44 863 m 1,0,-1
 52 922 l 1,1,-1
 824 922 l 1,2,-1
 793 650 l 1,3,-1
 717 662 l 1,4,-1
 701 850 l 1,5,-1
 342 850 l 1,6,-1
 342 460 l 1,7,-1
 590 460 l 1,8,-1
 616 552 l 1,9,-1
 691 562 l 1,10,-1
 662 274 l 1,11,-1
 590 262 l 1,12,-1
 578 388 l 1,13,-1
 342 388 l 1,14,-1
 340 96 l 1,15,-1
 537 68 l 1,16,-1
 524 0 l 1,17,-1
 49 0 l 1,18,-1
 54 58 l 1,19,-1
 193 96 l 1,20,-1
 193 828 l 1,21,-1
 44 863 l 1,0,-1
EndSplineSet
EndChar

StartChar: five
Encoding: 53 53 109
Width: 761
VWidth: 0
Flags: MW
LayerCount: 2
Fore
SplineSet
-12 -148 m 0,0,1
 -12 -102 -12 -102 16 -64 c 128,-1,2
 44 -26 44 -26 84 -20 c 1,3,4
 113 -108 113 -108 170.5 -164 c 128,-1,5
 228 -220 228 -220 312 -220 c 0,6,7
 362 -220 362 -220 406.5 -203 c 128,-1,8
 451 -186 451 -186 487.5 -151.5 c 128,-1,9
 524 -117 524 -117 546 -59.5 c 128,-1,10
 568 -2 568 -2 568 72 c 0,11,12
 568 220 568 220 457 308 c 128,-1,13
 346 396 346 396 140 414 c 1,14,-1
 235 923 l 1,15,-1
 680 961 l 1,16,-1
 659 821 l 1,17,-1
 293 796 l 1,18,-1
 250 536 l 1,19,20
 472 516 472 516 595 410 c 128,-1,21
 718 304 718 304 718 132 c 0,22,23
 718 48 718 48 684 -29.5 c 128,-1,24
 650 -107 650 -107 591 -166.5 c 128,-1,25
 532 -226 532 -226 446.5 -261.5 c 128,-1,26
 361 -297 361 -297 265 -297 c 0,27,28
 146 -297 146 -297 67 -254.5 c 128,-1,29
 -12 -212 -12 -212 -12 -148 c 0,0,1
EndSplineSet
EndChar

StartChar: four
Encoding: 52 52 110
Width: 947
VWidth: 0
Flags: MW
LayerCount: 2
Fore
SplineSet
164 206 m 1,0,-1
 528 206 l 1,1,-1
 528 714 l 1,2,-1
 164 206 l 1,0,-1
16 159 m 1,3,-1
 631 978 l 1,4,-1
 680 963 l 1,5,6
 670 772 670 772 670 454 c 2,7,-1
 670 206 l 1,8,-1
 900 206 l 1,9,-1
 884 106 l 1,10,-1
 671 106 l 1,11,-1
 671 -269 l 1,12,-1
 531 -300 l 1,13,-1
 531 108 l 1,14,-1
 36 108 l 1,15,-1
 16 159 l 1,3,-1
EndSplineSet
EndChar

StartChar: g
Encoding: 103 103 111
Width: 1005
VWidth: 845
Flags: MW
LayerCount: 2
Fore
SplineSet
42 421 m 0,0,1
 42 530 42 530 82 627 c 128,-1,2
 122 724 122 724 189.5 792.5 c 128,-1,3
 257 861 257 861 351.5 900.5 c 128,-1,4
 446 940 446 940 552 940 c 0,5,6
 749 940 749 940 859 881 c 1,7,-1
 832 606 l 1,8,-1
 756 616 l 1,9,-1
 738 786 l 1,10,11
 709 817 709 817 646.5 840.5 c 128,-1,12
 584 864 584 864 504 864 c 0,13,14
 370 864 370 864 285 760 c 128,-1,15
 200 656 200 656 200 475 c 0,16,17
 200 387 200 387 219 312.5 c 128,-1,18
 238 238 238 238 275.5 180 c 128,-1,19
 313 122 313 122 375 89 c 128,-1,20
 437 56 437 56 518 56 c 0,21,22
 653 56 653 56 715 100 c 1,23,-1
 715 302 l 1,24,-1
 516 334 l 1,25,-1
 526 395 l 1,26,-1
 968 395 l 1,27,-1
 958 334 l 1,28,-1
 860 307 l 1,29,-1
 860 34 l 1,30,31
 702 -26 702 -26 474 -26 c 0,32,33
 274 -26 274 -26 158 96 c 128,-1,34
 42 218 42 218 42 421 c 0,0,1
EndSplineSet
EndChar

StartChar: germandbls
Encoding: 223 223 112
Width: 1069
VWidth: 845
Flags: MW
LayerCount: 2
Back
SplineSet
247.194 76 m 0,0,1
 247.194 100.358 247.194 100.358 263.084 130.4 c 0
 278.974 160.442 278.974 160.442 292.694 164.5 c 1,2,3
 305.558 65.5 305.558 65.5 477.194 65.5 c 0,4,5
 499.617 65.5 499.617 65.5 520.216 162.121 c 0
 540.816 258.742 540.816 258.742 550.505 350.379 c 0
 560.194 442.017 560.194 442.017 560.194 469 c 0,6,7
 560.194 491.685 560.194 491.685 539.009 512.811 c 0
 517.824 533.937 517.824 533.937 486.046 549.585 c 0
 454.268 565.233 454.268 565.233 417.194 583.964 c 0
 380.12 602.694 380.12 602.694 348.342 620.196 c 0
 316.564 637.698 316.564 637.698 295.379 662.95 c 0
 274.194 688.201 274.194 688.201 274.194 716.5 c 0,8,9
 274.194 748.338 274.194 748.338 288.179 781.751 c 0
 302.164 815.164 302.164 815.164 333.876 841.082 c 0
 365.587 867 365.587 867 407.194 867 c 0,10,11
 442.376 867 442.376 867 484.28 856.555 c 0
 526.184 846.109 526.184 846.109 557.939 826.612 c 0
 589.694 807.115 589.694 807.115 589.694 785.5 c 1,12,13
 601.248 861.824 601.248 861.824 648.821 908.787 c 0
 696.395 955.749 696.395 955.749 742.194 954.5 c 0,14,15
 759.25 954.5 759.25 954.5 767.409 954.294 c 0
 775.568 954.088 775.568 954.088 788.208 953.039 c 0
 800.849 951.99 800.849 951.99 806.775 949.479 c 0
 812.7 946.969 812.7 946.969 819.393 942.669 c 0
 826.087 938.369 826.087 938.369 828.64 931.331 c 0
 831.194 924.294 831.194 924.294 831.194 914.5 c 1,16,17
 805.974 963.509 805.974 963.509 697.5 953.362 c 1,18,19
 578.731 998.612 578.731 998.612 536.694 950 c 1,20,21
 526.52 920.991 526.52 920.991 538.501 891.725 c 0
 550.481 862.459 550.481 862.459 575.232 833.435 c 0
 599.982 804.412 599.982 804.412 625.957 772.285 c 0
 651.932 740.157 651.932 740.157 671.088 692.755 c 0
 690.245 645.354 690.245 645.354 689.695 592 c 0,22,23
 689.695 533.54 689.695 533.54 644.625 476.02 c 0
 599.555 418.5 599.555 418.5 544.194 418.5 c 0,24,25
 506.581 418.5 506.581 418.5 381.78 242.769 c 0
 280.901 100.723 280.901 100.723 272.971 91.0193 c 0
 247.194 59.4728 247.194 59.4728 247.194 76 c 0,0,1
EndSplineSet
Fore
SplineSet
20 0 m 1,0,-1
 26 58 l 1,1,-1
 168 91 l 1,2,-1
 168 538 l 2,3,4
 168 642 168 642 203 720.5 c 128,-1,5
 238 799 238 799 303 846.5 c 128,-1,6
 368 894 368 894 455 917.5 c 128,-1,7
 542 941 542 941 650 941 c 0,8,9
 712 941 712 941 770.5 932 c 128,-1,10
 829 923 829 923 882 905 c 128,-1,11
 935 887 935 887 967.5 853.5 c 128,-1,12
 1000 820 1000 820 1000 776 c 0,13,14
 1000 693 1000 693 896 671 c 1,15,16
 851 863 851 863 715 863 c 0,17,18
 656 863 656 863 617 828 c 128,-1,19
 578 793 578 793 578 728 c 0,20,21
 578 681 578 681 603.5 642 c 128,-1,22
 629 603 629 603 670 574.5 c 128,-1,23
 711 546 711 546 761 519.5 c 128,-1,24
 811 493 811 493 860.5 465.5 c 128,-1,25
 910 438 910 438 951.5 407.5 c 128,-1,26
 993 377 993 377 1018.5 334 c 128,-1,27
 1044 291 1044 291 1044 240 c 0,28,29
 1044 124 1044 124 948 49.5 c 128,-1,30
 852 -25 852 -25 708 -25 c 0,31,32
 518 -25 518 -25 430 54 c 1,33,-1
 461 302 l 1,34,-1
 536 290 l 1,35,-1
 554 126 l 1,36,37
 584 91 584 91 626 73.5 c 128,-1,38
 668 56 668 56 742 56 c 0,39,40
 806 56 806 56 854 88 c 128,-1,41
 902 120 902 120 902 180 c 0,42,43
 902 219 902 219 877.5 252 c 128,-1,44
 853 285 853 285 813 310.5 c 128,-1,45
 773 336 773 336 724.5 361 c 128,-1,46
 676 386 676 386 627.5 414 c 128,-1,47
 579 442 579 442 539 474 c 128,-1,48
 499 506 499 506 474 552 c 128,-1,49
 449 598 449 598 449 653 c 0,50,51
 449 740 449 740 495 799 c 128,-1,52
 541 858 541 858 605 880 c 1,53,-1
 606 883 l 1,54,55
 456 878 456 878 385 805 c 128,-1,56
 314 732 314 732 314 562 c 2,57,-1
 314 0 l 1,58,-1
 20 0 l 1,0,-1
EndSplineSet
AlternateSubs2: "Alternate Substitution in Latin lookup 0-1" germandbls.alt
EndChar

StartChar: grave
Encoding: 96 96 113
Width: 459
VWidth: 0
Flags: MW
LayerCount: 2
Fore
SplineSet
100 1660 m 1,0,-1
 204 1698 l 1,1,-1
 337 1363 l 1,2,-1
 286 1332 l 1,3,-1
 100 1660 l 1,0,-1
EndSplineSet
EndChar

StartChar: greater
Encoding: 62 62 114
Width: 737
VWidth: 0
Flags: MW
LayerCount: 2
Fore
SplineSet
52 -25 m 1,0,-1
 542 439 l 1,1,-1
 71 913 l 1,2,-1
 107 973 l 1,3,-1
 726 464 l 1,4,-1
 728 420 l 1,5,-1
 94 -82 l 1,6,-1
 52 -25 l 1,0,-1
EndSplineSet
EndChar

StartChar: guillemotleft
Encoding: 171 171 115
Width: 643
VWidth: 0
Flags: MW
LayerCount: 2
Fore
SplineSet
269 469 m 1,0,-1
 537 821 l 1,1,-1
 574 774 l 1,2,-1
 397 462 l 1,3,-1
 574 128 l 1,4,-1
 532 78 l 1,5,-1
 271 449 l 1,6,-1
 269 469 l 1,0,-1
22 469 m 1,7,-1
 290 821 l 1,8,-1
 326 774 l 1,9,-1
 150 462 l 1,10,-1
 327 128 l 1,11,-1
 285 78 l 1,12,-1
 24 449 l 1,13,-1
 22 469 l 1,7,-1
EndSplineSet
EndChar

StartChar: guillemotright
Encoding: 187 187 116
Width: 653
VWidth: 0
Flags: MW
LayerCount: 2
Fore
SplineSet
358 469 m 1,0,-1
 356 449 l 1,1,-1
 94 78 l 1,2,-1
 52 128 l 1,3,-1
 230 462 l 1,4,-1
 54 774 l 1,5,-1
 90 821 l 1,6,-1
 358 469 l 1,0,-1
605 469 m 1,7,-1
 603 449 l 1,8,-1
 342 78 l 1,9,-1
 300 128 l 1,10,-1
 477 462 l 1,11,-1
 301 774 l 1,12,-1
 336 821 l 1,13,-1
 605 469 l 1,7,-1
EndSplineSet
EndChar

StartChar: guilsinglleft
Encoding: 8249 8249 117
Width: 405
VWidth: 0
Flags: MW
LayerCount: 2
Fore
SplineSet
49 469 m 1,0,-1
 317 821 l 1,1,-1
 353 774 l 1,2,-1
 177 461 l 1,3,-1
 354 128 l 1,4,-1
 312 77 l 1,5,-1
 51 449 l 1,6,-1
 49 469 l 1,0,-1
EndSplineSet
EndChar

StartChar: guilsinglright
Encoding: 8250 8250 118
Width: 406
VWidth: 0
Flags: MW
LayerCount: 2
Fore
SplineSet
359 469 m 1,0,-1
 357 449 l 1,1,-1
 96 77 l 1,2,-1
 54 128 l 1,3,-1
 231 461 l 1,4,-1
 55 774 l 1,5,-1
 91 821 l 1,6,-1
 359 469 l 1,0,-1
EndSplineSet
EndChar

StartChar: h
Encoding: 104 104 119
Width: 1150
VWidth: 845
Flags: MW
LayerCount: 2
Fore
SplineSet
43 864 m 1,0,-1
 50 922 l 1,1,-1
 490 922 l 1,2,-1
 482 864 l 1,3,-1
 344 834 l 1,4,-1
 344 497 l 1,5,-1
 802 497 l 1,6,-1
 802 831 l 1,7,-1
 648 864 l 1,8,-1
 658 922 l 1,9,-1
 1098 922 l 1,10,-1
 1088 864 l 1,11,-1
 951 834 l 1,12,-1
 951 90 l 1,13,-1
 1104 63 l 1,14,-1
 1095 0 l 1,15,-1
 657 0 l 1,16,-1
 666 58 l 1,17,-1
 802 96 l 1,18,-1
 802 416 l 1,19,-1
 344 416 l 1,20,-1
 344 90 l 1,21,-1
 499 63 l 1,22,-1
 487 0 l 1,23,-1
 50 0 l 1,24,-1
 57 58 l 1,25,-1
 194 96 l 1,26,-1
 194 831 l 1,27,-1
 43 864 l 1,0,-1
EndSplineSet
EndChar

StartChar: hyphen
Encoding: 45 45 120
Width: 562
VWidth: 0
Flags: MW
LayerCount: 2
Fore
SplineSet
74 408 m 1,0,-1
 84 489 l 1,1,-1
 491 507 l 1,2,-1
 481 426 l 1,3,-1
 74 408 l 1,0,-1
EndSplineSet
EndChar

StartChar: i
Encoding: 105 105 121
Width: 543
VWidth: 845
Flags: MW
LayerCount: 2
Fore
SplineSet
42 864 m 1,0,-1
 50 922 l 1,1,-1
 491 922 l 1,2,-1
 482 864 l 1,3,-1
 340 834 l 1,4,-1
 340 90 l 1,5,-1
 498 63 l 1,6,-1
 488 0 l 1,7,-1
 50 0 l 1,8,-1
 57 58 l 1,9,-1
 190 96 l 1,10,-1
 190 831 l 1,11,-1
 42 864 l 1,0,-1
EndSplineSet
EndChar

StartChar: iacute
Encoding: 237 237 122
Width: 543
VWidth: 0
Flags: MW
LayerCount: 2
Fore
SplineSet
206 1031 m 1,0,-1
 334 1362 l 1,1,-1
 438 1323 l 1,2,-1
 255 1002 l 1,3,-1
 206 1031 l 1,0,-1
42 864 m 1,4,-1
 50 922 l 1,5,-1
 491 922 l 1,6,-1
 482 864 l 1,7,-1
 340 834 l 1,8,-1
 340 90 l 1,9,-1
 498 63 l 1,10,-1
 488 0 l 1,11,-1
 50 0 l 1,12,-1
 57 58 l 1,13,-1
 190 96 l 1,14,-1
 190 831 l 1,15,-1
 42 864 l 1,4,-1
EndSplineSet
EndChar

StartChar: icircumflex
Encoding: 238 238 123
Width: 543
VWidth: 0
Flags: MW
LayerCount: 2
Fore
SplineSet
71 1032 m 1,0,-1
 238 1212 l 1,1,-1
 292 1226 l 1,2,-1
 472 1040 l 1,3,-1
 431 1003 l 1,4,-1
 258 1126 l 1,5,-1
 249 1126 l 1,6,-1
 100 1002 l 1,7,-1
 71 1032 l 1,0,-1
42 864 m 1,8,-1
 50 922 l 1,9,-1
 491 922 l 1,10,-1
 482 864 l 1,11,-1
 340 834 l 1,12,-1
 340 90 l 1,13,-1
 498 63 l 1,14,-1
 488 0 l 1,15,-1
 50 0 l 1,16,-1
 57 58 l 1,17,-1
 190 96 l 1,18,-1
 190 831 l 1,19,-1
 42 864 l 1,8,-1
EndSplineSet
EndChar

StartChar: idieresis
Encoding: 239 239 124
Width: 543
VWidth: 0
Flags: MW
LayerCount: 2
Fore
SplineSet
336 1100 m 0,0,1
 336 1136 336 1136 355.5 1157 c 128,-1,2
 375 1178 375 1178 405 1178 c 0,3,4
 436 1178 436 1178 457 1156.5 c 128,-1,5
 478 1135 478 1135 478 1100 c 0,6,7
 478 1062 478 1062 458 1040 c 128,-1,8
 438 1018 438 1018 406 1018 c 0,9,10
 374 1018 374 1018 355 1040.5 c 128,-1,11
 336 1063 336 1063 336 1100 c 0,0,1
67 1100 m 0,12,13
 67 1136 67 1136 87 1157 c 128,-1,14
 107 1178 107 1178 137 1178 c 0,15,16
 168 1178 168 1178 188.5 1157 c 128,-1,17
 209 1136 209 1136 209 1100 c 0,18,19
 209 1062 209 1062 190 1040 c 128,-1,20
 171 1018 171 1018 138 1018 c 0,21,22
 106 1018 106 1018 86.5 1040.5 c 128,-1,23
 67 1063 67 1063 67 1100 c 0,12,13
42 864 m 1,24,-1
 50 922 l 1,25,-1
 491 922 l 1,26,-1
 482 864 l 1,27,-1
 340 834 l 1,28,-1
 340 90 l 1,29,-1
 498 63 l 1,30,-1
 488 0 l 1,31,-1
 50 0 l 1,32,-1
 57 58 l 1,33,-1
 190 96 l 1,34,-1
 190 831 l 1,35,-1
 42 864 l 1,24,-1
EndSplineSet
EndChar

StartChar: igrave
Encoding: 236 236 125
Width: 543
VWidth: 0
Flags: MW
LayerCount: 2
Fore
SplineSet
85 1322 m 1,0,-1
 190 1360 l 1,1,-1
 322 1025 l 1,2,-1
 270 994 l 1,3,-1
 85 1322 l 1,0,-1
42 864 m 1,4,-1
 50 922 l 1,5,-1
 491 922 l 1,6,-1
 482 864 l 1,7,-1
 340 834 l 1,8,-1
 340 90 l 1,9,-1
 498 63 l 1,10,-1
 488 0 l 1,11,-1
 50 0 l 1,12,-1
 57 58 l 1,13,-1
 190 96 l 1,14,-1
 190 831 l 1,15,-1
 42 864 l 1,4,-1
EndSplineSet
EndChar

StartChar: j
Encoding: 106 106 126
Width: 573
VWidth: 845
Flags: MW
LayerCount: 2
Fore
SplineSet
-9 -259 m 1,0,1
 76 -192 76 -192 127 -131.5 c 128,-1,2
 178 -71 178 -71 206 5.5 c 128,-1,3
 234 82 234 82 234 176 c 2,4,-1
 234 831 l 1,5,-1
 84 864 l 1,6,-1
 92 922 l 1,7,-1
 534 922 l 1,8,-1
 526 864 l 1,9,-1
 387 834 l 1,10,-1
 385 284 l 2,11,12
 385 196 385 196 377.5 129 c 128,-1,13
 370 62 370 62 351.5 5.5 c 128,-1,14
 333 -51 333 -51 308 -92.5 c 128,-1,15
 283 -134 283 -134 240 -175 c 128,-1,16
 197 -216 197 -216 149 -250 c 128,-1,17
 101 -284 101 -284 29 -326 c 1,18,-1
 -9 -259 l 1,0,1
EndSplineSet
EndChar

StartChar: k
Encoding: 107 107 127
Width: 1066
VWidth: 845
Flags: MW
LayerCount: 2
Fore
SplineSet
388 463 m 1,0,1
 463 538 463 538 529 610 c 1,2,-1
 741 832 l 1,3,-1
 616 864 l 1,4,-1
 622 922 l 1,5,-1
 996 922 l 1,6,-1
 989 863 l 1,7,-1
 858 832 l 1,8,-1
 526 483 l 1,9,-1
 635 344 l 2,10,11
 734 218 734 218 816.5 150 c 128,-1,12
 899 82 899 82 980 64 c 2,13,-1
 1018 56 l 1,14,-1
 1012 0 l 1,15,16
 960 -20 960 -20 900 -20 c 0,17,18
 840 -20 840 -20 786.5 -0.5 c 128,-1,19
 733 19 733 19 686.5 57.5 c 128,-1,20
 640 96 640 96 602 140 c 128,-1,21
 564 184 564 184 524 244 c 2,22,-1
 389 445 l 1,23,-1
 388 463 l 1,0,1
42 864 m 1,24,-1
 52 922 l 1,25,-1
 488 922 l 1,26,-1
 482 864 l 1,27,-1
 344 830 l 1,28,-1
 344 94 l 1,29,-1
 511 63 l 1,30,-1
 504 0 l 1,31,-1
 50 0 l 1,32,-1
 58 58 l 1,33,-1
 193 100 l 1,34,-1
 193 826 l 1,35,-1
 42 864 l 1,24,-1
EndSplineSet
EndChar

StartChar: l
Encoding: 108 108 128
Width: 898
VWidth: 845
Flags: MW
LayerCount: 2
Fore
SplineSet
45 864 m 1,0,-1
 54 922 l 1,1,-1
 501 922 l 1,2,-1
 494 864 l 1,3,-1
 346 830 l 1,4,-1
 346 75 l 1,5,-1
 706 75 l 1,6,-1
 786 292 l 1,7,-1
 860 280 l 1,8,-1
 840 0 l 1,9,-1
 50 0 l 1,10,-1
 58 58 l 1,11,-1
 195 96 l 1,12,-1
 195 826 l 1,13,-1
 45 864 l 1,0,-1
EndSplineSet
EndChar

StartChar: less
Encoding: 60 60 129
Width: 729
VWidth: 0
Flags: MW
LayerCount: 2
Fore
SplineSet
735 -25 m 1,0,-1
 692 -82 l 1,1,-1
 58 420 l 1,2,-1
 60 464 l 1,3,-1
 680 973 l 1,4,-1
 716 913 l 1,5,-1
 245 439 l 1,6,-1
 735 -25 l 1,0,-1
EndSplineSet
EndChar

StartChar: logicalnot
Encoding: 172 172 130
Width: 894
VWidth: 0
Flags: MW
LayerCount: 2
Fore
SplineSet
64 584 m 1,0,-1
 76 664 l 1,1,-1
 821 664 l 1,2,-1
 822 351 l 1,3,-1
 733 332 l 1,4,-1
 733 584 l 1,5,-1
 64 584 l 1,0,-1
EndSplineSet
EndChar

StartChar: m
Encoding: 109 109 131
Width: 1386
VWidth: 845
Flags: MW
LayerCount: 2
Fore
SplineSet
37 0 m 1,0,-1
 45 54 l 1,1,-1
 182 92 l 1,2,-1
 230 828 l 1,3,-1
 77 866 l 1,4,-1
 86 922 l 1,5,-1
 409 922 l 1,6,-1
 491 731 l 1,7,-1
 688 274 l 1,8,-1
 907 769 l 1,9,-1
 977 922 l 1,10,-1
 1309 922 l 1,11,-1
 1302 866 l 1,12,-1
 1162 832 l 1,13,-1
 1192 87 l 1,14,-1
 1344 60 l 1,15,-1
 1338 0 l 1,16,-1
 894 0 l 1,17,-1
 902 54 l 1,18,-1
 1046 92 l 1,19,-1
 1018 779 l 1,20,-1
 699 60 l 1,21,-1
 610 46 l 1,22,-1
 318 742 l 1,23,-1
 282 88 l 1,24,-1
 434 58 l 1,25,-1
 424 0 l 1,26,-1
 37 0 l 1,0,-1
EndSplineSet
EndChar

StartChar: macron
Encoding: 175 175 132
Width: 623
VWidth: 0
Flags: MW
LayerCount: 2
Fore
SplineSet
86 1380 m 1,0,-1
 97 1456 l 1,1,-1
 538 1456 l 1,2,-1
 528 1380 l 1,3,-1
 86 1380 l 1,0,-1
EndSplineSet
EndChar

StartChar: multiply
Encoding: 215 215 133
Width: 558
VWidth: 0
Flags: MW
LayerCount: 2
Fore
SplineSet
51 302 m 1,0,-1
 221 462 l 1,1,-1
 52 625 l 1,2,-1
 123 681 l 1,3,-1
 281 514 l 1,4,-1
 450 686 l 1,5,-1
 506 615 l 1,6,-1
 338 458 l 1,7,-1
 511 292 l 1,8,-1
 441 236 l 1,9,-1
 277 407 l 1,10,-1
 108 232 l 1,11,-1
 51 302 l 1,0,-1
EndSplineSet
EndChar

StartChar: n
Encoding: 110 110 134
Width: 1101
VWidth: 845
Flags: MW
LayerCount: 2
Fore
SplineSet
42 866 m 1,0,-1
 52 922 l 1,1,-1
 333 922 l 1,2,-1
 826 231 l 1,3,-1
 826 831 l 1,4,-1
 674 864 l 1,5,-1
 682 922 l 1,6,-1
 1086 922 l 1,7,-1
 1075 864 l 1,8,-1
 924 834 l 1,9,-1
 924 2 l 1,10,-1
 820 -19 l 1,11,-1
 296 715 l 1,12,-1
 296 90 l 1,13,-1
 450 63 l 1,14,-1
 440 0 l 1,15,-1
 52 0 l 1,16,-1
 58 58 l 1,17,-1
 196 96 l 1,18,-1
 196 824 l 1,19,-1
 42 866 l 1,0,-1
EndSplineSet
EndChar

StartChar: nine
Encoding: 57 57 136
Width: 779
VWidth: 0
Flags: MW
LayerCount: 2
Fore
SplineSet
189 602 m 0,0,1
 189 466 189 466 241 390.5 c 128,-1,2
 293 315 293 315 395 315 c 0,3,4
 456 315 456 315 503 339 c 128,-1,5
 550 363 550 363 574 398 c 1,6,7
 581 436 581 436 581 540 c 0,8,9
 581 694 581 694 523 793.5 c 128,-1,10
 465 893 465 893 375 893 c 0,11,12
 189 893 189 893 189 602 c 0,0,1
38 576 m 0,13,14
 38 681 38 681 85.5 769 c 128,-1,15
 133 857 133 857 214.5 907.5 c 128,-1,16
 296 958 296 958 394 958 c 0,17,18
 469 958 469 958 528.5 934 c 128,-1,19
 588 910 588 910 626 868.5 c 128,-1,20
 664 827 664 827 689 769 c 128,-1,21
 714 711 714 711 724 647.5 c 128,-1,22
 734 584 734 584 734 511 c 0,23,24
 734 346 734 346 656.5 185.5 c 128,-1,25
 579 25 579 25 443.5 -96.5 c 128,-1,26
 308 -218 308 -218 144 -272 c 1,27,-1
 121 -212 l 1,28,29
 204 -174 204 -174 272.5 -125.5 c 128,-1,30
 341 -77 341 -77 388.5 -26 c 128,-1,31
 436 25 436 25 472.5 85.5 c 128,-1,32
 509 146 509 146 531.5 202 c 128,-1,33
 554 258 554 258 570 322 c 1,34,-1
 560 322 l 1,35,36
 464 222 464 222 322 222 c 0,37,38
 231 222 231 222 166 268.5 c 128,-1,39
 101 315 101 315 69.5 394 c 128,-1,40
 38 473 38 473 38 576 c 0,13,14
EndSplineSet
EndChar

StartChar: ntilde
Encoding: 241 241 137
Width: 1101
VWidth: 0
Flags: MW
LayerCount: 2
Fore
SplineSet
301 1031 m 1,0,1
 314 1097 314 1097 361 1141.5 c 128,-1,2
 408 1186 408 1186 468 1168 c 1,3,-1
 618 1133 l 1,4,5
 652 1116 652 1116 683 1128 c 128,-1,6
 714 1140 714 1140 729 1184 c 1,7,-1
 770 1178 l 1,8,9
 764 1149 764 1149 750 1121.5 c 128,-1,10
 736 1094 736 1094 713.5 1070.5 c 128,-1,11
 691 1047 691 1047 662.5 1039 c 128,-1,12
 634 1031 634 1031 598 1041 c 1,13,-1
 449 1077 l 1,14,15
 414 1094 414 1094 383.5 1081 c 128,-1,16
 353 1068 353 1068 336 1022 c 1,17,-1
 301 1031 l 1,0,1
42 866 m 1,18,-1
 52 922 l 1,19,-1
 333 922 l 1,20,-1
 826 231 l 1,21,-1
 826 831 l 1,22,-1
 674 864 l 1,23,-1
 682 922 l 1,24,-1
 1086 922 l 1,25,-1
 1075 864 l 1,26,-1
 924 834 l 1,27,-1
 924 2 l 1,28,-1
 820 -19 l 1,29,-1
 296 715 l 1,30,-1
 296 90 l 1,31,-1
 450 63 l 1,32,-1
 440 0 l 1,33,-1
 52 0 l 1,34,-1
 58 58 l 1,35,-1
 196 96 l 1,36,-1
 196 824 l 1,37,-1
 42 866 l 1,18,-1
EndSplineSet
EndChar

StartChar: numbersign
Encoding: 35 35 138
Width: 962
VWidth: 0
Flags: MW
LayerCount: 2
Fore
SplineSet
69 558 m 1,0,-1
 97 660 l 1,1,-1
 288 660 l 1,2,-1
 330 933 l 1,3,-1
 419 943 l 1,4,-1
 376 660 l 1,5,-1
 558 660 l 1,6,-1
 599 933 l 1,7,-1
 688 942 l 1,8,-1
 646 660 l 1,9,-1
 852 660 l 1,10,-1
 828 558 l 1,11,-1
 630 558 l 1,12,-1
 598 346 l 1,13,-1
 794 346 l 1,14,-1
 768 244 l 1,15,-1
 583 244 l 1,16,-1
 543 -19 l 1,17,-1
 454 -26 l 1,18,-1
 495 244 l 1,19,-1
 313 244 l 1,20,-1
 274 -19 l 1,21,-1
 184 -26 l 1,22,-1
 225 244 l 1,23,-1
 14 244 l 1,24,-1
 41 346 l 1,25,-1
 240 346 l 1,26,-1
 273 558 l 1,27,-1
 69 558 l 1,0,-1
361 558 m 1,28,-1
 329 346 l 1,29,-1
 510 346 l 1,30,-1
 542 558 l 1,31,-1
 361 558 l 1,28,-1
EndSplineSet
EndChar

StartChar: o
Encoding: 111 111 139
Width: 1001
VWidth: 845
Flags: MW
LayerCount: 2
Fore
SplineSet
200 497 m 0,0,1
 200 373 200 373 238 274 c 128,-1,2
 276 175 276 175 348 116.5 c 128,-1,3
 420 58 420 58 516 58 c 0,4,5
 594 58 594 58 653.5 87.5 c 128,-1,6
 713 117 713 117 747.5 168.5 c 128,-1,7
 782 220 782 220 798.5 283.5 c 128,-1,8
 815 347 815 347 815 421 c 0,9,10
 815 509 815 509 794 588.5 c 128,-1,11
 773 668 773 668 734 730 c 128,-1,12
 695 792 695 792 634 828 c 128,-1,13
 573 864 573 864 498 864 c 0,14,15
 419 864 419 864 360 836 c 128,-1,16
 301 808 301 808 267 756.5 c 128,-1,17
 233 705 233 705 216.5 640.5 c 128,-1,18
 200 576 200 576 200 497 c 0,0,1
42 444 m 0,19,20
 42 588 42 588 101.5 700.5 c 128,-1,21
 161 813 161 813 273.5 876.5 c 128,-1,22
 386 940 386 940 536 940 c 0,23,24
 639 940 639 940 722.5 903 c 128,-1,25
 806 866 806 866 860.5 801.5 c 128,-1,26
 915 737 915 737 944.5 650.5 c 128,-1,27
 974 564 974 564 974 465 c 0,28,29
 974 390 974 390 954.5 319 c 128,-1,30
 935 248 935 248 894.5 185.5 c 128,-1,31
 854 123 854 123 796.5 75.5 c 128,-1,32
 739 28 739 28 658.5 0.5 c 128,-1,33
 578 -27 578 -27 482 -27 c 0,34,35
 352 -27 352 -27 251 36.5 c 128,-1,36
 150 100 150 100 96 207 c 128,-1,37
 42 314 42 314 42 444 c 0,19,20
EndSplineSet
EndChar

StartChar: oacute
Encoding: 243 243 140
Width: 952
VWidth: 0
Flags: MW
LayerCount: 2
Fore
SplineSet
451 1029 m 1,0,-1
 579 1360 l 1,1,-1
 682 1321 l 1,2,-1
 499 1000 l 1,3,-1
 451 1029 l 1,0,-1
190 497 m 0,4,5
 190 373 190 373 227.5 274 c 128,-1,6
 265 175 265 175 336.5 116.5 c 128,-1,7
 408 58 408 58 504 58 c 0,8,9
 582 58 582 58 642 87.5 c 128,-1,10
 702 117 702 117 736.5 168.5 c 128,-1,11
 771 220 771 220 787.5 283.5 c 128,-1,12
 804 347 804 347 804 421 c 0,13,14
 804 509 804 509 783 588.5 c 128,-1,15
 762 668 762 668 723 730 c 128,-1,16
 684 792 684 792 623 828 c 128,-1,17
 562 864 562 864 487 864 c 0,18,19
 408 864 408 864 349 836 c 128,-1,20
 290 808 290 808 256 756.5 c 128,-1,21
 222 705 222 705 206 640.5 c 128,-1,22
 190 576 190 576 190 497 c 0,4,5
31 444 m 0,23,24
 31 588 31 588 90.5 700.5 c 128,-1,25
 150 813 150 813 262.5 876.5 c 128,-1,26
 375 940 375 940 525 940 c 0,27,28
 628 940 628 940 711.5 903 c 128,-1,29
 795 866 795 866 849.5 801.5 c 128,-1,30
 904 737 904 737 933.5 650.5 c 128,-1,31
 963 564 963 564 963 465 c 0,32,33
 963 390 963 390 943.5 319 c 128,-1,34
 924 248 924 248 883.5 185.5 c 128,-1,35
 843 123 843 123 785.5 75.5 c 128,-1,36
 728 28 728 28 647 0.5 c 128,-1,37
 566 -27 566 -27 470 -27 c 0,38,39
 340 -27 340 -27 239.5 36.5 c 128,-1,40
 139 100 139 100 85 207 c 128,-1,41
 31 314 31 314 31 444 c 0,23,24
EndSplineSet
EndChar

StartChar: ocircumflex
Encoding: 244 244 141
Width: 952
VWidth: 0
Flags: MW
LayerCount: 2
Fore
SplineSet
307 1043 m 1,0,-1
 474 1223 l 1,1,-1
 529 1237 l 1,2,-1
 708 1051 l 1,3,-1
 667 1014 l 1,4,-1
 495 1136 l 1,5,-1
 485 1136 l 1,6,-1
 337 1013 l 1,7,-1
 307 1043 l 1,0,-1
190 497 m 0,8,9
 190 373 190 373 227.5 274 c 128,-1,10
 265 175 265 175 336.5 116.5 c 128,-1,11
 408 58 408 58 504 58 c 0,12,13
 582 58 582 58 642 87.5 c 128,-1,14
 702 117 702 117 736.5 168.5 c 128,-1,15
 771 220 771 220 787.5 283.5 c 128,-1,16
 804 347 804 347 804 421 c 0,17,18
 804 509 804 509 783 588.5 c 128,-1,19
 762 668 762 668 723 730 c 128,-1,20
 684 792 684 792 623 828 c 128,-1,21
 562 864 562 864 487 864 c 0,22,23
 408 864 408 864 349 836 c 128,-1,24
 290 808 290 808 256 756.5 c 128,-1,25
 222 705 222 705 206 640.5 c 128,-1,26
 190 576 190 576 190 497 c 0,8,9
31 444 m 0,27,28
 31 588 31 588 90.5 700.5 c 128,-1,29
 150 813 150 813 262.5 876.5 c 128,-1,30
 375 940 375 940 525 940 c 0,31,32
 628 940 628 940 711.5 903 c 128,-1,33
 795 866 795 866 849.5 801.5 c 128,-1,34
 904 737 904 737 933.5 650.5 c 128,-1,35
 963 564 963 564 963 465 c 0,36,37
 963 390 963 390 943.5 319 c 128,-1,38
 924 248 924 248 883.5 185.5 c 128,-1,39
 843 123 843 123 785.5 75.5 c 128,-1,40
 728 28 728 28 647 0.5 c 128,-1,41
 566 -27 566 -27 470 -27 c 0,42,43
 340 -27 340 -27 239.5 36.5 c 128,-1,44
 139 100 139 100 85 207 c 128,-1,45
 31 314 31 314 31 444 c 0,27,28
EndSplineSet
EndChar

StartChar: odieresis
Encoding: 246 246 142
Width: 952
VWidth: 0
Flags: MW
LayerCount: 2
Fore
SplineSet
568 1105 m 0,0,1
 568 1141 568 1141 588 1161.5 c 128,-1,2
 608 1182 608 1182 638 1182 c 0,3,4
 669 1182 669 1182 689.5 1161 c 128,-1,5
 710 1140 710 1140 710 1105 c 0,6,7
 710 1067 710 1067 690 1045.5 c 128,-1,8
 670 1024 670 1024 638 1024 c 0,9,10
 606 1024 606 1024 587 1046 c 128,-1,11
 568 1068 568 1068 568 1105 c 0,0,1
300 1105 m 0,12,13
 300 1141 300 1141 320 1161.5 c 128,-1,14
 340 1182 340 1182 370 1182 c 0,15,16
 401 1182 401 1182 421.5 1161.5 c 128,-1,17
 442 1141 442 1141 442 1105 c 0,18,19
 442 1067 442 1067 423 1045.5 c 128,-1,20
 404 1024 404 1024 371 1024 c 0,21,22
 339 1024 339 1024 319.5 1046 c 128,-1,23
 300 1068 300 1068 300 1105 c 0,12,13
190 497 m 0,24,25
 190 308 190 308 276 183 c 128,-1,26
 362 58 362 58 505 58 c 0,27,28
 569 58 569 58 620 77.5 c 128,-1,29
 671 97 671 97 705 130.5 c 128,-1,30
 739 164 739 164 761.5 211 c 128,-1,31
 784 258 784 258 794 310 c 128,-1,32
 804 362 804 362 804 421 c 0,33,34
 804 509 804 509 783 588.5 c 128,-1,35
 762 668 762 668 723 730 c 128,-1,36
 684 792 684 792 623 828 c 128,-1,37
 562 864 562 864 488 864 c 0,38,39
 409 864 409 864 350 836 c 128,-1,40
 291 808 291 808 257 756.5 c 128,-1,41
 223 705 223 705 206.5 640.5 c 128,-1,42
 190 576 190 576 190 497 c 0,24,25
32 444 m 0,43,44
 32 588 32 588 91 700.5 c 128,-1,45
 150 813 150 813 263 876.5 c 128,-1,46
 376 940 376 940 526 940 c 0,47,48
 629 940 629 940 712.5 903 c 128,-1,49
 796 866 796 866 850.5 801.5 c 128,-1,50
 905 737 905 737 934.5 650.5 c 128,-1,51
 964 564 964 564 964 465 c 0,52,53
 964 390 964 390 944.5 319 c 128,-1,54
 925 248 925 248 884 185.5 c 128,-1,55
 843 123 843 123 786 75.5 c 128,-1,56
 729 28 729 28 647.5 0.5 c 128,-1,57
 566 -27 566 -27 471 -27 c 0,58,59
 341 -27 341 -27 240 36.5 c 128,-1,60
 139 100 139 100 85.5 207 c 128,-1,61
 32 314 32 314 32 444 c 0,43,44
EndSplineSet
EndChar

StartChar: ograve
Encoding: 242 242 143
Width: 952
VWidth: 0
Flags: MW
LayerCount: 2
Fore
SplineSet
312 1322 m 1,0,-1
 416 1360 l 1,1,-1
 549 1025 l 1,2,-1
 498 994 l 1,3,-1
 312 1322 l 1,0,-1
190 497 m 0,4,5
 190 373 190 373 227.5 274 c 128,-1,6
 265 175 265 175 336.5 116.5 c 128,-1,7
 408 58 408 58 504 58 c 0,8,9
 582 58 582 58 642 87.5 c 128,-1,10
 702 117 702 117 736.5 168.5 c 128,-1,11
 771 220 771 220 787.5 283.5 c 128,-1,12
 804 347 804 347 804 421 c 0,13,14
 804 509 804 509 783 588.5 c 128,-1,15
 762 668 762 668 723 730 c 128,-1,16
 684 792 684 792 623 828 c 128,-1,17
 562 864 562 864 487 864 c 0,18,19
 408 864 408 864 349 836 c 128,-1,20
 290 808 290 808 256 756.5 c 128,-1,21
 222 705 222 705 206 640.5 c 128,-1,22
 190 576 190 576 190 497 c 0,4,5
31 444 m 0,23,24
 31 588 31 588 90.5 700.5 c 128,-1,25
 150 813 150 813 262.5 876.5 c 128,-1,26
 375 940 375 940 525 940 c 0,27,28
 628 940 628 940 711.5 903 c 128,-1,29
 795 866 795 866 849.5 801.5 c 128,-1,30
 904 737 904 737 933.5 650.5 c 128,-1,31
 963 564 963 564 963 465 c 0,32,33
 963 390 963 390 943.5 319 c 128,-1,34
 924 248 924 248 883.5 185.5 c 128,-1,35
 843 123 843 123 785.5 75.5 c 128,-1,36
 728 28 728 28 647 0.5 c 128,-1,37
 566 -27 566 -27 470 -27 c 0,38,39
 340 -27 340 -27 239.5 36.5 c 128,-1,40
 139 100 139 100 85 207 c 128,-1,41
 31 314 31 314 31 444 c 0,23,24
EndSplineSet
EndChar

StartChar: one
Encoding: 49 49 144
Width: 602
VWidth: 0
Flags: MW
LayerCount: 2
Fore
SplineSet
25 2 m 1,0,-1
 31 61 l 1,1,-1
 244 103 l 1,2,-1
 244 820 l 1,3,-1
 44 821 l 1,4,-1
 51 882 l 1,5,-1
 357 946 l 1,6,-1
 384 946 l 1,7,-1
 384 98 l 1,8,-1
 599 69 l 1,9,-1
 592 2 l 1,10,-1
 25 2 l 1,0,-1
EndSplineSet
EndChar

StartChar: onehalf
Encoding: 189 189 145
Width: 1403
VWidth: 0
Flags: MW
LayerCount: 2
Fore
SplineSet
232 -26 m 1,0,-1
 608 588 l 1,1,-1
 962 1211 l 1,2,-1
 1098 1207 l 1,3,-1
 1096 1190 l 1,4,-1
 730 591 l 1,5,-1
 382 -40 l 1,6,-1
 232 -26 l 1,0,-1
45 550 m 1,7,-1
 48 610 l 1,8,-1
 206 633 l 1,9,-1
 206 1163 l 1,10,-1
 56 1163 l 1,11,-1
 60 1224 l 1,12,-1
 328 1260 l 1,13,-1
 347 1260 l 1,14,-1
 347 630 l 1,15,-1
 502 620 l 1,16,-1
 497 550 l 1,17,-1
 45 550 l 1,7,-1
808 78 m 1,18,-1
 962 202 l 2,19,20
 1070 290 1070 290 1118.5 355.5 c 128,-1,21
 1167 421 1167 421 1167 492 c 0,22,23
 1167 558 1167 558 1137.5 602 c 128,-1,24
 1108 646 1108 646 1044 646 c 0,25,26
 959 646 959 646 929 606 c 1,27,-1
 905 467 l 1,28,-1
 850 472 l 1,29,-1
 845 636 l 1,30,31
 872 676 872 676 941.5 701 c 128,-1,32
 1011 726 1011 726 1090 726 c 0,33,34
 1197 726 1197 726 1258.5 675 c 128,-1,35
 1320 624 1320 624 1320 526 c 0,36,37
 1320 494 1320 494 1311 463 c 128,-1,38
 1302 432 1302 432 1289 406 c 128,-1,39
 1276 380 1276 380 1250 350 c 128,-1,40
 1224 320 1224 320 1201.5 297.5 c 128,-1,41
 1179 275 1179 275 1138.5 242.5 c 128,-1,42
 1098 210 1098 210 1068.5 187.5 c 128,-1,43
 1039 165 1039 165 988 128 c 1,44,-1
 953 104 l 1,45,-1
 1246 104 l 1,46,-1
 1308 254 l 1,47,-1
 1354 242 l 1,48,-1
 1334 1 l 1,49,-1
 806 1 l 1,50,-1
 808 78 l 1,18,-1
EndSplineSet
EndChar

StartChar: onequarter
Encoding: 188 188 146
Width: 1329
VWidth: 0
Flags: MW
LayerCount: 2
Fore
SplineSet
242 -26 m 1,0,-1
 618 588 l 1,1,-1
 972 1211 l 1,2,-1
 1108 1207 l 1,3,-1
 1106 1190 l 1,4,-1
 740 591 l 1,5,-1
 392 -40 l 1,6,-1
 242 -26 l 1,0,-1
45 550 m 1,7,-1
 48 610 l 1,8,-1
 206 633 l 1,9,-1
 206 1163 l 1,10,-1
 56 1163 l 1,11,-1
 60 1224 l 1,12,-1
 328 1260 l 1,13,-1
 347 1260 l 1,14,-1
 347 630 l 1,15,-1
 502 620 l 1,16,-1
 497 550 l 1,17,-1
 45 550 l 1,7,-1
808 274 m 1,18,-1
 1012 274 l 1,19,-1
 1012 532 l 1,20,-1
 808 274 l 1,18,-1
702 250 m 1,21,-1
 1098 730 l 1,22,-1
 1148 721 l 1,23,24
 1140 626 1140 626 1140 425 c 2,25,-1
 1140 274 l 1,26,-1
 1288 274 l 1,27,-1
 1279 188 l 1,28,-1
 1140 188 l 1,29,-1
 1140 74 l 1,30,-1
 1259 55 l 1,31,-1
 1253 0 l 1,32,-1
 859 0 l 1,33,-1
 864 50 l 1,34,-1
 1014 76 l 1,35,-1
 1014 192 l 1,36,-1
 712 192 l 1,37,-1
 702 250 l 1,21,-1
EndSplineSet
EndChar

StartChar: one.superior
Encoding: 185 185 147
Width: 519
VWidth: 0
Flags: MW
LayerCount: 2
Fore
SplineSet
37 548 m 1,0,-1
 40 608 l 1,1,-1
 198 631 l 1,2,-1
 198 1161 l 1,3,-1
 48 1161 l 1,4,-1
 52 1222 l 1,5,-1
 320 1258 l 1,6,-1
 339 1258 l 1,7,-1
 339 628 l 1,8,-1
 494 618 l 1,9,-1
 489 548 l 1,10,-1
 37 548 l 1,0,-1
EndSplineSet
EndChar

StartChar: ordfeminine
Encoding: 170 170 148
Width: 748
VWidth: 0
Flags: MW
LayerCount: 2
Fore
SplineSet
222 725 m 0,0,1
 222 681 222 681 244 652.5 c 128,-1,2
 266 624 266 624 312 624 c 0,3,4
 397 624 397 624 460 714 c 1,5,-1
 460 900 l 1,6,7
 339 881 339 881 280.5 840 c 128,-1,8
 222 799 222 799 222 725 c 0,0,1
90 690 m 0,9,10
 90 739 90 739 110.5 782 c 128,-1,11
 131 825 131 825 173 862.5 c 128,-1,12
 215 900 215 900 289 924 c 128,-1,13
 363 948 363 948 460 950 c 1,14,-1
 460 980 l 2,15,16
 460 1025 460 1025 457 1056.5 c 128,-1,17
 454 1088 454 1088 446 1117.5 c 128,-1,18
 438 1147 438 1147 423.5 1164.5 c 128,-1,19
 409 1182 409 1182 385.5 1192 c 128,-1,20
 362 1202 362 1202 328 1202 c 0,21,22
 305 1202 305 1202 288.5 1194 c 128,-1,23
 272 1186 272 1186 262 1173.5 c 128,-1,24
 252 1161 252 1161 245 1135.5 c 128,-1,25
 238 1110 238 1110 234.5 1087 c 128,-1,26
 231 1064 231 1064 227 1023 c 1,27,28
 182 1020 182 1020 150 1043.5 c 128,-1,29
 118 1067 118 1067 118 1111 c 0,30,31
 118 1153 118 1153 159.5 1190 c 128,-1,32
 201 1227 201 1227 261 1247.5 c 128,-1,33
 321 1268 321 1268 379 1268 c 0,34,35
 483 1268 483 1268 533 1208 c 128,-1,36
 583 1148 583 1148 583 1022 c 2,37,-1
 583 756 l 2,38,39
 583 729 583 729 584 715 c 128,-1,40
 585 701 585 701 588.5 684 c 128,-1,41
 592 667 592 667 600 658.5 c 128,-1,42
 608 650 608 650 622 643 c 128,-1,43
 636 636 636 636 658 632 c 2,44,-1
 706 622 l 1,45,-1
 698 574 l 1,46,47
 658 542 658 542 600 543 c 0,48,49
 542 543 542 543 508 575.5 c 128,-1,50
 474 608 474 608 474 650 c 2,51,-1
 474 662 l 1,52,-1
 467 662 l 1,53,54
 458 643 458 643 442 623 c 128,-1,55
 426 603 426 603 401 583 c 128,-1,56
 376 563 376 563 338 550.5 c 128,-1,57
 300 538 300 538 256 538 c 0,58,59
 187 538 187 538 138.5 579 c 128,-1,60
 90 620 90 620 90 690 c 0,9,10
EndSplineSet
EndChar

StartChar: ordmasculine
Encoding: 186 186 149
Width: 832
VWidth: 0
Flags: MW
LayerCount: 2
Fore
SplineSet
219 944 m 0,0,1
 219 848 219 848 241 774 c 128,-1,2
 263 700 263 700 314.5 652 c 128,-1,3
 366 604 366 604 442 604 c 0,4,5
 526 604 526 604 569.5 677 c 128,-1,6
 613 750 613 750 613 862 c 0,7,8
 613 927 613 927 601 985 c 128,-1,9
 589 1043 589 1043 564 1092 c 128,-1,10
 539 1141 539 1141 496.5 1169.5 c 128,-1,11
 454 1198 454 1198 398 1198 c 0,12,13
 338 1198 338 1198 297 1163 c 128,-1,14
 256 1128 256 1128 237.5 1072.5 c 128,-1,15
 219 1017 219 1017 219 944 c 0,0,1
84 886 m 0,16,17
 84 974 84 974 112.5 1048 c 128,-1,18
 141 1122 141 1122 189.5 1170 c 128,-1,19
 238 1218 238 1218 301 1244 c 128,-1,20
 364 1270 364 1270 434 1270 c 0,21,22
 528 1270 528 1270 600 1222.5 c 128,-1,23
 672 1175 672 1175 710 1092.5 c 128,-1,24
 748 1010 748 1010 748 908 c 0,25,26
 748 744 748 744 650 640 c 128,-1,27
 552 536 552 536 413 536 c 0,28,29
 266 536 266 536 175 633 c 128,-1,30
 84 730 84 730 84 886 c 0,16,17
EndSplineSet
EndChar

StartChar: oslash
Encoding: 248 248 150
Width: 950
VWidth: 0
Flags: MW
LayerCount: 2
Fore
SplineSet
31 444 m 0,0,1
 31 588 31 588 90.5 700.5 c 128,-1,2
 150 813 150 813 262.5 876.5 c 128,-1,3
 375 940 375 940 525 940 c 0,4,5
 686 940 686 940 797 851 c 1,6,-1
 858 921 l 1,7,-1
 992 930 l 1,8,-1
 863 784 l 1,9,10
 963 655 963 655 963 465 c 0,11,12
 963 390 963 390 943.5 319 c 128,-1,13
 924 248 924 248 883.5 185.5 c 128,-1,14
 843 123 843 123 785.5 75.5 c 128,-1,15
 728 28 728 28 647 0.5 c 128,-1,16
 566 -27 566 -27 470 -27 c 0,17,18
 317 -27 317 -27 204 61 c 1,19,-1
 144 -6 l 1,20,-1
 6 -13 l 1,21,-1
 137 128 l 1,22,23
 31 258 31 258 31 444 c 0,0,1
283 173 m 1,24,25
 368 58 368 58 504 58 c 0,26,27
 582 58 582 58 642 87.5 c 128,-1,28
 702 117 702 117 736.5 168.5 c 128,-1,29
 771 220 771 220 787.5 283.5 c 128,-1,30
 804 347 804 347 804 421 c 0,31,32
 804 569 804 569 749 683 c 1,33,-1
 283 173 l 1,24,25
251 223 m 1,34,-1
 718 737 l 1,35,36
 630 864 630 864 487 864 c 0,37,38
 408 864 408 864 349 836 c 128,-1,39
 290 808 290 808 256 756.5 c 128,-1,40
 222 705 222 705 206 640.5 c 128,-1,41
 190 576 190 576 190 497 c 0,42,43
 190 338 190 338 251 223 c 1,34,-1
EndSplineSet
EndChar

StartChar: otilde
Encoding: 245 245 151
Width: 1001
VWidth: 0
Flags: MW
LayerCount: 2
Fore
SplineSet
278 1032 m 1,0,1
 291 1098 291 1098 338.5 1142 c 128,-1,2
 386 1186 386 1186 446 1168 c 1,3,-1
 594 1134 l 1,4,5
 628 1117 628 1117 659 1129 c 128,-1,6
 690 1141 690 1141 706 1184 c 1,7,-1
 746 1179 l 1,8,9
 740 1150 740 1150 726 1122.5 c 128,-1,10
 712 1095 712 1095 690 1071.5 c 128,-1,11
 668 1048 668 1048 639 1040 c 128,-1,12
 610 1032 610 1032 574 1042 c 1,13,-1
 426 1078 l 1,14,15
 346 1112 346 1112 313 1023 c 1,16,-1
 278 1032 l 1,0,1
200 497 m 0,17,18
 200 373 200 373 238 274 c 128,-1,19
 276 175 276 175 348 116.5 c 128,-1,20
 420 58 420 58 516 58 c 0,21,22
 594 58 594 58 653.5 87.5 c 128,-1,23
 713 117 713 117 747.5 168.5 c 128,-1,24
 782 220 782 220 798.5 283.5 c 128,-1,25
 815 347 815 347 815 421 c 0,26,27
 815 509 815 509 794 588.5 c 128,-1,28
 773 668 773 668 734 730 c 128,-1,29
 695 792 695 792 634 828 c 128,-1,30
 573 864 573 864 498 864 c 0,31,32
 419 864 419 864 360 836 c 128,-1,33
 301 808 301 808 267 756.5 c 128,-1,34
 233 705 233 705 216.5 640.5 c 128,-1,35
 200 576 200 576 200 497 c 0,17,18
42 444 m 0,36,37
 42 588 42 588 101.5 700.5 c 128,-1,38
 161 813 161 813 273.5 876.5 c 128,-1,39
 386 940 386 940 536 940 c 0,40,41
 639 940 639 940 722.5 903 c 128,-1,42
 806 866 806 866 860.5 801.5 c 128,-1,43
 915 737 915 737 944.5 650.5 c 128,-1,44
 974 564 974 564 974 465 c 0,45,46
 974 390 974 390 954.5 319 c 128,-1,47
 935 248 935 248 894.5 185.5 c 128,-1,48
 854 123 854 123 796.5 75.5 c 128,-1,49
 739 28 739 28 658.5 0.5 c 128,-1,50
 578 -27 578 -27 482 -27 c 0,51,52
 352 -27 352 -27 251 36.5 c 128,-1,53
 150 100 150 100 96 207 c 128,-1,54
 42 314 42 314 42 444 c 0,36,37
EndSplineSet
EndChar

StartChar: p
Encoding: 112 112 152
Width: 882
VWidth: 845
Flags: MW
LayerCount: 2
Fore
SplineSet
42 0 m 1,0,-1
 50 58 l 1,1,-1
 198 96 l 1,2,-1
 198 818 l 1,3,-1
 46 844 l 1,4,-1
 56 901 l 1,5,6
 68 903 68 903 107 908.5 c 128,-1,7
 146 914 146 914 162.5 916.5 c 128,-1,8
 179 919 179 919 214.5 923.5 c 128,-1,9
 250 928 250 928 274 930.5 c 128,-1,10
 298 933 298 933 331.5 935.5 c 128,-1,11
 365 938 365 938 396.5 939 c 128,-1,12
 428 940 428 940 461 940 c 0,13,14
 526 940 526 940 582.5 931 c 128,-1,15
 639 922 639 922 690 900.5 c 128,-1,16
 741 879 741 879 777 845.5 c 128,-1,17
 813 812 813 812 834.5 761.5 c 128,-1,18
 856 711 856 711 856 646 c 0,19,20
 856 566 856 566 820 500 c 128,-1,21
 784 434 784 434 724.5 392 c 128,-1,22
 665 350 665 350 588.5 329 c 128,-1,23
 512 308 512 308 430 313 c 1,24,-1
 416 375 l 1,25,-1
 470 377 l 2,26,27
 582 381 582 381 640 448.5 c 128,-1,28
 698 516 698 516 698 623 c 0,29,30
 698 674 698 674 682 719 c 128,-1,31
 666 764 666 764 633.5 799.5 c 128,-1,32
 601 835 601 835 547.5 856 c 128,-1,33
 494 877 494 877 425 877 c 1,34,-1
 349 872 l 1,35,-1
 349 94 l 1,36,-1
 564 64 l 1,37,-1
 554 0 l 1,38,-1
 42 0 l 1,0,-1
EndSplineSet
EndChar

StartChar: paragraph
Encoding: 182 182 153
Width: 1134
VWidth: 0
Flags: MW
LayerCount: 2
Fore
SplineSet
786 0 m 1,0,-1
 786 922 l 1,1,-1
 1058 922 l 1,2,-1
 1051 864 l 1,3,-1
 908 834 l 1,4,-1
 908 89 l 1,5,-1
 1062 63 l 1,6,-1
 1054 0 l 1,7,-1
 786 0 l 1,0,-1
103 592 m 0,8,9
 103 696 103 696 162 772 c 128,-1,10
 221 848 221 848 318 885 c 128,-1,11
 415 922 415 922 538 922 c 2,12,-1
 716 922 l 1,13,-1
 716 0 l 1,14,-1
 384 0 l 1,15,-1
 391 59 l 1,16,-1
 588 97 l 1,17,-1
 588 846 l 1,18,19
 534 848 534 848 512 848 c 0,20,21
 458 848 458 848 414 836.5 c 128,-1,22
 370 825 370 825 334.5 799.5 c 128,-1,23
 299 774 299 774 279.5 729 c 128,-1,24
 260 684 260 684 260 623 c 0,25,26
 260 519 260 519 327 456 c 128,-1,27
 394 393 394 393 518 391 c 1,28,-1
 502 315 l 1,29,30
 385 315 385 315 297.5 343 c 128,-1,31
 210 371 210 371 156.5 434.5 c 128,-1,32
 103 498 103 498 103 592 c 0,8,9
EndSplineSet
EndChar

StartChar: parenleft
Encoding: 40 40 154
Width: 478
VWidth: 0
Flags: MW
LayerCount: 2
Fore
SplineSet
438 1201 m 1,0,1
 395 1145 395 1145 364 1093 c 128,-1,2
 333 1041 333 1041 293 949.5 c 128,-1,3
 253 858 253 858 231 732 c 128,-1,4
 209 606 209 606 209 456 c 0,5,6
 209 51 209 51 444 -330 c 1,7,-1
 396 -375 l 1,8,9
 377 -358 377 -358 361 -341.5 c 128,-1,10
 345 -325 345 -325 308.5 -281.5 c 128,-1,11
 272 -238 272 -238 243 -193 c 128,-1,12
 214 -148 214 -148 179 -77 c 128,-1,13
 144 -6 144 -6 120.5 69 c 128,-1,14
 97 144 97 144 80.5 244 c 128,-1,15
 64 344 64 344 64 450 c 0,16,17
 64 970 64 970 401 1256 c 1,18,-1
 438 1201 l 1,0,1
EndSplineSet
EndChar

StartChar: parenright
Encoding: 41 41 155
Width: 477
VWidth: 0
Flags: MW
LayerCount: 2
Fore
SplineSet
47 1201 m 1,0,-1
 84 1256 l 1,1,2
 421 970 421 970 421 450 c 0,3,4
 421 344 421 344 404.5 244 c 128,-1,5
 388 144 388 144 364.5 69 c 128,-1,6
 341 -6 341 -6 306 -77 c 128,-1,7
 271 -148 271 -148 242 -193 c 128,-1,8
 213 -238 213 -238 176.5 -281.5 c 128,-1,9
 140 -325 140 -325 124 -341.5 c 128,-1,10
 108 -358 108 -358 89 -375 c 1,11,-1
 41 -330 l 1,12,13
 276 51 276 51 276 456 c 0,14,15
 276 606 276 606 254 732 c 128,-1,16
 232 858 232 858 192 949.5 c 128,-1,17
 152 1041 152 1041 121 1093 c 128,-1,18
 90 1145 90 1145 47 1201 c 1,0,-1
EndSplineSet
EndChar

StartChar: percent
Encoding: 37 37 156
Width: 1068
VWidth: 0
Flags: MW
LayerCount: 2
Fore
SplineSet
722 216 m 0,0,1
 722 168 722 168 734 125 c 128,-1,2
 746 82 746 82 771.5 52.5 c 128,-1,3
 797 23 797 23 831 23 c 0,4,5
 887 23 887 23 914.5 79.5 c 128,-1,6
 942 136 942 136 942 218 c 0,7,8
 942 296 942 296 911 357 c 128,-1,9
 880 418 880 418 829 418 c 0,10,11
 800 418 800 418 778.5 399.5 c 128,-1,12
 757 381 757 381 745 350.5 c 128,-1,13
 733 320 733 320 727.5 286 c 128,-1,14
 722 252 722 252 722 216 c 0,0,1
600 216 m 0,15,16
 600 318 600 318 670 392 c 128,-1,17
 740 466 740 466 829 466 c 0,18,19
 930 466 930 466 995 395 c 128,-1,20
 1060 324 1060 324 1060 214 c 0,21,22
 1060 113 1060 113 988.5 40 c 128,-1,23
 917 -33 917 -33 831 -33 c 0,24,25
 736 -33 736 -33 668 35.5 c 128,-1,26
 600 104 600 104 600 216 c 0,15,16
103 -21 m 1,27,-1
 470 450 l 1,28,-1
 770 872 l 1,29,-1
 402 878 l 1,30,31
 427 853 427 853 443.5 790.5 c 128,-1,32
 460 728 460 728 460 690 c 0,33,34
 460 639 460 639 439.5 592 c 128,-1,35
 419 545 419 545 386 512.5 c 128,-1,36
 353 480 353 480 311.5 460.5 c 128,-1,37
 270 441 270 441 228 441 c 0,38,39
 134 441 134 441 67.5 509.5 c 128,-1,40
 1 578 1 578 1 692 c 0,41,42
 1 794 1 794 70.5 868 c 128,-1,43
 140 942 140 942 230 942 c 0,44,45
 256 942 256 942 264 938 c 1,46,-1
 264 880 l 1,47,48
 242 892 242 892 226 892 c 0,49,50
 198 892 198 892 177 873.5 c 128,-1,51
 156 855 156 855 144 824.5 c 128,-1,52
 132 794 132 794 126 760 c 128,-1,53
 120 726 120 726 120 690 c 0,54,55
 120 642 120 642 132 599 c 128,-1,56
 144 556 144 556 169 527 c 128,-1,57
 194 498 194 498 228 498 c 0,58,59
 266 498 266 498 292.5 527 c 128,-1,60
 319 556 319 556 329.5 599 c 128,-1,61
 340 642 340 642 340 692 c 0,62,63
 340 816 340 816 296 928 c 1,64,-1
 819 940 l 1,65,-1
 958 936 l 1,66,-1
 958 922 l 1,67,-1
 591 453 l 1,68,-1
 256 -32 l 1,69,-1
 103 -21 l 1,27,-1
EndSplineSet
EndChar

StartChar: period
Encoding: 46 46 157
Width: 319
VWidth: 0
Flags: MW
LayerCount: 2
Fore
SplineSet
70 81 m 0,0,1
 70 128 70 128 95 157 c 128,-1,2
 120 186 120 186 160 186 c 0,3,4
 201 186 201 186 226.5 157 c 128,-1,5
 252 128 252 128 252 80 c 0,6,7
 252 30 252 30 227 -1 c 128,-1,8
 202 -32 202 -32 160 -32 c 0,9,10
 119 -32 119 -32 94.5 -0.5 c 128,-1,11
 70 31 70 31 70 81 c 0,0,1
EndSplineSet
EndChar

StartChar: periodcentered
Encoding: 183 183 158
Width: 328
VWidth: 0
Flags: MW
LayerCount: 2
Fore
SplineSet
73 503 m 0,0,1
 73 550 73 550 98.5 579 c 128,-1,2
 124 608 124 608 164 608 c 0,3,4
 205 608 205 608 231 579.5 c 128,-1,5
 257 551 257 551 257 503 c 0,6,7
 257 453 257 453 232 422 c 128,-1,8
 207 391 207 391 165 391 c 128,-1,9
 123 391 123 391 98 422 c 128,-1,10
 73 453 73 453 73 503 c 0,0,1
EndSplineSet
EndChar

StartChar: plus
Encoding: 43 43 159
Width: 630
VWidth: 0
Flags: MW
LayerCount: 2
Fore
SplineSet
50 418 m 1,0,-1
 63 502 l 1,1,-1
 272 502 l 1,2,-1
 272 742 l 1,3,-1
 360 730 l 1,4,-1
 361 502 l 1,5,-1
 581 502 l 1,6,-1
 570 418 l 1,7,-1
 361 418 l 1,8,-1
 362 173 l 1,9,-1
 272 186 l 1,10,-1
 272 418 l 1,11,-1
 50 418 l 1,0,-1
EndSplineSet
EndChar

StartChar: plusminus
Encoding: 177 177 160
Width: 723
VWidth: 0
Flags: MW
LayerCount: 2
Fore
SplineSet
48 26 m 1,0,-1
 65 110 l 1,1,-1
 676 113 l 1,2,-1
 659 29 l 1,3,-1
 48 26 l 1,0,-1
86 480 m 1,4,-1
 99 564 l 1,5,-1
 308 564 l 1,6,-1
 308 804 l 1,7,-1
 396 792 l 1,8,-1
 397 564 l 1,9,-1
 617 564 l 1,10,-1
 606 480 l 1,11,-1
 397 480 l 1,12,-1
 398 235 l 1,13,-1
 308 248 l 1,14,-1
 308 480 l 1,15,-1
 86 480 l 1,4,-1
EndSplineSet
EndChar

StartChar: q
Encoding: 113 113 161
Width: 1008
VWidth: 845
Flags: MW
LayerCount: 2
Fore
SplineSet
190 510 m 0,0,1
 190 384 190 384 234 280 c 128,-1,2
 278 176 278 176 361.5 112 c 128,-1,3
 445 48 445 48 552 45 c 1,4,5
 675 77 675 77 745.5 177.5 c 128,-1,6
 816 278 816 278 816 422 c 0,7,8
 816 544 816 544 775.5 644.5 c 128,-1,9
 735 745 735 745 657.5 805.5 c 128,-1,10
 580 866 580 866 482 866 c 0,11,12
 355 866 355 866 272.5 771.5 c 128,-1,13
 190 677 190 677 190 510 c 0,0,1
37 452 m 0,14,15
 37 555 37 555 74 646 c 128,-1,16
 111 737 111 737 175.5 801.5 c 128,-1,17
 240 866 240 866 331 903 c 128,-1,18
 422 940 422 940 528 940 c 0,19,20
 631 940 631 940 715 903.5 c 128,-1,21
 799 867 799 867 853.5 804 c 128,-1,22
 908 741 908 741 938 658 c 128,-1,23
 968 575 968 575 968 481 c 0,24,25
 968 300 968 300 867.5 167 c 128,-1,26
 767 34 767 34 603 -9 c 1,27,28
 648 -121 648 -121 727.5 -175 c 128,-1,29
 807 -229 807 -229 945 -227 c 1,30,31
 940 -278 940 -278 936 -288 c 1,32,33
 862 -326 862 -326 784 -326 c 0,34,35
 666 -326 666 -326 593 -240.5 c 128,-1,36
 520 -155 520 -155 528 -26 c 1,37,38
 419 -34 419 -34 326 0 c 128,-1,39
 233 34 233 34 170 99.5 c 128,-1,40
 107 165 107 165 72 256 c 128,-1,41
 37 347 37 347 37 452 c 0,14,15
EndSplineSet
EndChar

StartChar: question
Encoding: 63 63 162
Width: 624
VWidth: 0
Flags: MW
LayerCount: 2
Fore
SplineSet
197 79 m 0,0,1
 197 124 197 124 223 154 c 128,-1,2
 249 184 249 184 287 184 c 0,3,4
 326 184 326 184 352 153.5 c 128,-1,5
 378 123 378 123 378 78 c 0,6,7
 378 29 378 29 353.5 -2.5 c 128,-1,8
 329 -34 329 -34 287 -34 c 0,9,10
 246 -34 246 -34 221.5 -1.5 c 128,-1,11
 197 31 197 31 197 79 c 0,0,1
46 1159 m 0,12,13
 46 1207 46 1207 101 1246.5 c 128,-1,14
 156 1286 156 1286 243 1286 c 0,15,16
 305 1286 305 1286 365 1255 c 128,-1,17
 425 1224 425 1224 470.5 1171.5 c 128,-1,18
 516 1119 516 1119 544.5 1044.5 c 128,-1,19
 573 970 573 970 573 892 c 0,20,21
 573 838 573 838 551 794.5 c 128,-1,22
 529 751 529 751 495.5 725.5 c 128,-1,23
 462 700 462 700 423.5 674 c 128,-1,24
 385 648 385 648 351.5 628 c 128,-1,25
 318 608 318 608 296 576.5 c 128,-1,26
 274 545 274 545 274 508 c 0,27,28
 274 450 274 450 308 370 c 1,29,-1
 251 354 l 1,30,31
 220 390 220 390 195 449 c 128,-1,32
 170 508 170 508 170 564 c 0,33,34
 170 609 170 609 187 645 c 128,-1,35
 204 681 204 681 231 705 c 128,-1,36
 258 729 258 729 291 749.5 c 128,-1,37
 324 770 324 770 357 789 c 128,-1,38
 390 808 390 808 417 828.5 c 128,-1,39
 444 849 444 849 461 877.5 c 128,-1,40
 478 906 478 906 478 942 c 0,41,42
 478 1021 478 1021 423 1084.5 c 128,-1,43
 368 1148 368 1148 296 1148 c 0,44,45
 239 1148 239 1148 188 1128 c 128,-1,46
 137 1108 137 1108 105 1073 c 1,47,48
 81 1084 81 1084 63.5 1107.5 c 128,-1,49
 46 1131 46 1131 46 1159 c 0,12,13
EndSplineSet
EndChar

StartChar: questiondown
Encoding: 191 191 163
Width: 615
VWidth: 0
Flags: MW
LayerCount: 2
Fore
SplineSet
417 821 m 0,0,1
 417 776 417 776 391 746 c 128,-1,2
 365 716 365 716 327 716 c 0,3,4
 288 716 288 716 262 746.5 c 128,-1,5
 236 777 236 777 236 822 c 0,6,7
 236 871 236 871 260.5 902.5 c 128,-1,8
 285 934 285 934 327 934 c 0,9,10
 368 934 368 934 392.5 901.5 c 128,-1,11
 417 869 417 869 417 821 c 0,0,1
568 -259 m 0,12,13
 568 -307 568 -307 513 -346.5 c 128,-1,14
 458 -386 458 -386 371 -386 c 0,15,16
 309 -386 309 -386 249 -355 c 128,-1,17
 189 -324 189 -324 143.5 -271.5 c 128,-1,18
 98 -219 98 -219 69.5 -144.5 c 128,-1,19
 41 -70 41 -70 41 8 c 0,20,21
 41 62 41 62 63 105.5 c 128,-1,22
 85 149 85 149 118.5 174.5 c 128,-1,23
 152 200 152 200 190.5 226 c 128,-1,24
 229 252 229 252 262.5 272 c 128,-1,25
 296 292 296 292 318 323.5 c 128,-1,26
 340 355 340 355 340 392 c 0,27,28
 340 450 340 450 306 530 c 1,29,-1
 363 546 l 1,30,31
 394 510 394 510 419 451 c 128,-1,32
 444 392 444 392 444 336 c 0,33,34
 444 291 444 291 427 255 c 128,-1,35
 410 219 410 219 383 195 c 128,-1,36
 356 171 356 171 323 150.5 c 128,-1,37
 290 130 290 130 257 111 c 128,-1,38
 224 92 224 92 197 71.5 c 128,-1,39
 170 51 170 51 153 22.5 c 128,-1,40
 136 -6 136 -6 136 -42 c 0,41,42
 136 -121 136 -121 191 -184.5 c 128,-1,43
 246 -248 246 -248 318 -248 c 0,44,45
 375 -248 375 -248 426 -228 c 128,-1,46
 477 -208 477 -208 509 -173 c 1,47,48
 533 -184 533 -184 550.5 -207.5 c 128,-1,49
 568 -231 568 -231 568 -259 c 0,12,13
EndSplineSet
EndChar

StartChar: quotedbl
Encoding: 34 34 164
Width: 446
VWidth: 0
Flags: MW
LayerCount: 2
Fore
SplineSet
242 1302 m 1,0,-1
 389 1291 l 1,1,-1
 353 899 l 1,2,-1
 279 892 l 1,3,-1
 242 1302 l 1,0,-1
56 1302 m 1,4,-1
 202 1291 l 1,5,-1
 166 899 l 1,6,-1
 93 892 l 1,7,-1
 56 1302 l 1,4,-1
EndSplineSet
EndChar

StartChar: quotedblleft
Encoding: 8220 8220 165
Width: 720
VWidth: 0
Flags: MW
LayerCount: 2
Fore
SplineSet
353 1225 m 1,0,1
 173 1165 173 1165 173 1035 c 0,2,3
 173 981 173 981 205.5 946 c 128,-1,4
 238 911 238 911 286 911 c 0,5,6
 304 911 304 911 314 914 c 1,7,8
 322 891 322 891 322 873 c 0,9,10
 322 825 322 825 290 796 c 128,-1,11
 258 767 258 767 214 767 c 0,12,13
 152 767 152 767 103.5 821.5 c 128,-1,14
 55 876 55 876 55 976 c 0,15,16
 55 1007 55 1007 61 1037 c 128,-1,17
 67 1067 67 1067 86 1104 c 128,-1,18
 105 1141 105 1141 134.5 1172 c 128,-1,19
 164 1203 164 1203 216 1232.5 c 128,-1,20
 268 1262 268 1262 336 1282 c 1,21,-1
 353 1225 l 1,0,1
669 1225 m 1,22,23
 489 1165 489 1165 489 1035 c 0,24,25
 489 981 489 981 521.5 946 c 128,-1,26
 554 911 554 911 602 911 c 0,27,28
 620 911 620 911 630 914 c 1,29,30
 638 891 638 891 638 873 c 0,31,32
 638 825 638 825 606 796 c 128,-1,33
 574 767 574 767 530 767 c 0,34,35
 468 767 468 767 419.5 821.5 c 128,-1,36
 371 876 371 876 371 976 c 0,37,38
 371 1007 371 1007 377 1037 c 128,-1,39
 383 1067 383 1067 402 1104 c 128,-1,40
 421 1141 421 1141 450.5 1172 c 128,-1,41
 480 1203 480 1203 532 1232.5 c 128,-1,42
 584 1262 584 1262 652 1282 c 1,43,-1
 669 1225 l 1,22,23
EndSplineSet
EndChar

StartChar: quotedblright
Encoding: 8221 8221 166
Width: 753
VWidth: 0
Flags: MW
LayerCount: 2
Fore
SplineSet
54 824 m 1,0,1
 234 884 234 884 234 1014 c 0,2,3
 234 1068 234 1068 202 1103 c 128,-1,4
 170 1138 170 1138 122 1138 c 0,5,6
 104 1138 104 1138 93 1135 c 1,7,8
 84 1158 84 1158 84 1176 c 0,9,10
 84 1224 84 1224 117 1253 c 128,-1,11
 150 1282 150 1282 194 1282 c 0,12,13
 256 1282 256 1282 304 1228 c 128,-1,14
 352 1174 352 1174 352 1074 c 0,15,16
 352 1043 352 1043 346 1012.5 c 128,-1,17
 340 982 340 982 321 945 c 128,-1,18
 302 908 302 908 272.5 877 c 128,-1,19
 243 846 243 846 191.5 816.5 c 128,-1,20
 140 787 140 787 72 767 c 1,21,-1
 54 824 l 1,0,1
401 824 m 1,22,23
 581 884 581 884 581 1014 c 0,24,25
 581 1068 581 1068 548.5 1103 c 128,-1,26
 516 1138 516 1138 468 1138 c 0,27,28
 450 1138 450 1138 440 1135 c 1,29,30
 432 1158 432 1158 432 1176 c 0,31,32
 432 1224 432 1224 464 1253 c 128,-1,33
 496 1282 496 1282 540 1282 c 0,34,35
 602 1282 602 1282 650.5 1228 c 128,-1,36
 699 1174 699 1174 699 1074 c 0,37,38
 699 1043 699 1043 693 1012.5 c 128,-1,39
 687 982 687 982 668 945 c 128,-1,40
 649 908 649 908 619.5 877 c 128,-1,41
 590 846 590 846 538 816.5 c 128,-1,42
 486 787 486 787 418 767 c 1,43,-1
 401 824 l 1,22,23
EndSplineSet
EndChar

StartChar: quoteleft
Encoding: 8216 8216 167
Width: 404
VWidth: 0
Flags: MW
LayerCount: 2
Fore
SplineSet
353 1225 m 1,0,1
 173 1165 173 1165 173 1035 c 0,2,3
 173 981 173 981 205.5 946 c 128,-1,4
 238 911 238 911 286 911 c 0,5,6
 304 911 304 911 314 914 c 1,7,8
 322 891 322 891 322 873 c 0,9,10
 322 825 322 825 290 796 c 128,-1,11
 258 767 258 767 214 767 c 0,12,13
 152 767 152 767 103.5 821.5 c 128,-1,14
 55 876 55 876 55 976 c 0,15,16
 55 1007 55 1007 61 1037 c 128,-1,17
 67 1067 67 1067 86 1104 c 128,-1,18
 105 1141 105 1141 134.5 1172 c 128,-1,19
 164 1203 164 1203 216 1232.5 c 128,-1,20
 268 1262 268 1262 336 1282 c 1,21,-1
 353 1225 l 1,0,1
EndSplineSet
EndChar

StartChar: quoteright
Encoding: 8217 8217 168
Width: 406
VWidth: 0
Flags: MW
LayerCount: 2
Fore
SplineSet
54 824 m 1,0,1
 234 884 234 884 234 1014 c 0,2,3
 234 1068 234 1068 202 1103 c 128,-1,4
 170 1138 170 1138 122 1138 c 0,5,6
 104 1138 104 1138 93 1135 c 1,7,8
 84 1158 84 1158 84 1176 c 0,9,10
 84 1224 84 1224 117 1253 c 128,-1,11
 150 1282 150 1282 194 1282 c 0,12,13
 256 1282 256 1282 304 1228 c 128,-1,14
 352 1174 352 1174 352 1074 c 0,15,16
 352 1043 352 1043 346 1012.5 c 128,-1,17
 340 982 340 982 321 945 c 128,-1,18
 302 908 302 908 272.5 877 c 128,-1,19
 243 846 243 846 191.5 816.5 c 128,-1,20
 140 787 140 787 72 767 c 1,21,-1
 54 824 l 1,0,1
EndSplineSet
EndChar

StartChar: quotesinglbase
Encoding: 8218 8218 169
Width: 414
VWidth: 0
Flags: MW
LayerCount: 2
Fore
SplineSet
55 -240 m 1,0,1
 235 -180 235 -180 235 -50 c 0,2,3
 235 4 235 4 202.5 39 c 128,-1,4
 170 74 170 74 122 74 c 0,5,6
 104 74 104 74 94 71 c 1,7,8
 86 94 86 94 86 112 c 0,9,10
 86 160 86 160 118 189 c 128,-1,11
 150 218 150 218 194 218 c 0,12,13
 256 218 256 218 304.5 164 c 128,-1,14
 353 110 353 110 353 10 c 0,15,16
 353 -21 353 -21 347 -51.5 c 128,-1,17
 341 -82 341 -82 322 -119 c 128,-1,18
 303 -156 303 -156 273.5 -187 c 128,-1,19
 244 -218 244 -218 192 -247.5 c 128,-1,20
 140 -277 140 -277 72 -297 c 1,21,-1
 55 -240 l 1,0,1
EndSplineSet
EndChar

StartChar: quotesingle
Encoding: 39 39 170
Width: 259
VWidth: 0
Flags: MW
LayerCount: 2
Fore
SplineSet
56 1302 m 1,0,-1
 202 1291 l 1,1,-1
 166 899 l 1,2,-1
 93 892 l 1,3,-1
 56 1302 l 1,0,-1
EndSplineSet
EndChar

StartChar: r
Encoding: 114 114 171
Width: 1019
VWidth: 845
Flags: MW
LayerCount: 2
Fore
SplineSet
329 448 m 1,0,-1
 550 448 l 1,1,2
 609 466 609 466 643.5 523 c 128,-1,3
 678 580 678 580 678 657 c 0,4,5
 678 759 678 759 612.5 817.5 c 128,-1,6
 547 876 547 876 431 876 c 0,7,8
 408 876 408 876 382.5 874.5 c 128,-1,9
 357 873 357 873 343 872 c 2,10,-1
 329 870 l 1,11,-1
 329 448 l 1,0,-1
42 0 m 1,12,-1
 52 58 l 1,13,-1
 188 96 l 1,14,-1
 188 819 l 1,15,-1
 48 844 l 1,16,-1
 57 901 l 1,17,18
 322 940 322 940 468 940 c 0,19,20
 634 940 634 940 730 874 c 128,-1,21
 826 808 826 808 826 688 c 0,22,23
 826 605 826 605 778 538.5 c 128,-1,24
 730 472 730 472 640 426 c 1,25,-1
 640 425 l 1,26,-1
 718 311 l 1,27,28
 850 103 850 103 974 66 c 2,29,-1
 1004 57 l 1,30,-1
 994 4 l 1,31,32
 944 -14 944 -14 888 -14 c 0,33,34
 794 -14 794 -14 718.5 57.5 c 128,-1,35
 643 129 643 129 589 256 c 1,36,-1
 534 375 l 1,37,-1
 329 375 l 1,38,-1
 329 96 l 1,39,-1
 508 64 l 1,40,-1
 498 0 l 1,41,-1
 42 0 l 1,12,-1
EndSplineSet
EndChar

StartChar: registered
Encoding: 174 174 172
Width: 1156
VWidth: 0
Flags: MW
LayerCount: 2
Fore
SplineSet
508 1062 m 1,0,-1
 598 1062 l 1,1,2
 682 1108 682 1108 683 1180 c 0,3,4
 683 1286 683 1286 552 1286 c 0,5,6
 543 1286 543 1286 532.5 1285 c 128,-1,7
 522 1284 522 1284 518.5 1284 c 128,-1,8
 508 1284 l 2,9,-1
 508 1062 l 1,0,-1
331 774 m 1,10,-1
 336 814 l 1,11,-1
 412 834 l 1,12,-1
 412 1266 l 1,13,-1
 335 1280 l 1,14,-1
 340 1318 l 1,15,16
 470 1338 470 1338 568 1338 c 0,17,18
 668 1338 668 1338 727 1304 c 128,-1,19
 786 1270 786 1270 786 1198 c 0,20,21
 786 1149 786 1149 751 1104.5 c 128,-1,22
 716 1060 716 1060 656 1034 c 1,23,-1
 655 1032 l 1,24,-1
 738 926 l 2,25,26
 779 873 779 873 801.5 854.5 c 128,-1,27
 824 836 824 836 856 822 c 1,28,-1
 875 814 l 1,29,-1
 868 774 l 1,30,31
 842 764 842 764 806 764 c 0,32,33
 754 764 754 764 717.5 795 c 128,-1,34
 681 826 681 826 642 899 c 2,35,-1
 580 1010 l 1,36,-1
 508 1010 l 1,37,-1
 508 834 l 1,38,-1
 592 817 l 1,39,-1
 588 774 l 1,40,-1
 331 774 l 1,10,-1
182 1036 m 0,41,42
 182 842 182 842 295 723 c 128,-1,43
 408 604 408 604 584 604 c 0,44,45
 762 604 762 604 883.5 719 c 128,-1,46
 1005 834 1005 834 1005 1016 c 0,47,48
 1005 1117 1005 1117 973 1200.5 c 128,-1,49
 941 1284 941 1284 884.5 1340 c 128,-1,50
 828 1396 828 1396 751 1427 c 128,-1,51
 674 1458 674 1458 586 1459 c 0,52,53
 502 1460 502 1460 429 1433 c 128,-1,54
 356 1406 356 1406 300.5 1354.5 c 128,-1,55
 245 1303 245 1303 213.5 1221 c 128,-1,56
 182 1139 182 1139 182 1036 c 0,41,42
110 1022 m 0,57,58
 110 1138 110 1138 147.5 1233 c 128,-1,59
 185 1328 185 1328 249 1390 c 128,-1,60
 313 1452 313 1452 399.5 1486 c 128,-1,61
 486 1520 486 1520 586 1520 c 0,62,63
 690 1520 690 1520 779 1487 c 128,-1,64
 868 1454 868 1454 935 1392.5 c 128,-1,65
 1002 1331 1002 1331 1040 1236.5 c 128,-1,66
 1078 1142 1078 1142 1078 1026 c 0,67,68
 1078 915 1078 915 1038 822.5 c 128,-1,69
 998 730 998 730 929.5 669.5 c 128,-1,70
 861 609 861 609 769.5 575.5 c 128,-1,71
 678 542 678 542 576 542 c 0,72,73
 480 542 480 542 394.5 576.5 c 128,-1,74
 309 611 309 611 246 672.5 c 128,-1,75
 183 734 183 734 146.5 824.5 c 128,-1,76
 110 915 110 915 110 1022 c 0,57,58
EndSplineSet
EndChar

StartChar: ring
Encoding: 730 730 173
Width: 488
VWidth: 0
Flags: MW
LayerCount: 2
Fore
SplineSet
152 1539 m 0,0,1
 152 1487 152 1487 178 1447 c 128,-1,2
 204 1407 204 1407 250 1407 c 0,3,4
 293 1407 293 1407 316.5 1437.5 c 128,-1,5
 340 1468 340 1468 340 1524 c 0,6,7
 340 1576 340 1576 313 1615.5 c 128,-1,8
 286 1655 286 1655 240 1655 c 0,9,10
 197 1655 197 1655 174.5 1621 c 128,-1,11
 152 1587 152 1587 152 1539 c 0,0,1
84 1528 m 0,12,13
 84 1598 84 1598 133 1649 c 128,-1,14
 182 1700 182 1700 252 1700 c 0,15,16
 323 1700 323 1700 366 1654 c 128,-1,17
 409 1608 409 1608 409 1537 c 0,18,19
 409 1466 409 1466 361.5 1414 c 128,-1,20
 314 1362 314 1362 240 1362 c 0,21,22
 170 1362 170 1362 127 1407 c 128,-1,23
 84 1452 84 1452 84 1528 c 0,12,13
EndSplineSet
EndChar

StartChar: s
Encoding: 115 115 174
Width: 690
VWidth: 845
Flags: MW
LayerCount: 2
Fore
SplineSet
40 58 m 1,0,-1
 71 300 l 1,1,-1
 149 289 l 1,2,-1
 166 128 l 1,3,4
 224 54 224 54 350 55 c 0,5,6
 416 55 416 55 464 87.5 c 128,-1,7
 512 120 512 120 512 180 c 0,8,9
 512 221 512 221 487.5 256 c 128,-1,10
 463 291 463 291 423.5 318 c 128,-1,11
 384 345 384 345 336.5 371.5 c 128,-1,12
 289 398 289 398 241.5 428 c 128,-1,13
 194 458 194 458 154.5 492 c 128,-1,14
 115 526 115 526 90.5 574.5 c 128,-1,15
 66 623 66 623 66 681 c 0,16,17
 66 741 66 741 92 791 c 128,-1,18
 118 841 118 841 160.5 873 c 128,-1,19
 203 905 203 905 256.5 922.5 c 128,-1,20
 310 940 310 940 366 940 c 0,21,22
 505 940 505 940 589 880 c 1,23,-1
 570 634 l 1,24,-1
 492 644 l 1,25,-1
 476 800 l 1,26,27
 458 830 458 830 419 851 c 128,-1,28
 380 872 380 872 336 872 c 0,29,30
 267 872 267 872 229.5 838 c 128,-1,31
 192 804 192 804 192 739 c 0,32,33
 192 697 192 697 217.5 659 c 128,-1,34
 243 621 243 621 284 592 c 128,-1,35
 325 563 325 563 374 535 c 128,-1,36
 423 507 423 507 472 477 c 128,-1,37
 521 447 521 447 561.5 414 c 128,-1,38
 602 381 602 381 627.5 336.5 c 128,-1,39
 653 292 653 292 653 240 c 0,40,41
 653 124 653 124 558.5 49.5 c 128,-1,42
 464 -25 464 -25 322 -25 c 0,43,44
 126 -24 126 -24 40 58 c 1,0,-1
EndSplineSet
EndChar

StartChar: section
Encoding: 167 167 175
Width: 855
VWidth: 0
Flags: MW
LayerCount: 2
Fore
SplineSet
86 938 m 0,0,1
 86 1015 86 1015 117 1079 c 128,-1,2
 148 1143 148 1143 199.5 1184 c 128,-1,3
 251 1225 251 1225 314.5 1247.5 c 128,-1,4
 378 1270 378 1270 446 1270 c 0,5,6
 529 1270 529 1270 604.5 1243.5 c 128,-1,7
 680 1217 680 1217 734 1165 c 1,8,-1
 706 869 l 1,9,-1
 634 878 l 1,10,-1
 607 1096 l 1,11,12
 586 1136 586 1136 530.5 1168 c 128,-1,13
 475 1200 475 1200 417 1200 c 0,14,15
 333 1200 333 1200 277 1147 c 128,-1,16
 221 1094 221 1094 221 1000 c 0,17,18
 221 952 221 952 241.5 909.5 c 128,-1,19
 262 867 262 867 297 834 c 128,-1,20
 332 801 332 801 376.5 770 c 128,-1,21
 421 739 421 739 470.5 710.5 c 128,-1,22
 520 682 520 682 569 652.5 c 128,-1,23
 618 623 618 623 661.5 589 c 128,-1,24
 705 555 705 555 738 516.5 c 128,-1,25
 771 478 771 478 789.5 427 c 128,-1,26
 808 376 808 376 804 318 c 1,27,-1
 426 546 l 2,28,29
 415 552 415 552 394 565 c 0,30,31
 351 591 351 591 329 604.5 c 128,-1,32
 307 618 307 618 268.5 644.5 c 128,-1,33
 230 671 230 671 209 690 c 128,-1,34
 188 709 188 709 161 739 c 128,-1,35
 134 769 134 769 120.5 797 c 128,-1,36
 107 825 107 825 96.5 862 c 128,-1,37
 86 899 86 899 86 938 c 0,0,1
49 -238 m 1,38,-1
 70 38 l 1,39,-1
 146 29 l 1,40,-1
 178 -176 l 1,41,42
 209 -230 209 -230 276.5 -265 c 128,-1,43
 344 -300 344 -300 420 -300 c 0,44,45
 464 -300 464 -300 505.5 -286 c 128,-1,46
 547 -272 547 -272 581.5 -246.5 c 128,-1,47
 616 -221 616 -221 637 -178.5 c 128,-1,48
 658 -136 658 -136 658 -82 c 0,49,50
 658 -38 658 -38 638 1 c 128,-1,51
 618 40 618 40 584.5 71.5 c 128,-1,52
 551 103 551 103 507.5 132.5 c 128,-1,53
 464 162 464 162 416 190 c 128,-1,54
 368 218 368 218 320 247 c 128,-1,55
 272 276 272 276 229.5 310.5 c 128,-1,56
 187 345 187 345 155 383 c 128,-1,57
 123 421 123 421 105.5 470.5 c 128,-1,58
 88 520 88 520 91 576 c 1,59,-1
 438 370 l 2,60,61
 455 360 455 360 488.5 340.5 c 128,-1,62
 522 321 522 321 541 310 c 128,-1,63
 560 299 560 299 590.5 280 c 128,-1,64
 621 261 621 261 639.5 247.5 c 128,-1,65
 658 234 658 234 683.5 213 c 128,-1,66
 709 192 709 192 724 174.5 c 128,-1,67
 739 157 739 157 756.5 133 c 128,-1,68
 774 109 774 109 783 85.5 c 128,-1,69
 792 62 792 62 798 33.5 c 128,-1,70
 804 5 804 5 804 -25 c 0,71,72
 804 -128 804 -128 748.5 -209.5 c 128,-1,73
 693 -291 693 -291 596.5 -335.5 c 128,-1,74
 500 -380 500 -380 382 -380 c 0,75,76
 278 -380 278 -380 188.5 -340 c 128,-1,77
 99 -300 99 -300 49 -238 c 1,38,-1
EndSplineSet
EndChar

StartChar: semicolon
Encoding: 59 59 176
Width: 397
VWidth: 0
Flags: MW
LayerCount: 2
Fore
SplineSet
46 -243 m 1,0,1
 226 -186 226 -186 226 -60 c 0,2,3
 226 -9 226 -9 194 25 c 128,-1,4
 162 59 162 59 114 59 c 0,5,6
 97 59 97 59 85 56 c 1,7,8
 76 78 76 78 76 96 c 0,9,10
 76 142 76 142 109 169.5 c 128,-1,11
 142 197 142 197 186 197 c 0,12,13
 214 197 214 197 241.5 185 c 128,-1,14
 269 173 269 173 292 149.5 c 128,-1,15
 315 126 315 126 329.5 86.5 c 128,-1,16
 344 47 344 47 344 -3 c 0,17,18
 344 -33 344 -33 338 -62 c 128,-1,19
 332 -91 332 -91 313 -126.5 c 128,-1,20
 294 -162 294 -162 264.5 -191.5 c 128,-1,21
 235 -221 235 -221 183.5 -250 c 128,-1,22
 132 -279 132 -279 64 -297 c 1,23,-1
 46 -243 l 1,0,1
88 742 m 0,24,25
 88 789 88 789 113 818 c 128,-1,26
 138 847 138 847 178 847 c 0,27,28
 219 847 219 847 244.5 818 c 128,-1,29
 270 789 270 789 270 741 c 0,30,31
 270 691 270 691 245 660 c 128,-1,32
 220 629 220 629 178 629 c 0,33,34
 137 629 137 629 112.5 660.5 c 128,-1,35
 88 692 88 692 88 742 c 0,24,25
EndSplineSet
EndChar

StartChar: seven
Encoding: 55 55 177
Width: 737
VWidth: 0
Flags: MW
LayerCount: 2
Fore
SplineSet
32 602 m 1,0,-1
 59 933 l 1,1,-1
 708 933 l 1,2,-1
 714 858 l 1,3,4
 707 846 707 846 694 823 c 0,5,6
 647 739 647 739 624.5 697 c 128,-1,7
 602 655 602 655 561 578.5 c 128,-1,8
 520 502 520 502 499 457.5 c 128,-1,9
 478 413 478 413 445.5 342 c 128,-1,10
 413 271 413 271 396 220 c 128,-1,11
 379 169 379 169 357 100 c 128,-1,12
 335 31 335 31 323.5 -28.5 c 128,-1,13
 312 -88 312 -88 303 -158 c 128,-1,14
 294 -228 294 -228 290 -298 c 1,15,16
 288 -298 288 -298 276 -301 c 128,-1,17
 264 -304 264 -304 260 -304 c 0,18,19
 200 -304 200 -304 170 -272 c 128,-1,20
 140 -240 140 -240 140 -185 c 0,21,22
 140 -113 140 -113 193 25.5 c 128,-1,23
 246 164 246 164 325.5 317.5 c 128,-1,24
 405 471 405 471 473.5 594.5 c 128,-1,25
 542 718 542 718 598 806 c 1,26,-1
 142 806 l 1,27,-1
 94 592 l 1,28,-1
 32 602 l 1,0,-1
EndSplineSet
EndChar

StartChar: six
Encoding: 54 54 178
Width: 785
VWidth: 0
Flags: MW
LayerCount: 2
Fore
SplineSet
204 407 m 0,0,1
 204 250 204 250 260 149 c 128,-1,2
 316 48 316 48 405 48 c 0,3,4
 464 48 464 48 506.5 87 c 128,-1,5
 549 126 549 126 568.5 188 c 128,-1,6
 588 250 588 250 588 328 c 0,7,8
 588 388 588 388 577 438.5 c 128,-1,9
 566 489 566 489 543 530.5 c 128,-1,10
 520 572 520 572 479 595.5 c 128,-1,11
 438 619 438 619 384 619 c 0,12,13
 332 619 332 619 286.5 596.5 c 128,-1,14
 241 574 241 574 215 544 c 1,15,16
 204 472 204 472 204 407 c 0,0,1
46 422 m 0,17,18
 46 540 46 540 90 664.5 c 128,-1,19
 134 789 134 789 208.5 897.5 c 128,-1,20
 283 1006 283 1006 390 1092 c 128,-1,21
 497 1178 497 1178 617 1218 c 1,22,-1
 645 1166 l 1,23,24
 567 1133 567 1133 502 1083.5 c 128,-1,25
 437 1034 437 1034 391 979.5 c 128,-1,26
 345 925 345 925 309 861 c 128,-1,27
 273 797 273 797 251.5 736.5 c 128,-1,28
 230 676 230 676 218 614 c 1,29,-1
 228 614 l 1,30,31
 274 658 274 658 335 684.5 c 128,-1,32
 396 711 396 711 460 711 c 0,33,34
 590 711 590 711 665.5 613.5 c 128,-1,35
 741 516 741 516 741 372 c 0,36,37
 741 269 741 269 693 178.5 c 128,-1,38
 645 88 645 88 562 33 c 128,-1,39
 479 -22 479 -22 384 -22 c 0,40,41
 310 -22 310 -22 251 2 c 128,-1,42
 192 26 192 26 154.5 66.5 c 128,-1,43
 117 107 117 107 92 164.5 c 128,-1,44
 67 222 67 222 56.5 285.5 c 128,-1,45
 46 349 46 349 46 422 c 0,17,18
EndSplineSet
EndChar

StartChar: slash
Encoding: 47 47 179
Width: 651
VWidth: 0
Flags: MW
LayerCount: 2
Fore
SplineSet
42 -360 m 1,0,-1
 504 1238 l 1,1,-1
 611 1244 l 1,2,-1
 146 -354 l 1,3,-1
 42 -360 l 1,0,-1
EndSplineSet
EndChar

StartChar: softhyphen
Encoding: 173 173 180
Width: 559
VWidth: 0
Flags: MW
LayerCount: 2
Fore
SplineSet
74 420 m 1,0,-1
 81 509 l 1,1,-1
 490 570 l 1,2,-1
 480 480 l 1,3,-1
 74 420 l 1,0,-1
EndSplineSet
EndChar

StartChar: sterling
Encoding: 163 163 182
Width: 1100
VWidth: 0
Flags: MW
LayerCount: 2
Fore
SplineSet
71 0 m 1,0,-1
 77 58 l 1,1,-1
 245 92 l 1,2,3
 285 175 285 175 285 315 c 2,4,-1
 285 407 l 1,5,-1
 108 398 l 1,6,-1
 119 474 l 1,7,-1
 289 483 l 1,8,-1
 292 600 l 2,9,10
 294 672 294 672 314.5 733 c 128,-1,11
 335 794 335 794 375 841 c 128,-1,12
 415 888 415 888 479.5 914.5 c 128,-1,13
 544 941 544 941 627 941 c 0,14,15
 740 941 740 941 806 895.5 c 128,-1,16
 872 850 872 850 872 776 c 0,17,18
 872 732 872 732 838.5 703 c 128,-1,19
 805 674 805 674 760 669 c 1,20,21
 741 772 741 772 703.5 822 c 128,-1,22
 666 872 666 872 599 872 c 0,23,24
 556 872 556 872 527 860 c 128,-1,25
 498 848 498 848 480.5 826.5 c 128,-1,26
 463 805 463 805 454 762.5 c 128,-1,27
 445 720 445 720 442 673 c 128,-1,28
 439 626 439 626 439 549 c 2,29,-1
 439 491 l 1,30,-1
 686 505 l 1,31,-1
 676 430 l 1,32,-1
 436 413 l 1,33,-1
 436 370 l 2,34,35
 436 260 436 260 420.5 189.5 c 128,-1,36
 405 119 405 119 368 78 c 1,37,-1
 784 78 l 1,38,-1
 882 316 l 1,39,-1
 944 300 l 1,40,-1
 916 0 l 1,41,-1
 71 0 l 1,0,-1
EndSplineSet
EndChar

StartChar: t
Encoding: 116 116 183
Width: 942
VWidth: 845
Flags: MW
LayerCount: 2
Fore
SplineSet
56 922 m 1,0,-1
 886 922 l 1,1,-1
 858 636 l 1,2,-1
 785 647 l 1,3,-1
 757 850 l 1,4,-1
 542 850 l 1,5,-1
 542 94 l 1,6,-1
 698 63 l 1,7,-1
 686 0 l 1,8,-1
 245 0 l 1,9,-1
 251 58 l 1,10,-1
 393 96 l 1,11,-1
 393 850 l 1,12,-1
 172 850 l 1,13,-1
 136 640 l 1,14,-1
 64 650 l 1,15,-1
 56 922 l 1,0,-1
EndSplineSet
EndChar

StartChar: thorn
Encoding: 254 254 184
Width: 912
VWidth: 845
Flags: MW
LayerCount: 2
Fore
SplineSet
64 864 m 1,0,-1
 72 922 l 1,1,-1
 516 922 l 1,2,-1
 508 864 l 1,3,-1
 362 834 l 1,4,-1
 362 756 l 1,5,6
 412 759 412 759 466 759 c 0,7,8
 528 759 528 759 582 750.5 c 128,-1,9
 636 742 636 742 684.5 722.5 c 128,-1,10
 733 703 733 703 767.5 672.5 c 128,-1,11
 802 642 802 642 822 596 c 128,-1,12
 842 550 842 550 842 490 c 0,13,14
 842 415 842 415 807 353.5 c 128,-1,15
 772 292 772 292 714 253.5 c 128,-1,16
 656 215 656 215 581 196.5 c 128,-1,17
 506 178 506 178 426 182 c 1,18,-1
 412 244 l 1,19,-1
 466 246 l 2,20,21
 573 250 573 250 628.5 310 c 128,-1,22
 684 370 684 370 684 466 c 0,23,24
 684 512 684 512 669 552.5 c 128,-1,25
 654 593 654 593 624 625.5 c 128,-1,26
 594 658 594 658 544 677 c 128,-1,27
 494 696 494 696 430 696 c 0,28,29
 405 696 405 696 362 692 c 1,30,-1
 362 90 l 1,31,-1
 519 63 l 1,32,-1
 510 0 l 1,33,-1
 72 0 l 1,34,-1
 78 58 l 1,35,-1
 211 96 l 1,36,-1
 211 831 l 1,37,-1
 64 864 l 1,0,-1
EndSplineSet
EndChar

StartChar: three
Encoding: 51 51 185
Width: 725
VWidth: 0
Flags: MW
LayerCount: 2
Fore
SplineSet
-1 -136 m 0,0,1
 -1 -98 -1 -98 31.5 -63 c 128,-1,2
 64 -28 64 -28 112 -24 c 1,3,4
 119 -62 119 -62 133.5 -95 c 128,-1,5
 148 -128 148 -128 170 -157 c 128,-1,6
 192 -186 192 -186 225.5 -203 c 128,-1,7
 259 -220 259 -220 300 -220 c 0,8,9
 420 -220 420 -220 477 -154 c 128,-1,10
 534 -88 534 -88 534 24 c 0,11,12
 534 147 534 147 446.5 223.5 c 128,-1,13
 359 300 359 300 216 305 c 1,14,-1
 210 355 l 1,15,16
 261 373 261 373 307 400 c 128,-1,17
 353 427 353 427 395.5 465.5 c 128,-1,18
 438 504 438 504 463 558.5 c 128,-1,19
 488 613 488 613 488 676 c 0,20,21
 488 715 488 715 480 749.5 c 128,-1,22
 472 784 472 784 455 813 c 128,-1,23
 438 842 438 842 408.5 859 c 128,-1,24
 379 876 379 876 339 875 c 0,25,26
 202 874 202 874 132 708 c 1,27,-1
 65 730 l 1,28,29
 82 786 82 786 124 841 c 128,-1,30
 166 896 166 896 238 937.5 c 128,-1,31
 310 979 310 979 390 979 c 0,32,33
 500 979 500 979 570.5 905.5 c 128,-1,34
 641 832 641 832 641 722 c 0,35,36
 641 666 641 666 617 610.5 c 128,-1,37
 593 555 593 555 555.5 513.5 c 128,-1,38
 518 472 518 472 477 441 c 128,-1,39
 436 410 436 410 396 394 c 1,40,-1
 396 386 l 1,41,42
 509 376 509 376 596 285 c 128,-1,43
 683 194 683 194 683 74 c 0,44,45
 683 -28 683 -28 626.5 -113 c 128,-1,46
 570 -198 570 -198 475 -246 c 128,-1,47
 380 -294 380 -294 268 -294 c 0,48,49
 142 -294 142 -294 70.5 -249.5 c 128,-1,50
 -1 -205 -1 -205 -1 -136 c 0,0,1
EndSplineSet
EndChar

StartChar: threequarters
Encoding: 190 190 186
Width: 1322
VWidth: 0
Flags: MW
LayerCount: 2
Fore
SplineSet
801 274 m 1,0,-1
 1005 274 l 1,1,-1
 1005 532 l 1,2,-1
 801 274 l 1,0,-1
695 250 m 1,3,-1
 1091 730 l 1,4,-1
 1141 721 l 1,5,6
 1133 626 1133 626 1133 425 c 2,7,-1
 1133 274 l 1,8,-1
 1281 274 l 1,9,-1
 1272 188 l 1,10,-1
 1133 188 l 1,11,-1
 1133 74 l 1,12,-1
 1252 55 l 1,13,-1
 1246 0 l 1,14,-1
 852 0 l 1,15,-1
 857 50 l 1,16,-1
 1007 76 l 1,17,-1
 1007 192 l 1,18,-1
 705 192 l 1,19,-1
 695 250 l 1,3,-1
242 -26 m 1,20,-1
 619 588 l 1,21,-1
 972 1211 l 1,22,-1
 1109 1207 l 1,23,-1
 1106 1190 l 1,24,-1
 740 591 l 1,25,-1
 393 -40 l 1,26,-1
 242 -26 l 1,20,-1
45 595 m 1,27,-1
 79 766 l 1,28,-1
 138 759 l 1,29,-1
 144 632 l 1,30,31
 159 609 159 609 192 592.5 c 128,-1,32
 225 576 225 576 263 576 c 0,33,34
 332 576 332 576 374.5 617.5 c 128,-1,35
 417 659 417 659 417 726 c 0,36,37
 417 790 417 790 350 832 c 128,-1,38
 283 874 283 874 193 876 c 1,39,-1
 185 915 l 1,40,41
 289 956 289 956 332 998 c 0,42,43
 375 1041 375 1041 375 1092 c 0,44,45
 375 1139 375 1139 346.5 1176.5 c 128,-1,46
 318 1214 318 1214 269 1214 c 0,47,48
 199 1214 199 1214 175 1188 c 1,49,-1
 147 1046 l 1,50,-1
 85 1052 l 1,51,-1
 81 1208 l 1,52,53
 107 1239 107 1239 173 1262.5 c 128,-1,54
 239 1286 239 1286 316 1286 c 0,55,56
 404 1286 404 1286 463.5 1242 c 128,-1,57
 523 1198 523 1198 523 1126 c 0,58,59
 523 1055 523 1055 472.5 1008 c 128,-1,60
 422 961 422 961 345 937 c 1,61,-1
 345 930 l 1,62,63
 448 918 448 918 505.5 867.5 c 128,-1,64
 563 817 563 817 563 742 c 0,65,66
 563 643 563 643 469.5 575.5 c 128,-1,67
 376 508 376 508 251 508 c 0,68,69
 178 508 178 508 121.5 532 c 128,-1,70
 65 556 65 556 45 595 c 1,27,-1
EndSplineSet
EndChar

StartChar: three.superior
Encoding: 179 179 187
Width: 620
VWidth: 0
Flags: MW
LayerCount: 2
Fore
SplineSet
50 598 m 1,0,-1
 83 768 l 1,1,-1
 142 762 l 1,2,-1
 148 634 l 1,3,4
 163 612 163 612 196.5 595.5 c 128,-1,5
 230 579 230 579 268 579 c 0,6,7
 337 579 337 579 379 620 c 128,-1,8
 421 661 421 661 421 728 c 0,9,10
 421 792 421 792 354.5 834 c 128,-1,11
 288 876 288 876 198 878 c 1,12,-1
 190 918 l 1,13,14
 287 956 287 956 329 993 c 0,15,16
 380 1038 380 1038 380 1094 c 0,17,18
 380 1141 380 1141 351 1179 c 128,-1,19
 322 1217 322 1217 273 1217 c 0,20,21
 205 1217 205 1217 180 1190 c 1,22,-1
 152 1049 l 1,23,-1
 89 1055 l 1,24,-1
 85 1210 l 1,25,26
 111 1241 111 1241 177 1264.5 c 128,-1,27
 243 1288 243 1288 320 1288 c 0,28,29
 408 1288 408 1288 467.5 1244.5 c 128,-1,30
 527 1201 527 1201 527 1129 c 0,31,32
 527 1058 527 1058 476.5 1011 c 128,-1,33
 426 964 426 964 349 940 c 1,34,-1
 349 933 l 1,35,36
 452 921 452 921 510 870.5 c 128,-1,37
 568 820 568 820 568 745 c 0,38,39
 568 646 568 646 474.5 578.5 c 128,-1,40
 381 511 381 511 256 511 c 0,41,42
 183 511 183 511 126.5 535 c 128,-1,43
 70 559 70 559 50 598 c 1,0,-1
EndSplineSet
EndChar

StartChar: tilde
Encoding: 732 732 188
Width: 638
VWidth: 0
Flags: W
HStem: 1370.5 161
VStem: 84.5 35<1375.52 1401.61>
LayerCount: 2
Fore
SplineSet
84.5 1379 m 1,0,1
 97.7029 1445.43 97.7029 1445.43 145.284 1489.97 c 128,-1,2
 192.866 1534.51 192.866 1534.51 252 1516.1 c 1,3,-1
 401.5 1481.19 l 1,4,5
 435.753 1463.86 435.753 1463.86 466.402 1475.95 c 128,-1,6
 497.052 1488.03 497.052 1488.03 512.5 1531.5 c 1,7,-1
 553 1526.5 l 1,8,9
 547.247 1497.94 547.247 1497.94 533.288 1470.18 c 128,-1,10
 519.328 1442.43 519.328 1442.43 496.976 1418.87 c 128,-1,11
 474.624 1395.31 474.624 1395.31 445.676 1387.03 c 128,-1,12
 416.729 1378.74 416.729 1378.74 381 1389.11 c 1,13,-1
 232.5 1424.95 l 1,14,15
 198.143 1441.99 198.143 1441.99 167.083 1428.88 c 128,-1,16
 136.024 1415.76 136.024 1415.76 119.5 1370.5 c 1,17,-1
 84.5 1379 l 1,0,1
EndSplineSet
EndChar

StartChar: two
Encoding: 50 50 189
Width: 795
VWidth: 0
Flags: MW
LayerCount: 2
Back
SplineSet
345.108 1 m 1,0,-1
 83.9688 51 l 1,1,-1
 212.387 186.398 l 1,2,3
 233.396 202.377 233.396 202.377 297.489 256.607 c 0
 361.582 310.838 361.582 310.838 367.289 315.542 c 0,4,5
 424.589 363.52 424.589 363.52 470.533 412.122 c 0,6,7
 514.704 459.773 514.704 459.773 551.635 517.744 c 0,8,9
 588.318 575.328 588.318 575.328 598.766 635.336 c 1,10,11
 610.114 674.375 610.114 674.375 612.312 709.296 c 0,12,13
 614.888 750.263 614.888 750.263 605.947 781.421 c 1,14,15
 596.253 882.136 596.253 882.136 508.303 889.375 c 1,16,17
 434.706 896.971 434.706 896.971 375.184 808.727 c 1,18,19
 370.772 808.727 370.772 808.727 352.712 810.119 c 0
 334.653 811.511 334.653 811.511 320.532 811.246 c 0
 306.411 810.98 306.411 810.98 299.727 807.638 c 1,20,21
 284.586 817.234 284.586 817.234 278.1 821.885 c 0,22,23
 273.021 825.528 273.021 825.528 275.639 821.469 c 0,24,25
 277.661 818.335 277.661 818.335 291.805 807.794 c 1,26,27
 299.907 812.109 299.907 812.109 298.341 817.949 c 0
 296.775 823.789 296.775 823.789 296.818 828.931 c 0
 296.861 834.073 296.861 834.073 304.125 834.073 c 1,28,29
 372.337 865.321 372.337 865.321 422.803 865.185 c 0,30,31
 473.105 865.051 473.105 865.051 503.108 833.691 c 1,32,33
 530.158 841.087 530.158 841.087 561.902 838.598 c 0,34,35
 592.089 836.233 592.089 836.233 622.062 821.282 c 1,36,37
 684.046 806.227 684.046 806.227 705.934 753.854 c 0,38,39
 727.885 701.326 727.885 701.326 716.488 623.376 c 0,40,41
 705.399 552.624 705.399 552.624 657.224 484.786 c 0,42,43
 615.539 426.088 615.539 426.088 553.635 367.147 c 0,44,45
 505.411 321.772 505.411 321.772 430.198 264.395 c 0,46,47
 342.296 197.338 342.296 197.338 318.906 177.919 c 2,48,-1
 244.824 114.004 l 1,49,-1
 635.281 114.004 l 1,50,-1
 727.096 261.277 l 1,51,-1
 785.042 252.806 l 1,52,-1
 345.108 1 l 1,0,-1
EndSplineSet
Fore
SplineSet
43 74 m 1,0,-1
 278 252 l 1,1,2
 418 356 418 356 477 450.5 c 128,-1,3
 536 545 536 545 536 653 c 0,4,5
 536 755 536 755 488 818.5 c 128,-1,6
 440 882 440 882 356 882 c 0,7,8
 284 882 284 882 222 817.5 c 128,-1,9
 160 753 160 753 136 662 c 1,10,-1
 70 686 l 1,11,12
 79 735 79 735 109.5 786 c 128,-1,13
 140 837 140 837 184 880 c 128,-1,14
 228 923 228 923 289.5 951 c 128,-1,15
 351 979 351 979 416 980 c 0,16,17
 549 981 549 981 624.5 901.5 c 128,-1,18
 700 822 700 822 700 692 c 0,19,20
 700 620 700 620 674.5 555 c 128,-1,21
 649 490 649 490 595.5 426.5 c 128,-1,22
 542 363 542 363 472 304.5 c 128,-1,23
 402 246 402 246 300 175 c 2,24,-1
 214 116 l 1,25,-1
 625 116 l 1,26,-1
 704 296 l 1,27,-1
 758 286 l 1,28,-1
 717 0 l 1,29,-1
 50 0 l 1,30,-1
 43 74 l 1,0,-1
EndSplineSet
EndChar

StartChar: two.superior
Encoding: 178 178 190
Width: 655
VWidth: 0
Flags: MW
LayerCount: 2
Fore
SplineSet
53 626 m 1,0,-1
 207 750 l 2,1,2
 315 838 315 838 363.5 903.5 c 128,-1,3
 412 969 412 969 412 1040 c 0,4,5
 412 1106 412 1106 382.5 1150 c 128,-1,6
 353 1194 353 1194 289 1194 c 0,7,8
 204 1194 204 1194 174 1154 c 1,9,-1
 150 1014 l 1,10,-1
 95 1019 l 1,11,-1
 90 1184 l 1,12,13
 117 1224 117 1224 186.5 1249 c 128,-1,14
 256 1274 256 1274 335 1274 c 0,15,16
 442 1274 442 1274 503.5 1223 c 128,-1,17
 565 1172 565 1172 565 1074 c 0,18,19
 565 1037 565 1037 555 1002.5 c 128,-1,20
 545 968 545 968 521.5 934 c 128,-1,21
 498 900 498 900 473.5 872 c 128,-1,22
 449 844 449 844 405 807.5 c 128,-1,23
 361 771 361 771 327 744.5 c 128,-1,24
 293 718 293 718 233 675 c 1,25,-1
 198 652 l 1,26,-1
 491 652 l 1,27,-1
 553 802 l 1,28,-1
 599 790 l 1,29,-1
 579 548 l 1,30,-1
 51 548 l 1,31,-1
 53 626 l 1,0,-1
EndSplineSet
EndChar

StartChar: u
Encoding: 117 117 191
Width: 1131
VWidth: 845
Flags: MW
LayerCount: 2
Fore
SplineSet
44 864 m 1,0,-1
 52 922 l 1,1,-1
 490 922 l 1,2,-1
 484 864 l 1,3,-1
 345 834 l 1,4,-1
 345 360 l 2,5,6
 345 206 345 206 411.5 140 c 128,-1,7
 478 74 478 74 598 74 c 0,8,9
 720 74 720 74 782.5 133 c 128,-1,10
 845 192 845 192 845 334 c 2,11,-1
 846 831 l 1,12,-1
 692 864 l 1,13,-1
 700 922 l 1,14,-1
 1091 922 l 1,15,-1
 1082 864 l 1,16,-1
 946 834 l 1,17,-1
 942 360 l 2,18,19
 940 163 940 163 844 68 c 128,-1,20
 748 -27 748 -27 556 -27 c 0,21,22
 196 -26 196 -26 196 334 c 2,23,-1
 196 831 l 1,24,-1
 44 864 l 1,0,-1
EndSplineSet
EndChar

StartChar: uacute
Encoding: 250 250 192
Width: 1075
VWidth: 0
Flags: MW
LayerCount: 2
Fore
SplineSet
538 1031 m 1,0,-1
 666 1362 l 1,1,-1
 769 1323 l 1,2,-1
 586 1002 l 1,3,-1
 538 1031 l 1,0,-1
48 864 m 1,4,-1
 56 922 l 1,5,-1
 494 922 l 1,6,-1
 488 864 l 1,7,-1
 348 834 l 1,8,-1
 348 360 l 2,9,10
 348 206 348 206 415 140 c 128,-1,11
 482 74 482 74 602 74 c 0,12,13
 724 74 724 74 786 133 c 128,-1,14
 848 192 848 192 848 334 c 2,15,-1
 850 831 l 1,16,-1
 696 864 l 1,17,-1
 703 922 l 1,18,-1
 1094 922 l 1,19,-1
 1085 864 l 1,20,-1
 949 834 l 1,21,-1
 945 360 l 2,22,23
 943 163 943 163 847.5 68 c 128,-1,24
 752 -27 752 -27 560 -27 c 0,25,26
 200 -26 200 -26 200 334 c 2,27,-1
 200 831 l 1,28,-1
 48 864 l 1,4,-1
EndSplineSet
EndChar

StartChar: ucircumflex
Encoding: 251 251 193
Width: 1075
VWidth: 0
Flags: MW
LayerCount: 2
Fore
SplineSet
384 1030 m 1,0,-1
 551 1210 l 1,1,-1
 606 1224 l 1,2,-1
 784 1038 l 1,3,-1
 744 1001 l 1,4,-1
 572 1124 l 1,5,-1
 562 1124 l 1,6,-1
 414 1000 l 1,7,-1
 384 1030 l 1,0,-1
48 864 m 1,8,-1
 56 922 l 1,9,-1
 494 922 l 1,10,-1
 488 864 l 1,11,-1
 348 834 l 1,12,-1
 348 360 l 2,13,14
 348 206 348 206 415 140 c 128,-1,15
 482 74 482 74 602 74 c 0,16,17
 724 74 724 74 786 133 c 128,-1,18
 848 192 848 192 848 334 c 2,19,-1
 850 831 l 1,20,-1
 696 864 l 1,21,-1
 703 922 l 1,22,-1
 1094 922 l 1,23,-1
 1085 864 l 1,24,-1
 949 834 l 1,25,-1
 945 360 l 2,26,27
 943 163 943 163 847.5 68 c 128,-1,28
 752 -27 752 -27 560 -27 c 0,29,30
 200 -26 200 -26 200 334 c 2,31,-1
 200 831 l 1,32,-1
 48 864 l 1,8,-1
EndSplineSet
EndChar

StartChar: udieresis
Encoding: 252 252 194
Width: 1075
VWidth: 0
Flags: MW
LayerCount: 2
Fore
SplineSet
650 1117 m 0,0,1
 650 1153 650 1153 669.5 1173.5 c 128,-1,2
 689 1194 689 1194 719 1194 c 0,3,4
 750 1194 750 1194 771 1173 c 128,-1,5
 792 1152 792 1152 792 1117 c 0,6,7
 792 1079 792 1079 772 1057.5 c 128,-1,8
 752 1036 752 1036 720 1036 c 0,9,10
 688 1036 688 1036 669 1058 c 128,-1,11
 650 1080 650 1080 650 1117 c 0,0,1
381 1117 m 0,12,13
 381 1153 381 1153 401 1173.5 c 128,-1,14
 421 1194 421 1194 451 1194 c 0,15,16
 482 1194 482 1194 502.5 1173.5 c 128,-1,17
 523 1153 523 1153 523 1117 c 0,18,19
 523 1079 523 1079 504 1057.5 c 128,-1,20
 485 1036 485 1036 452 1036 c 0,21,22
 420 1036 420 1036 400.5 1058 c 128,-1,23
 381 1080 381 1080 381 1117 c 0,12,13
48 864 m 1,24,-1
 56 922 l 1,25,-1
 494 922 l 1,26,-1
 488 864 l 1,27,-1
 348 834 l 1,28,-1
 348 360 l 2,29,30
 348 206 348 206 415 140 c 128,-1,31
 482 74 482 74 602 74 c 0,32,33
 724 74 724 74 786 133 c 128,-1,34
 848 192 848 192 848 334 c 2,35,-1
 850 831 l 1,36,-1
 696 864 l 1,37,-1
 703 922 l 1,38,-1
 1094 922 l 1,39,-1
 1085 864 l 1,40,-1
 949 834 l 1,41,-1
 945 360 l 2,42,43
 943 163 943 163 847.5 68 c 128,-1,44
 752 -27 752 -27 560 -27 c 0,45,46
 200 -26 200 -26 200 334 c 2,47,-1
 200 831 l 1,48,-1
 48 864 l 1,24,-1
EndSplineSet
EndChar

StartChar: ugrave
Encoding: 249 249 195
Width: 1075
VWidth: 0
Flags: MW
LayerCount: 2
Fore
SplineSet
386 1320 m 1,0,-1
 491 1358 l 1,1,-1
 623 1023 l 1,2,-1
 572 992 l 1,3,-1
 386 1320 l 1,0,-1
48 864 m 1,4,-1
 56 922 l 1,5,-1
 494 922 l 1,6,-1
 488 864 l 1,7,-1
 348 834 l 1,8,-1
 348 360 l 2,9,10
 348 206 348 206 415 140 c 128,-1,11
 482 74 482 74 602 74 c 0,12,13
 724 74 724 74 786 133 c 128,-1,14
 848 192 848 192 848 334 c 2,15,-1
 850 831 l 1,16,-1
 696 864 l 1,17,-1
 703 922 l 1,18,-1
 1094 922 l 1,19,-1
 1085 864 l 1,20,-1
 949 834 l 1,21,-1
 945 360 l 2,22,23
 943 163 943 163 847.5 68 c 128,-1,24
 752 -27 752 -27 560 -27 c 0,25,26
 200 -26 200 -26 200 334 c 2,27,-1
 200 831 l 1,28,-1
 48 864 l 1,4,-1
EndSplineSet
EndChar

StartChar: tilde
Encoding: 732 732 196
Width: 638
VWidth: 0
Flags: MW
LayerCount: 2
Fore
SplineSet
84 1379 m 1,0,1
 97 1445 97 1445 145 1489.5 c 128,-1,2
 193 1534 193 1534 252 1516 c 1,3,-1
 402 1481 l 1,4,5
 436 1464 436 1464 466 1476 c 128,-1,6
 496 1488 496 1488 512 1532 c 1,7,-1
 553 1526 l 1,8,9
 547 1497 547 1497 533 1469.5 c 128,-1,10
 519 1442 519 1442 497 1418.5 c 128,-1,11
 475 1395 475 1395 446 1387 c 128,-1,12
 417 1379 417 1379 381 1389 c 1,13,-1
 232 1425 l 1,14,15
 197 1442 197 1442 166.5 1429 c 128,-1,16
 136 1416 136 1416 120 1370 c 1,17,-1
 84 1379 l 1,0,1
EndSplineSet
EndChar

StartChar: Germandbls
Encoding: 7838 7838 197
Width: 1263
VWidth: 0
Flags: MW
LayerCount: 2
Fore
SplineSet
38 0 m 1,0,-1
 44 58 l 1,1,-1
 212 96 l 1,2,-1
 212 757 l 2,3,4
 212 1015 212 1015 336 1137.5 c 128,-1,5
 460 1260 460 1260 691 1260 c 0,6,7
 765 1260 765 1260 842.5 1247.5 c 128,-1,8
 920 1235 920 1235 990 1210.5 c 128,-1,9
 1060 1186 1060 1186 1105 1143.5 c 128,-1,10
 1150 1101 1150 1101 1150 1047 c 0,11,12
 1150 1000 1150 1000 1125.5 975 c 128,-1,13
 1101 950 1101 950 1048 932 c 1,14,15
 988 1154 988 1154 836 1153 c 0,16,17
 792 1153 792 1153 749.5 1128.5 c 128,-1,18
 707 1104 707 1104 677.5 1055 c 128,-1,19
 648 1006 648 1006 648 946 c 0,20,21
 648 902 648 902 663.5 864 c 128,-1,22
 679 826 679 826 706 796.5 c 128,-1,23
 733 767 733 767 769 739 c 128,-1,24
 805 711 805 711 845.5 689 c 128,-1,25
 886 667 886 667 929 641.5 c 128,-1,26
 972 616 972 616 1012.5 593 c 128,-1,27
 1053 570 1053 570 1089 540 c 128,-1,28
 1125 510 1125 510 1152 478 c 128,-1,29
 1179 446 1179 446 1194.5 403 c 128,-1,30
 1210 360 1210 360 1210 312 c 0,31,32
 1210 158 1210 158 1097.5 66.5 c 128,-1,33
 985 -25 985 -25 806 -25 c 0,34,35
 700 -25 700 -25 610.5 14.5 c 128,-1,36
 521 54 521 54 476 118 c 1,37,-1
 497 388 l 1,38,-1
 569 377 l 1,39,-1
 600 179 l 1,40,41
 630 125 630 125 698.5 90.5 c 128,-1,42
 767 56 767 56 844 56 c 0,43,44
 888 56 888 56 926.5 67.5 c 128,-1,45
 965 79 965 79 997 102 c 128,-1,46
 1029 125 1029 125 1047 164.5 c 128,-1,47
 1065 204 1065 204 1065 256 c 0,48,49
 1065 295 1065 295 1049.5 329.5 c 128,-1,50
 1034 364 1034 364 1007.5 390 c 128,-1,51
 981 416 981 416 946 442 c 128,-1,52
 911 468 911 468 871 489.5 c 128,-1,53
 831 511 831 511 789 535.5 c 128,-1,54
 747 560 747 560 707.5 584 c 128,-1,55
 668 608 668 608 632.5 638.5 c 128,-1,56
 597 669 597 669 570.5 702 c 128,-1,57
 544 735 544 735 529 779.5 c 128,-1,58
 514 824 514 824 514 874 c 0,59,60
 514 983 514 983 575.5 1071.5 c 128,-1,61
 637 1160 637 1160 739 1184 c 1,62,-1
 740 1188 l 1,63,64
 717 1191 717 1191 653 1191 c 0,65,66
 507 1191 507 1191 432.5 1083 c 128,-1,67
 358 975 358 975 358 780 c 2,68,-1
 358 0 l 1,69,-1
 38 0 l 1,0,-1
EndSplineSet
AlternateSubs2: "Alternate Substitution in Latin lookup 0-1" Germandbls.alt
EndChar

StartChar: Germandbls.alt
Encoding: 65536 -1 198
Width: 1257
VWidth: 0
Flags: MW
LayerCount: 2
Fore
SplineSet
34 0 m 1,0,-1
 41 58 l 1,1,-1
 208 96 l 1,2,-1
 208 720 l 2,3,4
 208 866 208 866 240.5 971.5 c 128,-1,5
 273 1077 273 1077 336.5 1139.5 c 128,-1,6
 400 1202 400 1202 487 1231 c 128,-1,7
 574 1260 574 1260 688 1260 c 0,8,9
 811 1260 811 1260 937 1249 c 128,-1,10
 1063 1238 1063 1238 1108 1223 c 1,11,-1
 1108 1172 l 1,12,-1
 785 744 l 1,13,14
 806 730 806 730 854.5 703.5 c 128,-1,15
 903 677 903 677 945 654.5 c 128,-1,16
 987 632 987 632 1037.5 595 c 128,-1,17
 1088 558 1088 558 1123.5 520.5 c 128,-1,18
 1159 483 1159 483 1183.5 430.5 c 128,-1,19
 1208 378 1208 378 1208 320 c 0,20,21
 1208 166 1208 166 1094 70.5 c 128,-1,22
 980 -25 980 -25 802 -25 c 0,23,24
 697 -25 697 -25 607.5 15.5 c 128,-1,25
 518 56 518 56 472 122 c 1,26,-1
 494 396 l 1,27,-1
 568 385 l 1,28,-1
 601 183 l 1,29,30
 632 128 632 128 698 92 c 128,-1,31
 764 56 764 56 840 56 c 0,32,33
 884 56 884 56 923 68.5 c 128,-1,34
 962 81 962 81 993.5 105.5 c 128,-1,35
 1025 130 1025 130 1043.5 171 c 128,-1,36
 1062 212 1062 212 1062 264 c 0,37,38
 1062 307 1062 307 1039 349.5 c 128,-1,39
 1016 392 1016 392 983.5 424.5 c 128,-1,40
 951 457 951 457 899 493 c 128,-1,41
 847 529 847 529 805.5 552.5 c 128,-1,42
 764 576 764 576 705.5 609 c 128,-1,43
 647 642 647 642 618 660 c 1,44,-1
 596 704 l 1,45,-1
 926 1148 l 1,46,-1
 926 1152 l 1,47,48
 886 1168 886 1168 794 1179.5 c 128,-1,49
 702 1191 702 1191 650 1191 c 0,50,51
 502 1191 502 1191 428 1081 c 128,-1,52
 354 971 354 971 354 743 c 2,53,-1
 355 0 l 1,54,-1
 34 0 l 1,0,-1
EndSplineSet
EndChar

StartChar: v
Encoding: 118 118 199
Width: 1034
VWidth: 845
Flags: MW
LayerCount: 2
Fore
SplineSet
41 866 m 1,0,-1
 48 922 l 1,1,-1
 466 922 l 1,2,-1
 460 866 l 1,3,-1
 326 834 l 1,4,-1
 543 200 l 1,5,-1
 775 830 l 1,6,-1
 631 866 l 1,7,-1
 636 922 l 1,8,-1
 990 922 l 1,9,-1
 984 866 l 1,10,-1
 882 834 l 1,11,-1
 566 -4 l 1,12,-1
 464 -25 l 1,13,-1
 161 830 l 1,14,-1
 41 866 l 1,0,-1
EndSplineSet
EndChar

StartChar: w
Encoding: 119 119 200
Width: 1440
VWidth: 845
Flags: MW
LayerCount: 2
Fore
SplineSet
45 866 m 1,0,-1
 53 922 l 1,1,-1
 456 922 l 1,2,-1
 448 868 l 1,3,-1
 312 834 l 1,4,-1
 494 224 l 1,5,-1
 684 876 l 1,6,-1
 794 892 l 1,7,-1
 986 228 l 1,8,-1
 1168 828 l 1,9,-1
 1014 867 l 1,10,-1
 1022 922 l 1,11,-1
 1392 922 l 1,12,-1
 1386 866 l 1,13,-1
 1280 832 l 1,14,-1
 1011 -4 l 1,15,-1
 906 -25 l 1,16,-1
 710 656 l 1,17,-1
 522 -4 l 1,18,-1
 410 -24 l 1,19,-1
 156 830 l 1,20,-1
 45 866 l 1,0,-1
EndSplineSet
EndChar

StartChar: x
Encoding: 120 120 201
Width: 1009
VWidth: 845
Flags: MW
LayerCount: 2
Fore
SplineSet
44 0 m 1,0,-1
 52 56 l 1,1,-1
 158 92 l 1,2,-1
 429 452 l 1,3,-1
 168 832 l 1,4,-1
 52 867 l 1,5,-1
 60 922 l 1,6,-1
 466 922 l 1,7,-1
 458 867 l 1,8,-1
 338 834 l 1,9,-1
 531 556 l 1,10,-1
 728 833 l 1,11,-1
 598 864 l 1,12,-1
 606 922 l 1,13,-1
 948 922 l 1,14,-1
 944 866 l 1,15,-1
 838 836 l 1,16,-1
 586 485 l 1,17,-1
 854 84 l 1,18,-1
 970 58 l 1,19,-1
 960 0 l 1,20,-1
 562 0 l 1,21,-1
 570 50 l 1,22,-1
 686 86 l 1,23,-1
 485 383 l 1,24,-1
 272 88 l 1,25,-1
 403 62 l 1,26,-1
 392 0 l 1,27,-1
 44 0 l 1,0,-1
EndSplineSet
EndChar

StartChar: y
Encoding: 121 121 202
Width: 948
VWidth: 845
Flags: MW
LayerCount: 2
Fore
SplineSet
28 866 m 1,0,-1
 37 922 l 1,1,-1
 446 922 l 1,2,-1
 438 866 l 1,3,-1
 312 834 l 1,4,-1
 514 477 l 1,5,-1
 713 830 l 1,6,-1
 574 866 l 1,7,-1
 580 922 l 1,8,-1
 922 922 l 1,9,-1
 916 866 l 1,10,-1
 819 834 l 1,11,-1
 560 382 l 1,12,-1
 560 90 l 1,13,-1
 712 63 l 1,14,-1
 702 0 l 1,15,-1
 260 0 l 1,16,-1
 268 58 l 1,17,-1
 411 96 l 1,18,-1
 411 370 l 1,19,-1
 147 830 l 1,20,-1
 28 866 l 1,0,-1
EndSplineSet
EndChar

StartChar: yacute
Encoding: 253 253 203
Width: 959
VWidth: 0
Flags: MW
LayerCount: 2
Fore
SplineSet
470 1030 m 1,0,-1
 598 1361 l 1,1,-1
 702 1322 l 1,2,-1
 518 1001 l 1,3,-1
 470 1030 l 1,0,-1
37 866 m 1,4,-1
 46 922 l 1,5,-1
 455 922 l 1,6,-1
 447 866 l 1,7,-1
 320 834 l 1,8,-1
 522 477 l 1,9,-1
 722 830 l 1,10,-1
 582 866 l 1,11,-1
 588 922 l 1,12,-1
 931 922 l 1,13,-1
 924 866 l 1,14,-1
 828 834 l 1,15,-1
 569 382 l 1,16,-1
 569 90 l 1,17,-1
 720 63 l 1,18,-1
 711 0 l 1,19,-1
 269 0 l 1,20,-1
 277 58 l 1,21,-1
 420 96 l 1,22,-1
 420 370 l 1,23,-1
 156 830 l 1,24,-1
 37 866 l 1,4,-1
EndSplineSet
EndChar

StartChar: ydieresis
Encoding: 255 255 204
Width: 1513
VWidth: 0
Flags: MW
LayerCount: 2
Fore
SplineSet
558 1111 m 0,0,1
 558 1147 558 1147 577.5 1167.5 c 128,-1,2
 597 1188 597 1188 627 1188 c 0,3,4
 658 1188 658 1188 679 1167 c 128,-1,5
 700 1146 700 1146 700 1111 c 0,6,7
 700 1073 700 1073 680 1051.5 c 128,-1,8
 660 1030 660 1030 628 1030 c 0,9,10
 596 1030 596 1030 577 1052 c 128,-1,11
 558 1074 558 1074 558 1111 c 0,0,1
289 1111 m 0,12,13
 289 1147 289 1147 309 1167.5 c 128,-1,14
 329 1188 329 1188 359 1188 c 0,15,16
 390 1188 390 1188 410.5 1167.5 c 128,-1,17
 431 1147 431 1147 431 1111 c 0,18,19
 431 1073 431 1073 412 1051.5 c 128,-1,20
 393 1030 393 1030 360 1030 c 0,21,22
 328 1030 328 1030 308.5 1052 c 128,-1,23
 289 1074 289 1074 289 1111 c 0,12,13
34 866 m 1,24,-1
 42 922 l 1,25,-1
 452 922 l 1,26,-1
 444 866 l 1,27,-1
 317 834 l 1,28,-1
 520 477 l 1,29,-1
 718 830 l 1,30,-1
 580 866 l 1,31,-1
 586 922 l 1,32,-1
 928 922 l 1,33,-1
 922 866 l 1,34,-1
 824 834 l 1,35,-1
 566 382 l 1,36,-1
 566 90 l 1,37,-1
 717 63 l 1,38,-1
 708 0 l 1,39,-1
 266 0 l 1,40,-1
 274 58 l 1,41,-1
 416 96 l 1,42,-1
 416 370 l 1,43,-1
 152 830 l 1,44,-1
 34 866 l 1,24,-1
EndSplineSet
EndChar

StartChar: yen
Encoding: 165 165 205
Width: 1048
VWidth: 0
Flags: MW
LayerCount: 2
Fore
SplineSet
142 500 m 1,0,-1
 154 572 l 1,1,-1
 358 572 l 1,2,-1
 235 830 l 1,3,-1
 96 867 l 1,4,-1
 106 922 l 1,5,-1
 513 922 l 1,6,-1
 506 867 l 1,7,-1
 386 834 l 1,8,-1
 568 414 l 1,9,-1
 756 830 l 1,10,-1
 620 867 l 1,11,-1
 626 922 l 1,12,-1
 985 922 l 1,13,-1
 978 867 l 1,14,-1
 853 833 l 1,15,-1
 724 572 l 1,16,-1
 960 572 l 1,17,-1
 949 500 l 1,18,-1
 689 500 l 1,19,-1
 626 374 l 1,20,-1
 960 374 l 1,21,-1
 949 301 l 1,22,-1
 613 301 l 1,23,-1
 613 90 l 1,24,-1
 786 62 l 1,25,-1
 777 0 l 1,26,-1
 297 0 l 1,27,-1
 304 56 l 1,28,-1
 466 96 l 1,29,-1
 466 301 l 1,30,-1
 142 301 l 1,31,-1
 154 374 l 1,32,-1
 453 374 l 1,33,-1
 393 500 l 1,34,-1
 142 500 l 1,0,-1
EndSplineSet
EndChar

StartChar: z
Encoding: 122 122 206
Width: 871
VWidth: 845
Flags: MW
LayerCount: 2
Fore
SplineSet
40 70 m 1,0,-1
 623 847 l 1,1,-1
 220 847 l 1,2,-1
 154 631 l 1,3,-1
 84 646 l 1,4,-1
 94 922 l 1,5,-1
 808 922 l 1,6,-1
 811 866 l 1,7,-1
 217 79 l 1,8,-1
 672 79 l 1,9,-1
 760 296 l 1,10,-1
 830 285 l 1,11,-1
 801 0 l 1,12,-1
 46 0 l 1,13,-1
 40 70 l 1,0,-1
EndSplineSet
EndChar

StartChar: zero
Encoding: 48 48 207
Width: 932
VWidth: 0
Flags: MW
LayerCount: 2
Fore
SplineSet
236 478 m 0,0,1
 236 261 236 261 299 155.5 c 128,-1,2
 362 50 362 50 468 50 c 0,3,4
 520 50 520 50 561 73.5 c 128,-1,5
 602 97 602 97 633 147 c 128,-1,6
 664 197 664 197 680 280.5 c 128,-1,7
 696 364 696 364 696 478 c 0,8,9
 696 691 696 691 637 799 c 128,-1,10
 578 907 578 907 466 907 c 0,11,12
 349 907 349 907 292.5 801.5 c 128,-1,13
 236 696 236 696 236 478 c 0,0,1
78 476 m 0,14,15
 78 570 78 570 106 660 c 128,-1,16
 134 750 134 750 183.5 820.5 c 128,-1,17
 233 891 233 891 307.5 933.5 c 128,-1,18
 382 976 382 976 468 976 c 0,19,20
 558 975 558 975 632 936 c 128,-1,21
 706 897 706 897 754.5 830 c 128,-1,22
 803 763 803 763 829.5 672.5 c 128,-1,23
 856 582 856 582 856 480 c 0,24,25
 856 365 856 365 823 268.5 c 128,-1,26
 790 172 790 172 735.5 109 c 128,-1,27
 681 46 681 46 610.5 11 c 128,-1,28
 540 -24 540 -24 464 -24 c 0,29,30
 384 -24 384 -24 314 10.5 c 128,-1,31
 244 45 244 45 191.5 108.5 c 128,-1,32
 139 172 139 172 108.5 267 c 128,-1,33
 78 362 78 362 78 476 c 0,14,15
EndSplineSet
EndChar

StartChar: micro
Encoding: 181 181 208
Width: 997
VWidth: 0
Flags: MW
LayerCount: 2
Fore
SplineSet
35 803 m 1,0,-1
 43 856 l 1,1,-1
 292 878 l 1,2,-1
 309 860 l 1,3,-1
 309 316 l 2,4,5
 309 82 309 82 479 82 c 0,6,7
 583 82 583 82 687 186 c 1,8,-1
 687 758 l 1,9,-1
 528 794 l 1,10,-1
 534 853 l 1,11,-1
 800 878 l 1,12,-1
 814 860 l 1,13,-1
 814 222 l 2,14,15
 814 145 814 145 835 112.5 c 128,-1,16
 856 80 856 80 914 68 c 1,17,-1
 968 57 l 1,18,-1
 961 -2 l 1,19,20
 894 -22 894 -22 834 -21 c 0,21,22
 768 -21 768 -21 733 18.5 c 128,-1,23
 698 58 698 58 698 119 c 2,24,-1
 698 131 l 1,25,-1
 687 131 l 1,26,27
 564 -24 564 -24 408 -24 c 0,28,29
 357 -24 357 -24 316.5 -6 c 128,-1,30
 276 12 276 12 254 48 c 1,31,-1
 248 48 l 1,32,33
 250 32 250 32 257 -86 c 2,34,-1
 272 -388 l 1,35,-1
 160 -362 l 1,36,37
 161 -343 161 -343 166 -203.5 c 128,-1,38
 171 -64 171 -64 176 145 c 128,-1,39
 181 354 181 354 181 494 c 2,40,-1
 181 761 l 1,41,-1
 35 803 l 1,0,-1
EndSplineSet
EndChar

StartChar: germandbls.alt
Encoding: 65537 -1 209
Width: 1047
VWidth: 845
Flags: MW
LayerCount: 2
Back
SplineSet
413 421.5 m 0,0,1
 484.373 421.5 484.373 421.5 507 338 c 1,2,3
 628.5 377.802 628.5 377.802 628.5 415.5 c 0,4,5
 628.5 454.486 628.5 454.486 596.172 531.698 c 0
 563.844 608.911 563.844 608.911 516.388 673.956 c 0
 468.932 739 468.932 739 434 739 c 1,6,7
 374.137 795.214 374.137 795.214 326.26 841.2 c 1
 371.647 796.007 371.647 796.007 426 740.85 c 1,8,-1
 426 521.85 l 1,9,10
 452.519 521.85 452.519 521.85 470.451 512.935 c 0
 488.383 504.02 488.383 504.02 496.955 487.491 c 0
 505.527 470.961 505.527 470.961 508.764 453.74 c 0
 512 436.52 512 436.52 512 413.85 c 0,11,12
 512 394.969 512 394.969 500.04 369.602 c 0
 488.079 344.234 488.079 344.234 471.5 339.35 c 1,13,14
 467.03 364.152 467.03 364.152 523.827 406.972 c 0
 555.862 431.124 555.862 431.124 556.013 436.467 c 0
 556.17 442 556.17 442 538.5 442 c 0,15,16
 511.132 442 511.132 442 473.638 610.558 c 1
 463.881 647.911 l 2
 463.152 647.814 463.152 647.814 463.152 641.979 c 1,17,18
 463.152 645.549 463.152 645.549 490.888 646.951 c 0
 518.624 648.353 518.624 648.353 562.138 644.225 c 0
 605.653 640.098 605.653 640.098 652.727 630.354 c 0
 699.802 620.611 699.802 620.611 744.935 597.949 c 0
 790.068 575.287 790.068 575.287 814.586 543.56 c 1,19,20
 819.774 491.577 819.774 491.577 776.451 457.049 c 0
 733.129 422.52 733.129 422.52 657.5 422 c 0,21,22
 623.689 422 623.689 422 591.799 432.138 c 0
 559.909 442.276 559.909 442.276 541.5 458 c 1,23,24
 533.492 456.7 533.492 456.7 524.33 460.344 c 0
 515.168 463.987 515.168 463.987 509.952 467.86 c 0
 504.735 471.733 504.735 471.733 496.232 478.967 c 1
 485.094 490.682 485.094 490.682 478.547 490.003 c 0
 472 489.325 472 489.325 472 467.5 c 0,25,26
 472 430 472 430 497.5 400 c 0
 523 370 523 370 559 350 c 0
 595 330 595 330 631 313 c 0
 667 296 667 296 692.5 275.5 c 0
 718 255 718 255 718 232.5 c 0,27,28
 718 199 718 199 698 145 c 0
 678 91 678 91 657.5 91 c 1,29,30
 638.686 79.2698 638.686 79.2698 639.139 75.2514 c 0
 639.745 69.8688 639.745 69.8688 654.415 81.2463 c 0
 659.621 85.2837 659.621 85.2837 664 90.5 c 1,31,32
 687.279 90.5 687.279 90.5 708.542 117.141 c 0
 729.805 143.782 729.805 143.782 740.902 176.221 c 0
 752 208.66 752 208.66 752 232 c 0,33,34
 752 258.119 752 258.119 724.371 282.523 c 0
 696.742 306.927 696.742 306.927 657.31 327.402 c 0
 617.878 347.877 617.878 347.877 578.446 369.644 c 0
 539.014 391.412 539.014 391.412 511.385 421.42 c 0
 483.756 451.428 483.756 451.428 483.756 485.737 c 0,35,36
 483.756 503.353 483.756 503.353 486.86 503.588 c 0
 487.781 503.657 487.781 503.657 500.897 488.732 c 0
 522.037 464.678 522.037 464.678 544.5 475.35 c 1,37,38
 585.519 435.85 585.519 435.85 702.5 435.85 c 1,39,40
 710.622 434.454 710.622 434.454 710.752 439.277 c 0
 710.876 443.871 710.876 443.871 707.448 440.084 c 0
 701 432.96 701 432.96 701 398 c 1,41,42
 701 452.447 701 452.447 637.166 418.887 c 0
 618.964 409.318 618.964 409.318 578.586 382.626 c 0
 505.987 334.636 505.987 334.636 486.538 337.081 c 0
 471.5 338.971 471.5 338.971 471.5 362 c 0,43,44
 471.5 388.862 471.5 388.862 416.175 414.773 c 0
 407.052 419.046 407.052 419.046 406.65 420.203 c 0
 406.2 421.5 406.2 421.5 413 421.5 c 0,0,1
EndSplineSet
Fore
SplineSet
14 0 m 1,0,-1
 20 58 l 1,1,-1
 158 91 l 1,2,-1
 158 540 l 2,3,4
 158 644 158 644 189 721.5 c 128,-1,5
 220 799 220 799 279.5 847 c 128,-1,6
 339 895 339 895 420.5 918.5 c 128,-1,7
 502 942 502 942 607 942 c 0,8,9
 707 942 707 942 810 928 c 128,-1,10
 913 914 913 914 964 898 c 1,11,-1
 964 841 l 1,12,-1
 709 542 l 1,13,14
 723 534 723 534 755 516.5 c 128,-1,15
 787 499 787 499 802.5 490.5 c 128,-1,16
 818 482 818 482 847 465 c 128,-1,17
 876 448 876 448 891 437.5 c 128,-1,18
 906 427 906 427 929 409.5 c 128,-1,19
 952 392 952 392 964.5 378 c 128,-1,20
 977 364 977 364 992.5 345 c 128,-1,21
 1008 326 1008 326 1015.5 307.5 c 128,-1,22
 1023 289 1023 289 1028.5 267.5 c 128,-1,23
 1034 246 1034 246 1034 222 c 0,24,25
 1034 114 1034 114 935 44.5 c 128,-1,26
 836 -25 836 -25 690 -25 c 0,27,28
 598 -25 598 -25 530 -3.5 c 128,-1,29
 462 18 462 18 422 54 c 1,30,-1
 454 302 l 1,31,-1
 529 290 l 1,32,-1
 546 126 l 1,33,34
 602 56 602 56 724 56 c 0,35,36
 800 56 800 56 849 88 c 128,-1,37
 898 120 898 120 898 177 c 0,38,39
 898 197 898 197 889 216.5 c 128,-1,40
 880 236 880 236 867 253 c 128,-1,41
 854 270 854 270 830 289.5 c 128,-1,42
 806 309 806 309 786.5 323 c 128,-1,43
 767 337 767 337 733 357.5 c 128,-1,44
 699 378 699 378 677.5 390 c 128,-1,45
 656 402 656 402 616.5 423 c 128,-1,46
 577 444 577 444 558 455 c 1,47,-1
 536 500 l 1,48,-1
 817 822 l 1,49,-1
 817 826 l 1,50,51
 708 878 708 878 551 878 c 0,52,53
 304 878 304 878 304 563 c 2,54,-1
 304 0 l 1,55,-1
 14 0 l 1,0,-1
EndSplineSet
EndChar
